{
.appVersion = "1075";
DisplayStrings = (
"Hepta Slab\012ABCDEFCGHIJKLMNOPQRSTUVWXYZ\012/a.sc/b.sc/c.sc/d.sc/e.sc/f.sc/g.sc/h.sc/i.sc/j.sc/k.sc/l.sc/m.sc/n.sc/o.sc/p.sc/q.sc/r.sc/s.sc/t.sc/u.sc/v.sc/w.sc/x.sc/y.sc/z.sc \012a/a.ss02 bcdetf/f.ss01 g/g.ss02 h/idotless i/jdotless jklnmnopqrst/t.ss01 uvwxyz\012/f_f/f_f_i/f_f_l/fi/fl/fi.ss01/fl.ss01  & 0123456789 /uniE0FF \012\012\012"
);
copyright = "Copyright © 2018 by Michael LaGattuta. All rights reserved.";
customParameters = (
{
name = Axes;
value = (
{
Name = Weight;
Tag = wght;
},
{
Name = Width;
Tag = wdth;
}
);
}
);
date = "2018-03-12 19:06:15 +0000";
designer = "Michael LaGattuta";
designerURL = "https://michaellagattuta.com/";
familyName = "Hepta Slab";
featurePrefixes = (
{
automatic = 1;
code = "languagesystem DFLT dflt;\012languagesystem latn dflt;\012languagesystem latn CAT;\012languagesystem latn ROM;\012languagesystem latn MOL;\012languagesystem latn KAZ;\012languagesystem latn TAT;\012languagesystem latn TRK;\012languagesystem latn CRT;\012languagesystem latn AZE;\012";
name = Languagesystems;
}
);
features = (
{
automatic = 1;
code = "feature ccmp;\012feature locl;\012feature subs;\012feature sups;\012feature numr;\012feature dnom;\012feature frac;\012feature ordn;\012feature lnum;\012feature onum;\012feature c2sc;\012feature smcp;\012feature case;\012feature salt;\012feature ss01;\012feature ss02;\012";
name = aalt;
},
{
automatic = 1;

glyphs = (
{
glyphname = A;
lastChange = "2018-02-27 18:04:13 +0000";
layers = (
{
anchors = (
{
name = bottom;
position = "{446, 0}";
},
{
name = ogonek;
position = "{774, 0}";
},
{
name = top;
position = "{446, 732}";
}
);
layerId = "67AEAADB-8447-4819-9D92-8BB76BD22042";
paths = (
{
closed = 1;
nodes = (
"239 278 LINE",
"239 273 LINE",
"653 273 LINE",
"653 278 LINE"
);
},
{
closed = 1;
nodes = (
"450 752 LINE",
"442 752 LINE",
"119 5 LINE",
"30 5 LINE",
"30 0 LINE",
"351 0 LINE",
"351 5 LINE",
"125 5 LINE",
"448 752 LINE",
"442 746 LINE",
"451 746 LINE",
"444 752 LINE",
"767 5 LINE",
"541 5 LINE",
"541 0 LINE",
"862 0 LINE",
"862 5 LINE",
"773 5 LINE"
);
}
);
width = 892;
},
{
anchors = (
{
name = bottom;
position = "{400, 0}";
},
{
name = ogonek;
position = "{691, 0}";
},
{
name = top;
position = "{400, 772}";
}
);
layerId = "BE4E587A-F76C-447B-AA28-A45E40876AAF";
leftMetricsKey = "=H-8";
paths = (
{
closed = 1;
nodes = (
"169 416 LINE",
"169 277 LINE",
"625 277 LINE",
"625 416 LINE"
);
},
{
closed = 1;
nodes = (
"581 772 LINE",
"263 772 LINE",
"60 207 LINE",
"8 207 LINE",
"8 0 LINE",
"360 0 LINE",
"360 207 LINE",
"285 207 LINE",
"436 720 LINE",
"351 560 LINE",
"449 560 LINE",
"347 720 LINE",
"498 207 LINE",
"435 207 LINE",
"435 0 LINE",
"831 0 LINE",
"831 207 LINE",
"784 207 LINE"
);
}
);
width = 839;
},
{
anchors = (
{
name = bottom;
position = "{390, 0}";
},
{
name = ogonek;
position = "{681, 0}";
},
{
name = top;
position = "{390, 732}";
}
);
layerId = "2C5E45D0-97E8-45AA-A5B2-946753DF54E1";
leftMetricsKey = "=H-42";
paths = (
{
closed = 1;
nodes = (
"193 320 LINE",
"193 231 LINE",
"593 231 LINE",
"593 320 LINE"
);
},
{
closed = 1;
nodes = (
"453 752 LINE",
"337 752 LINE",
"72 93 LINE",
"10 93 LINE",
"10 0 LINE",
"335 0 LINE",
"335 93 LINE",
"172 93 LINE",
"403 670 LINE",
"341 628 LINE",
"439 628 LINE",
"377 670 LINE",
"608 93 LINE",
"445 93 LINE",
"445 0 LINE",
"780 0 LINE",
"780 93 LINE",
"718 93 LINE"
);
}
);
width = 790;
}
);
rightMetricsKey = "=|";
unicode = 0041;
},
{
glyphname = AE;
lastChange = "2018-03-09 14:46:33 +0000";
layers = (
{
anchors = (
{
name = top;
position = "{737, 752}";
}
);
layerId = "67AEAADB-8447-4819-9D92-8BB76BD22042";
leftMetricsKey = "=A-16";
paths = (
{
closed = 1;
nodes = (
"1262 0 LINE",
"1262 187 LINE",
"1257 187 LINE",
"1257 5 LINE",
"712 5 LINE",
"712 747 LINE",
"1248 747 LINE",
"1248 565 LINE",
"1253 565 LINE",
"1253 752 LINE",
"330 752 LINE",
"330 747 LINE",
"707 747 LINE",
"707 5 LINE",
"558 5 LINE",
"558 0 LINE"
);
},
{
closed = 1;
nodes = (
"355 0 LINE",
"355 5 LINE",
"129 5 LINE",
"620 752 LINE",
"614 752 LINE",
"123 5 LINE",
"14 5 LINE",
"14 0 LINE"
);
},
{
closed = 1;
nodes = (
"710 273 LINE",
"710 278 LINE",
"308 278 LINE",
"308 273 LINE"
);
},
{
closed = 1;
nodes = (
"1063 377 LINE",
"1063 382 LINE",
"709 382 LINE",
"709 377 LINE"
);
}
);
width = 1320;
},
{
anchors = (
{
name = top;
position = "{683, 732}";
}
);
layerId = "2C5E45D0-97E8-45AA-A5B2-946753DF54E1";
leftMetricsKey = "=A-16";
paths = (
{
closed = 1;
nodes = (
"1204 0 LINE",
"1204 227 LINE",
"1102 227 LINE",
"1102 93 LINE",
"706 93 LINE",
"706 659 LINE",
"1093 659 LINE",
"1093 525 LINE",
"1195 525 LINE",
"1195 752 LINE",
"274 752 LINE",
"274 659 LINE",
"604 659 LINE",
"604 93 LINE",
"494 93 LINE",
"494 0 LINE"
);
},
{
closed = 1;
nodes = (
"360 0 LINE",
"360 93 LINE",
"197 93 LINE",
"555 722 LINE",
"438 722 LINE",
"91 93 LINE",
"-6 93 LINE",
"-6 0 LINE"
);
},
{
closed = 1;
nodes = (
"668 230 LINE",
"668 320 LINE",
"238 320 LINE",
"238 230 LINE"
);
},
{
closed = 1;
nodes = (
"1004 334 LINE",
"1004 424 LINE",
"662 424 LINE",
"662 334 LINE"
);
}
);
width = 1272;
},
{
anchors = (
{
name = top;
position = "{717, 772}";
}
);
layerId = "BE4E587A-F76C-447B-AA28-A45E40876AAF";
leftMetricsKey = "=A-7";
paths = (
{
closed = 1;
nodes = (
"1320 0 LINE",
"1320 327 LINE",
"1062 327 LINE",
"1062 207 LINE",
"842 207 LINE",
"842 565 LINE",
"1053 565 LINE",
"1053 445 LINE",
"1311 445 LINE",
"1311 772 LINE",
"158 772 LINE",
"158 565 LINE",
"584 565 LINE",
"584 207 LINE",
"527 207 LINE",
"527 0 LINE"
);
},
{
closed = 1;
nodes = (
"417 0 LINE",
"417 207 LINE",
"354 207 LINE",
"651 772 LINE",
"417 772 LINE",
"68 207 LINE",
"1 207 LINE",
"1 0 LINE"
);
},
{
closed = 1;
nodes = (
"697 252 LINE",
"697 429 LINE",
"241 429 LINE",
"241 252 LINE"
);
},
{
closed = 1;
nodes = (
"995 300 LINE",
"995 477 LINE",
"711 477 LINE",
"711 300 LINE"
);
}
);
width = 1344;
}
);
leftMetricsKey = "A-16";
rightMetricsKey = E;
unicode = 00C6;
},
{
glyphname = B;
lastChange = "2018-03-11 20:34:33 +0000";
layers = (
{
layerId = "67AEAADB-8447-4819-9D92-8BB76BD22042";
paths = (
{
closed = 1;
nodes = (
"432 747 LINE SMOOTH",
"587 747 OFFCURVE",
"681 691 OFFCURVE",
"681 565 CURVE SMOOTH",
"681 446 OFFCURVE",
"597 388 OFFCURVE",
"441 388 CURVE SMOOTH",
"198 388 LINE",
"198 385 LINE",
"439 385 LINE SMOOTH",
"600 385 OFFCURVE",
"686 442 OFFCURVE",
"686 565 CURVE SMOOTH",
"686 694 OFFCURVE",
"590 752 OFFCURVE",
"432 752 CURVE SMOOTH",
"319 752 LINE",
"317 747 LINE"
);
},
{
closed = 1;
nodes = (
"329 0 LINE",
"446 0 LINE SMOOTH",
"613 0 OFFCURVE",
"714 67 OFFCURVE",
"714 195 CURVE SMOOTH",
"714 348 OFFCURVE",
"573 386 OFFCURVE",
"440 386 CURVE SMOOTH",
"198 386 LINE",
"198 383 LINE",
"440 383 LINE SMOOTH",
"570 383 OFFCURVE",
"709 344 OFFCURVE",
"709 195 CURVE SMOOTH",
"709 70 OFFCURVE",
"610 5 OFFCURVE",
"446 5 CURVE SMOOTH",
"329 5 LINE"
);
},
{
closed = 1;
nodes = (
"195 747 LINE",
"195 5 LINE",
"46 5 LINE",
"46 0 LINE",
"349 0 LINE",
"349 5 LINE",
"200 5 LINE",
"200 747 LINE",
"349 747 LINE",
"349 752 LINE",
"46 752 LINE",
"46 747 LINE"
);
}
);
width = 778;
},
{
layerId = "BE4E587A-F76C-447B-AA28-A45E40876AAF";
rightMetricsKey = "=O-4";
paths = (
{
closed = 1;
nodes = (
"449 565 LINE SMOOTH",
"491 565 OFFCURVE",
"512 548 OFFCURVE",
"512 517 CURVE SMOOTH",
"512 486 OFFCURVE",
"491 469 OFFCURVE",
"449 469 CURVE SMOOTH",
"246 469 LINE",
"246 386 LINE",
"454 386 LINE SMOOTH",
"661 386 OFFCURVE",
"771 445 OFFCURVE",
"771 574 CURVE SMOOTH",
"771 705 OFFCURVE",
"659 772 OFFCURVE",
"475 772 CURVE SMOOTH",
"373 772 LINE",
"373 565 LINE"
);
},
{
closed = 1;
nodes = (
"363 0 LINE",
"508 0 LINE SMOOTH",
"689 0 OFFCURVE",
"799 75 OFFCURVE",
"799 211 CURVE SMOOTH",
"799 356 OFFCURVE",
"681 411 OFFCURVE",
"469 411 CURVE SMOOTH",
"246 411 LINE",
"246 312 LINE",
"469 312 LINE SMOOTH",
"516 312 OFFCURVE",
"540 293 OFFCURVE",
"540 260 CURVE SMOOTH",
"540 227 OFFCURVE",
"513 207 OFFCURVE",
"468 207 CURVE SMOOTH",
"363 207 LINE"
);
},
{
closed = 1;
nodes = (
"73 565 LINE",
"73 207 LINE",
"16 207 LINE",
"16 0 LINE",
"401 0 LINE",
"401 207 LINE",
"331 207 LINE",
"331 565 LINE",
"401 565 LINE",
"401 772 LINE",
"16 772 LINE",
"16 565 LINE"
);
}
);
width = 806;
},
{
layerId = "2C5E45D0-97E8-45AA-A5B2-946753DF54E1";
rightMetricsKey = "=O+8";
paths = (
{
closed = 1;
nodes = (
"427 659 LINE SMOOTH",
"513 659 OFFCURVE",
"571 622 OFFCURVE",
"571 547 CURVE SMOOTH",
"571 483 OFFCURVE",
"534 424 OFFCURVE",
"434 424 CURVE SMOOTH",
"235 424 LINE",
"235 374 LINE",
"432 374 LINE SMOOTH",
"594 374 OFFCURVE",
"680 430 OFFCURVE",
"680 558 CURVE SMOOTH",
"680 685 OFFCURVE",
"592 752 OFFCURVE",
"447 752 CURVE SMOOTH",
"352 752 LINE",
"352 659 LINE"
);
},
{
closed = 1;
nodes = (
"342 0 LINE",
"480 0 LINE SMOOTH",
"622 0 OFFCURVE",
"708 76 OFFCURVE",
"708 207 CURVE SMOOTH",
"708 348 OFFCURVE",
"610 399 OFFCURVE",
"433 399 CURVE SMOOTH",
"235 399 LINE",
"235 334 LINE",
"433 334 LINE SMOOTH",
"553 334 OFFCURVE",
"599 282 OFFCURVE",
"599 215 CURVE SMOOTH",
"599 135 OFFCURVE",
"535 93 OFFCURVE",
"439 93 CURVE SMOOTH",
"342 93 LINE"
);
},
{
closed = 1;
nodes = (
"162 659 LINE",
"162 93 LINE",
"52 93 LINE",
"52 0 LINE",
"374 0 LINE",
"374 93 LINE",
"264 93 LINE",
"264 659 LINE",
"374 659 LINE",
"374 752 LINE",
"52 752 LINE",
"52 659 LINE"
);
}
);
width = 757;
}
);
leftMetricsKey = H;
unicode = 0042;
},
{
color = 1;
glyphname = C;
lastChange = "2018-03-09 15:13:03 +0000";
layers = (
{
anchors = (
{
name = bottom;
position = "{435, 0}";
},
{
name = top;
position = "{425, 732}";
}
);
layerId = "67AEAADB-8447-4819-9D92-8BB76BD22042";
rightMetricsKey = "=O-12";
paths = (
{
closed = 1;
nodes = (
"603 -7 OFFCURVE",
"742 114 OFFCURVE",
"778 297 CURVE",
"773 298 LINE",
"738 117 OFFCURVE",
"600 -2 OFFCURVE",
"417 -2 CURVE SMOOTH",
"206 -2 OFFCURVE",
"52 154 OFFCURVE",
"52 378 CURVE SMOOTH",
"52 599 OFFCURVE",
"197 754 OFFCURVE",
"424 754 CURVE SMOOTH",
"606 754 OFFCURVE",
"733 654 OFFCURVE",
"767 457 CURVE",
"771 480 LINE",
"766 480 LINE",
"730 655 OFFCURVE",
"609 759 OFFCURVE",
"424 759 CURVE SMOOTH",
"194 759 OFFCURVE",
"47 602 OFFCURVE",
"47 378 CURVE SMOOTH",
"47 151 OFFCURVE",
"203 -7 OFFCURVE",
"417 -7 CURVE SMOOTH"
);
},
{
closed = 1;
nodes = (
"772 457 LINE",
"772 752 LINE",
"767 752 LINE",
"767 457 LINE"
);
}
);
width = 813;
},
{
anchors = (
{
name = bottom;
position = "{421, 0}";
},
{
name = top;
position = "{426, 772}";
}
);
layerId = "BE4E587A-F76C-447B-AA28-A45E40876AAF";
rightMetricsKey = "=O-2";
paths = (
{
closed = 1;
nodes = (
"649 -14 OFFCURVE",
"810 123 OFFCURVE",
"837 327 CURVE",
"573 364 LINE",
"563 283 OFFCURVE",
"505 229 OFFCURVE",
"426 229 CURVE SMOOTH",
"339 229 OFFCURVE",
"278 294 OFFCURVE",
"278 388 CURVE SMOOTH",
"278 480 OFFCURVE",
"339 543 OFFCURVE",
"430 543 CURVE SMOOTH",
"497 543 OFFCURVE",
"552 508 OFFCURVE",
"573 452 CURVE",
"613 506 LINE",
"565 506 LINE",
"555 695 OFFCURVE",
"487 786 OFFCURVE",
"356 786 CURVE SMOOTH",
"181 786 OFFCURVE",
"11 622 OFFCURVE",
"11 388 CURVE SMOOTH",
"11 151 OFFCURVE",
"181 -14 OFFCURVE",
"426 -14 CURVE SMOOTH"
);
},
{
closed = 1;
nodes = (
"831 452 LINE",
"831 772 LINE",
"573 772 LINE",
"573 452 LINE"
);
}
);
width = 846;
},
{
anchors = (
{
name = bottom;
position = "{421, 0}";
},
{
name = top;
position = "{421, 732}";
}
);
layerId = "2C5E45D0-97E8-45AA-A5B2-946753DF54E1";
rightMetricsKey = "=O-10";
paths = (
{
closed = 1;
nodes = (
"613 -12 OFFCURVE",
"753 102 OFFCURVE",
"789 277 CURVE",
"683 299 LINE",
"656 171 OFFCURVE",
"556 88 OFFCURVE",
"421 88 CURVE SMOOTH",
"261 88 OFFCURVE",
"150 207 OFFCURVE",
"150 378 CURVE SMOOTH",
"150 547 OFFCURVE",
"261 663 OFFCURVE",
"421 663 CURVE SMOOTH",
"556 663 OFFCURVE",
"657 582 OFFCURVE",
"686 457 CURVE",
"713 546 LINE",
"682 546 LINE",
"660 684 OFFCURVE",
"571 763 OFFCURVE",
"418 763 CURVE SMOOTH",
"198 763 OFFCURVE",
"41 604 OFFCURVE",
"41 378 CURVE SMOOTH",
"41 148 OFFCURVE",
"196 -12 OFFCURVE",
"421 -12 CURVE SMOOTH"
);
},
{
closed = 1;
nodes = (
"788 457 LINE",
"788 752 LINE",
"686 752 LINE",
"686 457 LINE"
);
}
);
width = 820;
},
{
associatedMasterId = "2C5E45D0-97E8-45AA-A5B2-946753DF54E1";
layerId = "ABEBCFEB-F4FD-4F73-B8D5-68177E2D0DDB";
rightMetricsKey = "=O+2";
name = "Jan 3 18, 14:47";
paths = (
{
closed = 1;
nodes = (
"788 457 LINE",
"788 752 LINE",
"686 752 LINE",
"686 457 LINE"
);
},
{
closed = 1;
nodes = (
"686 4 LINE",
"788 4 LINE",
"788 285 LINE",
"686 285 LINE"
);
},
{
closed = 1;
nodes = (
"262 93 OFFCURVE",
"150 209 OFFCURVE",
"150 378 CURVE SMOOTH",
"150 547 OFFCURVE",
"261 663 OFFCURVE",
"421 663 CURVE SMOOTH",
"556 663 OFFCURVE",
"657 582 OFFCURVE",
"686 457 CURVE",
"713 546 LINE",
"682 546 LINE",
"660 684 OFFCURVE",
"571 763 OFFCURVE",
"418 763 CURVE SMOOTH",
"198 763 OFFCURVE",
"41 604 OFFCURVE",
"41 378 CURVE SMOOTH",
"41 152 OFFCURVE",
"199 -7 OFFCURVE",
"422 -7 CURVE SMOOTH",
"572 -7 OFFCURVE",
"660 67 OFFCURVE",
"682 196 CURVE",
"713 196 LINE",
"686 285 LINE",
"657 168 OFFCURVE",
"557 93 OFFCURVE",
"425 93 CURVE SMOOTH"
);
}
);
width = 831;
},
{
anchors = (
{
name = bottom;
position = "{435, 0}";
},
{
name = top;
position = "{425, 732}";
}
);
associatedMasterId = "67AEAADB-8447-4819-9D92-8BB76BD22042";
layerId = "51254500-A0C0-4125-AB1B-C82D69DD8A34";
rightMetricsKey = "=O-12";
name = "Light [9]";
paths = (
{
closed = 1;
nodes = (
"605 -7 OFFCURVE",
"744 113 OFFCURVE",
"778 297 CURVE",
"773 298 LINE",
"738 117 OFFCURVE",
"600 -2 OFFCURVE",
"417 -2 CURVE SMOOTH",
"206 -2 OFFCURVE",
"52 154 OFFCURVE",
"52 378 CURVE SMOOTH",
"52 599 OFFCURVE",
"200 754 OFFCURVE",
"429 754 CURVE SMOOTH",
"609 754 OFFCURVE",
"733 654 OFFCURVE",
"767 457 CURVE",
"771 507 LINE",
"766 507 LINE",
"721 665 OFFCURVE",
"610 759 OFFCURVE",
"429 759 CURVE SMOOTH",
"197 759 OFFCURVE",
"47 602 OFFCURVE",
"47 378 CURVE SMOOTH",
"47 151 OFFCURVE",
"203 -7 OFFCURVE",
"417 -7 CURVE SMOOTH"
);
},
{
closed = 1;
nodes = (
"772 457 LINE",
"772 752 LINE",
"767 752 LINE",
"767 457 LINE"
);
}
);
width = 813;
}
);
leftMetricsKey = O;
unicode = 0043;
},
{
glyphname = D;
lastChange = "2018-02-27 21:07:30 +0000";
layers = (
{
anchors = (
{
name = top;
position = "{418, 732}";
}
);
layerId = "67AEAADB-8447-4819-9D92-8BB76BD22042";
paths = (
{
closed = 1;
nodes = (
"433 0 LINE SMOOTH",
"672 0 OFFCURVE",
"825 155 OFFCURVE",
"825 378 CURVE SMOOTH",
"825 598 OFFCURVE",
"672 752 OFFCURVE",
"433 752 CURVE SMOOTH",
"340 752 LINE",
"340 747 LINE",
"433 747 LINE SMOOTH",
"670 747 OFFCURVE",
"820 595 OFFCURVE",
"820 378 CURVE SMOOTH",
"820 158 OFFCURVE",
"670 5 OFFCURVE",
"433 5 CURVE SMOOTH",
"338 5 LINE",
"338 0 LINE"
);
},
{
closed = 1;
nodes = (
"349 0 LINE",
"349 5 LINE",
"200 5 LINE",
"200 747 LINE",
"349 747 LINE",
"349 752 LINE",
"46 752 LINE",
"46 747 LINE",
"195 747 LINE",
"195 5 LINE",
"46 5 LINE",
"46 0 LINE"
);
}
);
width = 872;
},
{
anchors = (
{
name = top;
position = "{391, 772}";
}
);
layerId = "BE4E587A-F76C-447B-AA28-A45E40876AAF";
paths = (
{
closed = 1;
nodes = (
"406 0 LINE",
"661 0 OFFCURVE",
"831 159 OFFCURVE",
"831 388 CURVE SMOOTH",
"831 613 OFFCURVE",
"661 771 OFFCURVE",
"406 772 CURVE",
"329 772 LINE",
"329 565 LINE",
"400 565 LINE",
"503 565 OFFCURVE",
"564 493 OFFCURVE",
"564 388 CURVE SMOOTH",
"564 281 OFFCURVE",
"503 206 OFFCURVE",
"400 207 CURVE",
"329 207 LINE",
"329 0 LINE"
);
},
{
closed = 1;
nodes = (
"368 0 LINE",
"368 207 LINE",
"331 207 LINE",
"331 565 LINE",
"368 565 LINE",
"368 772 LINE",
"16 772 LINE",
"16 565 LINE",
"73 565 LINE",
"73 207 LINE",
"16 207 LINE",
"16 0 LINE"
);
}
);
width = 842;
},
{
anchors = (
{
name = top;
position = "{411, 732}";
}
);
layerId = "2C5E45D0-97E8-45AA-A5B2-946753DF54E1";
paths = (
{
closed = 1;
nodes = (
"420 0 LINE SMOOTH",
"651 0 OFFCURVE",
"810 155 OFFCURVE",
"810 378 CURVE SMOOTH",
"810 598 OFFCURVE",
"651 752 OFFCURVE",
"420 752 CURVE SMOOTH",
"362 752 LINE",
"362 659 LINE",
"420 659 LINE SMOOTH",
"586 659 OFFCURVE",
"701 545 OFFCURVE",
"701 378 CURVE SMOOTH",
"701 210 OFFCURVE",
"586 93 OFFCURVE",
"420 93 CURVE SMOOTH",
"362 93 LINE",
"362 0 LINE"
);
},
{
closed = 1;
nodes = (
"394 0 LINE",
"394 93 LINE",
"264 93 LINE",
"264 659 LINE",
"394 659 LINE",
"394 752 LINE",
"52 752 LINE",
"52 659 LINE",
"162 659 LINE",
"162 93 LINE",
"52 93 LINE",
"52 0 LINE"
);
}
);
width = 851;
}
);
leftMetricsKey = H;
rightMetricsKey = O;
unicode = 0044;
},
{
glyphname = Eth;
lastChange = "2018-03-09 14:46:33 +0000";
layers = (
{
components = (
{
name = D;
transform = "{1, 0, 0, 1, 12, 0}";
}
);
layerId = "67AEAADB-8447-4819-9D92-8BB76BD22042";
leftMetricsKey = "=D+12";
paths = (
{
closed = 1;
nodes = (
"75 382 LINE",
"75 377 LINE",
"456 377 LINE",
"456 382 LINE"
);
}
);
width = 884;
},
{
components = (
{
name = D;
transform = "{1, 0, 0, 1, 17, 0}";
}
);
layerId = "2C5E45D0-97E8-45AA-A5B2-946753DF54E1";
leftMetricsKey = "=D+14";
paths = (
{
closed = 1;
nodes = (
"66 424 LINE",
"66 334 LINE",
"461 334 LINE",
"461 424 LINE"
);
}
);
width = 868;
},
{
components = (
{
name = D;
}
);
layerId = "BE4E587A-F76C-447B-AA28-A45E40876AAF";
paths = (
{
closed = 1;
nodes = (
"16 477 LINE",
"16 300 LINE",
"424 300 LINE",
"424 477 LINE"
);
}
);
width = 842;
}
);
leftMetricsKey = D;
rightMetricsKey = D;
unicode = 00D0;
},
{
glyphname = E;
lastChange = "2018-02-27 21:07:30 +0000";
layers = (
{
anchors = (
{
name = bottom;
position = "{496, 0}";
},
{
name = ogonek;
position = "{827, 0}";
},
{
name = top;
position = "{457, 732}";
}
);
layerId = "67AEAADB-8447-4819-9D92-8BB76BD22042";
rightMetricsKey = "=H+12";
paths = (
{
closed = 1;
nodes = (
"197 382 LINE",
"197 377 LINE",
"538 377 LINE",
"538 382 LINE"
);
},
{
closed = 1;
nodes = (
"732 5 LINE",
"200 5 LINE",
"200 747 LINE",
"723 747 LINE",
"723 565 LINE",
"728 565 LINE",
"728 752 LINE",
"46 752 LINE",
"46 747 LINE",
"195 747 LINE",
"195 5 LINE",
"46 5 LINE",
"46 0 LINE",
"737 0 LINE",
"737 187 LINE",
"732 187 LINE"
);
}
);
width = 795;
},
{
anchors = (
{
name = bottom;
position = "{422, 0}";
},
{
name = ogonek;
position = "{809, 0}";
},
{
name = top;
position = "{422, 772}";
}
);
layerId = "BE4E587A-F76C-447B-AA28-A45E40876AAF";
rightMetricsKey = "=H+8";
paths = (
{
closed = 1;
nodes = (
"200 477 LINE",
"200 300 LINE",
"484 300 LINE",
"484 477 LINE"
);
},
{
closed = 1;
nodes = (
"551 207 LINE",
"331 207 LINE",
"331 565 LINE",
"542 565 LINE",
"542 445 LINE",
"800 445 LINE",
"800 772 LINE",
"16 772 LINE",
"16 565 LINE",
"73 565 LINE",
"73 207 LINE",
"16 207 LINE",
"16 0 LINE",
"809 0 LINE",
"809 327 LINE",
"551 327 LINE"
);
}
);
width = 833;
},
{
anchors = (
{
name = bottom;
position = "{431, 0}";
},
{
name = ogonek;
position = "{762, 0}";
},
{
name = top;
position = "{431, 732}";
}
);
layerId = "2C5E45D0-97E8-45AA-A5B2-946753DF54E1";
leftMetricsKey = "=H";
rightMetricsKey = "=H+16";
paths = (
{
closed = 1;
nodes = (
"220 424 LINE",
"220 334 LINE",
"562 334 LINE",
"562 424 LINE"
);
},
{
closed = 1;
nodes = (
"660 93 LINE",
"264 93 LINE",
"264 659 LINE",
"651 659 LINE",
"651 525 LINE",
"753 525 LINE",
"753 752 LINE",
"52 752 LINE",
"52 659 LINE",
"162 659 LINE",
"162 93 LINE",
"52 93 LINE",
"52 0 LINE",
"762 0 LINE",
"762 227 LINE",
"660 227 LINE"
);
}
);
width = 830;
}
);
leftMetricsKey = H;
unicode = 0045;
},
{
glyphname = F;
lastChange = "2018-02-27 21:07:30 +0000";
layers = (
{
layerId = "67AEAADB-8447-4819-9D92-8BB76BD22042";
rightMetricsKey = "=H-14";
paths = (
{
closed = 1;
nodes = (
"197 382 LINE",
"197 377 LINE",
"521 377 LINE",
"521 382 LINE"
);
},
{
closed = 1;
nodes = (
"46 752 LINE",
"46 747 LINE",
"195 747 LINE",
"195 5 LINE",
"46 5 LINE",
"46 0 LINE",
"363 0 LINE",
"363 5 LINE",
"200 5 LINE",
"200 747 LINE",
"691 747 LINE",
"691 565 LINE",
"696 565 LINE",
"696 752 LINE"
);
}
);
width = 728;
},
{
layerId = "BE4E587A-F76C-447B-AA28-A45E40876AAF";
rightMetricsKey = "=H-12";
paths = (
{
closed = 1;
nodes = (
"200 477 LINE",
"200 300 LINE",
"466 300 LINE",
"466 477 LINE"
);
},
{
closed = 1;
nodes = (
"16 772 LINE",
"16 565 LINE",
"73 565 LINE",
"73 207 LINE",
"16 207 LINE",
"16 0 LINE",
"446 0 LINE",
"446 207 LINE",
"331 207 LINE",
"331 565 LINE",
"518 565 LINE",
"518 435 LINE",
"776 435 LINE",
"776 772 LINE"
);
}
);
width = 780;
},
{
layerId = "2C5E45D0-97E8-45AA-A5B2-946753DF54E1";
leftMetricsKey = "=H";
rightMetricsKey = "=H-26";
paths = (
{
closed = 1;
nodes = (
"220 424 LINE",
"220 334 LINE",
"517 334 LINE",
"517 424 LINE"
);
},
{
closed = 1;
nodes = (
"52 752 LINE",
"52 659 LINE",
"162 659 LINE",
"162 93 LINE",
"52 93 LINE",
"52 0 LINE",
"402 0 LINE",
"402 93 LINE",
"264 93 LINE",
"264 659 LINE",
"609 659 LINE",
"609 525 LINE",
"711 525 LINE",
"711 752 LINE"
);
}
);
width = 737;
}
);
leftMetricsKey = H;
unicode = 0046;
},
{
color = 0;
glyphname = G;
lastChange = "2018-03-07 17:29:48 +0000";
layers = (
{
anchors = (
{
name = bottom;
position = "{363, 0}";
},
{
name = top;
position = "{418, 732}";
}
);
layerId = "67AEAADB-8447-4819-9D92-8BB76BD22042";
rightMetricsKey = "=H-8";
paths = (
{
closed = 1;
nodes = (
"610 -7 OFFCURVE",
"756 132 OFFCURVE",
"777 340 CURVE",
"773 341 LINE",
"751 134 OFFCURVE",
"607 -2 OFFCURVE",
"417 -2 CURVE SMOOTH",
"206 -2 OFFCURVE",
"52 154 OFFCURVE",
"52 378 CURVE SMOOTH",
"52 599 OFFCURVE",
"200 754 OFFCURVE",
"429 754 CURVE SMOOTH",
"611 754 OFFCURVE",
"733 654 OFFCURVE",
"767 457 CURVE",
"771 480 LINE",
"766 480 LINE",
"731 655 OFFCURVE",
"615 759 OFFCURVE",
"429 759 CURVE SMOOTH",
"197 759 OFFCURVE",
"47 602 OFFCURVE",
"47 378 CURVE SMOOTH",
"47 151 OFFCURVE",
"203 -7 OFFCURVE",
"417 -7 CURVE SMOOTH"
);
},
{
closed = 1;
nodes = (
"778 0 LINE",
"778 343 LINE",
"773 343 LINE",
"773 324 LINE",
"773 0 LINE"
);
},
{
closed = 1;
nodes = (
"872 340 LINE",
"872 345 LINE",
"478 345 LINE",
"478 340 LINE"
);
},
{
closed = 1;
nodes = (
"772 457 LINE",
"772 752 LINE",
"767 752 LINE",
"767 457 LINE"
);
}
);
width = 910;
},
{
anchors = (
{
name = bottom;
position = "{420, 0}";
},
{
name = top;
position = "{428, 732}";
}
);
layerId = "BE4E587A-F76C-447B-AA28-A45E40876AAF";
paths = (
{
closed = 1;
nodes = (
"605 -14 OFFCURVE",
"713 91 OFFCURVE",
"737 327 CURVE",
"625 334 LINE",
"594 267 OFFCURVE",
"520 223 OFFCURVE",
"439 223 CURVE SMOOTH",
"337 223 OFFCURVE",
"278 290 OFFCURVE",
"278 388 CURVE SMOOTH",
"278 480 OFFCURVE",
"341 543 OFFCURVE",
"434 543 CURVE SMOOTH",
"500 543 OFFCURVE",
"553 512 OFFCURVE",
"573 462 CURVE",
"613 516 LINE",
"565 516 LINE",
"555 698 OFFCURVE",
"487 786 OFFCURVE",
"356 786 CURVE SMOOTH",
"181 786 OFFCURVE",
"11 622 OFFCURVE",
"11 388 CURVE SMOOTH",
"11 151 OFFCURVE",
"181 -14 OFFCURVE",
"418 -14 CURVE SMOOTH"
);
},
{
closed = 1;
nodes = (
"837 0 LINE",
"837 368 LINE",
"579 368 LINE",
"579 226 LINE",
"693 0 LINE"
);
},
{
closed = 1;
nodes = (
"892 277 LINE",
"892 436 LINE",
"404 436 LINE",
"404 277 LINE"
);
},
{
closed = 1;
nodes = (
"831 462 LINE",
"831 752 LINE",
"573 752 LINE",
"573 462 LINE"
);
}
);
width = 900;
},
{
anchors = (
{
name = bottom;
position = "{420, 0}";
},
{
name = top;
position = "{428, 732}";
}
);
layerId = "2C5E45D0-97E8-45AA-A5B2-946753DF54E1";
rightMetricsKey = "=H-28";
paths = (
{
closed = 1;
nodes = (
"598 -11 OFFCURVE",
"733 103 OFFCURVE",
"770 277 CURVE",
"692 299 LINE",
"662 172 OFFCURVE",
"560 89 OFFCURVE",
"421 89 CURVE SMOOTH",
"261 89 OFFCURVE",
"150 208 OFFCURVE",
"150 378 CURVE SMOOTH",
"150 547 OFFCURVE",
"261 663 OFFCURVE",
"421 663 CURVE SMOOTH",
"556 663 OFFCURVE",
"657 582 OFFCURVE",
"686 457 CURVE",
"713 546 LINE",
"682 546 LINE",
"660 684 OFFCURVE",
"571 763 OFFCURVE",
"418 763 CURVE SMOOTH",
"198 763 OFFCURVE",
"41 604 OFFCURVE",
"41 378 CURVE SMOOTH",
"41 149 OFFCURVE",
"194 -11 OFFCURVE",
"416 -11 CURVE SMOOTH"
);
},
{
closed = 1;
nodes = (
"792 0 LINE",
"792 368 LINE",
"690 368 LINE",
"690 116 LINE",
"727 0 LINE"
);
},
{
closed = 1;
nodes = (
"901 278 LINE",
"901 371 LINE",
"494 371 LINE",
"494 278 LINE"
);
},
{
closed = 1;
nodes = (
"788 457 LINE",
"788 752 LINE",
"686 752 LINE",
"686 457 LINE"
);
}
);
width = 925;
},
{
associatedMasterId = "2C5E45D0-97E8-45AA-A5B2-946753DF54E1";
layerId = "5EAA0A0D-DF81-4506-9706-629629C5BCC5";
rightMetricsKey = "=H-20";
name = "Dec 25 17, 01:58";
paths = (
{
closed = 1;
nodes = (
"789 0 LINE",
"789 368 LINE",
"687 368 LINE",
"687 0 LINE"
);
},
{
closed = 1;
nodes = (
"902 278 LINE",
"902 371 LINE",
"495 371 LINE",
"495 278 LINE"
);
},
{
closed = 1;
nodes = (
"789 457 LINE",
"789 752 LINE",
"687 752 LINE",
"687 457 LINE"
);
},
{
closed = 1;
nodes = (
"263 89 OFFCURVE",
"152 206 OFFCURVE",
"151 376 CURVE SMOOTH",
"151 546 OFFCURVE",
"262 663 OFFCURVE",
"422 663 CURVE SMOOTH",
"557 663 OFFCURVE",
"658 582 OFFCURVE",
"687 457 CURVE",
"714 546 LINE",
"683 546 LINE",
"661 684 OFFCURVE",
"572 763 OFFCURVE",
"419 763 CURVE SMOOTH",
"199 763 OFFCURVE",
"42 603 OFFCURVE",
"42 376 CURVE SMOOTH",
"42 149 OFFCURVE",
"199 -11 OFFCURVE",
"419 -11 CURVE SMOOTH",
"572 -11 OFFCURVE",
"661 68 OFFCURVE",
"683 206 CURVE",
"714 206 LINE",
"687 295 LINE",
"658 170 OFFCURVE",
"557 89 OFFCURVE",
"422 89 CURVE SMOOTH"
);
}
);
width = 912;
},
{
anchors = (
{
name = bottom;
position = "{363, 0}";
},
{
name = top;
position = "{418, 732}";
}
);
associatedMasterId = "67AEAADB-8447-4819-9D92-8BB76BD22042";
layerId = "6F48D09F-76B3-4A76-9440-FF62DA06DCD1";
rightMetricsKey = "=H-8";
name = "Light [6]";
paths = (
{
closed = 1;
nodes = (
"612 -7 OFFCURVE",
"756 130 OFFCURVE",
"777 340 CURVE",
"773 341 LINE",
"751 134 OFFCURVE",
"607 -2 OFFCURVE",
"417 -2 CURVE SMOOTH",
"206 -2 OFFCURVE",
"52 154 OFFCURVE",
"52 378 CURVE SMOOTH",
"52 599 OFFCURVE",
"200 754 OFFCURVE",
"429 754 CURVE SMOOTH",
"609 754 OFFCURVE",
"733 654 OFFCURVE",
"767 457 CURVE",
"771 507 LINE",
"766 507 LINE",
"733 657 OFFCURVE",
"615 759 OFFCURVE",
"429 759 CURVE SMOOTH",
"197 759 OFFCURVE",
"47 602 OFFCURVE",
"47 378 CURVE SMOOTH",
"47 151 OFFCURVE",
"203 -7 OFFCURVE",
"417 -7 CURVE SMOOTH"
);
},
{
closed = 1;
nodes = (
"778 0 LINE",
"778 343 LINE",
"773 343 LINE",
"773 324 LINE",
"773 0 LINE"
);
},
{
closed = 1;
nodes = (
"872 340 LINE",
"872 345 LINE",
"478 345 LINE",
"478 340 LINE"
);
},
{
closed = 1;
nodes = (
"772 457 LINE",
"772 752 LINE",
"767 752 LINE",
"767 457 LINE"
);
}
);
width = 910;
}
);
leftMetricsKey = O;
rightMetricsKey = "=H-8";
unicode = 0047;
},
{
glyphname = H;
lastChange = "2018-03-12 19:06:45 +0000";
layers = (
{
anchors = (
{
name = top;
position = "{482, 752}";
}
);
layerId = "67AEAADB-8447-4819-9D92-8BB76BD22042";
leftMetricsKey = "=l+12";
paths = (
{
closed = 1;
nodes = (
"197 382 LINE",
"197 377 LINE",
"766 377 LINE",
"766 382 LINE"
);
},
{
closed = 1;
nodes = (
"195 747 LINE",
"195 5 LINE",
"46 5 LINE",
"46 0 LINE",
"348 0 LINE",
"348 5 LINE",
"200 5 LINE",
"200 747 LINE",
"348 747 LINE",
"348 752 LINE",
"46 752 LINE",
"46 747 LINE"
);
},
{
closed = 1;
nodes = (
"765 747 LINE",
"765 5 LINE",
"616 5 LINE",
"616 0 LINE",
"918 0 LINE",
"918 5 LINE",
"770 5 LINE",
"770 747 LINE",
"918 747 LINE",
"918 752 LINE",
"616 752 LINE",
"616 747 LINE"
);
}
);
width = 964;
},
{
anchors = (
{
name = top;
position = "{433, 772}";
}
);
layerId = "BE4E587A-F76C-447B-AA28-A45E40876AAF";
leftMetricsKey = "=l+4";
rightMetricsKey = "=|l+4";
paths = (
{
closed = 1;
nodes = (
"200 477 LINE",
"200 300 LINE",
"656 300 LINE",
"656 477 LINE"
);
},
{
closed = 1;
nodes = (
"73 565 LINE",
"73 207 LINE",
"16 207 LINE",
"16 0 LINE",
"388 0 LINE",
"388 207 LINE",
"331 207 LINE",
"331 565 LINE",
"388 565 LINE",
"388 772 LINE",
"16 772 LINE",
"16 565 LINE"
);
},
{
closed = 1;
nodes = (
"535 565 LINE",
"535 207 LINE",
"478 207 LINE",
"478 0 LINE",
"850 0 LINE",
"850 207 LINE",
"793 207 LINE",
"793 565 LINE",
"850 565 LINE",
"850 772 LINE",
"478 772 LINE",
"478 565 LINE"
);
}
);
width = 866;
},
{
anchors = (
{
name = top;
position = "{456, 752}";
}
);
layerId = "2C5E45D0-97E8-45AA-A5B2-946753DF54E1";
leftMetricsKey = "=l+31";
rightMetricsKey = "=|";
paths = (
{
closed = 1;
nodes = (
"220 424 LINE",
"220 334 LINE",
"682 334 LINE",
"682 424 LINE"
);
},
{
closed = 1;
nodes = (
"162 659 LINE",
"162 93 LINE",
"52 93 LINE",
"52 0 LINE",
"374 0 LINE",
"374 93 LINE",
"264 93 LINE",
"264 659 LINE",
"374 659 LINE",
"374 752 LINE",
"52 752 LINE",
"52 659 LINE"
);
},
{
closed = 1;
nodes = (
"648 659 LINE",
"648 93 LINE",
"538 93 LINE",
"538 0 LINE",
"860 0 LINE",
"860 93 LINE",
"750 93 LINE",
"750 659 LINE",
"860 659 LINE",
"860 752 LINE",
"538 752 LINE",
"538 659 LINE"
);
}
);
width = 912;
}
);
leftMetricsKey = l;
rightMetricsKey = "=|";
unicode = 0048;
},
{
glyphname = Hbar;
lastChange = "2018-03-11 20:38:33 +0000";
layers = (
{
components = (
{
name = H;
},
{
name = strokelongcomb;
transform = "{1, 0, 0, 1, 6, 0}";
}
);
layerId = "67AEAADB-8447-4819-9D92-8BB76BD22042";
width = 964;
},
{
components = (
{
name = H;
},
{
name = strokelongcomb;
transform = "{1, 0, 0, 1, 12, 0}";
}
);
layerId = "2C5E45D0-97E8-45AA-A5B2-946753DF54E1";
width = 912;
},
{
associatedMasterId = "BE4E587A-F76C-447B-AA28-A45E40876AAF";
components = (
{
name = H;
}
);
layerId = "72445A26-9631-4F42-ACC4-6356C4616E5A";
name = "Feb 18 18, 21:24";
paths = (
{
closed = 1;
nodes = (
"16 479 LINE",
"16 302 LINE",
"850 302 LINE",
"850 479 LINE"
);
}
);
width = 866;
},
{
components = (
{
name = H;
},
{
name = strokelongcomb;
transform = "{1, 0, 0, 1, -11, 0}";
}
);
layerId = "BE4E587A-F76C-447B-AA28-A45E40876AAF";
width = 879;
}
);
leftMetricsKey = H;
rightMetricsKey = H;
unicode = 0126;
},
{
glyphname = I;
lastChange = "2018-02-27 21:07:30 +0000";
layers = (
{
anchors = (
{
name = bottom;
position = "{198, 0}";
},
{
name = ogonek;
position = "{360, 0}";
},
{
name = top;
position = "{199, 732}";
}
);
layerId = "67AEAADB-8447-4819-9D92-8BB76BD22042";
paths = (
{
closed = 1;
nodes = (
"195 747 LINE",
"195 5 LINE",
"46 5 LINE",
"46 0 LINE",
"349 0 LINE",
"349 5 LINE",
"200 5 LINE",
"200 747 LINE",
"349 747 LINE",
"349 752 LINE",
"46 752 LINE",
"46 747 LINE"
);
}
);
width = 395;
},
{
anchors = (
{
name = bottom;
position = "{202, 0}";
},
{
name = ogonek;
position = "{374, 0}";
},
{
name = top;
position = "{213, 752}";
}
);
layerId = "BE4E587A-F76C-447B-AA28-A45E40876AAF";
paths = (
{
closed = 1;
nodes = (
"73 565 LINE",
"73 207 LINE",
"16 207 LINE",
"16 0 LINE",
"388 0 LINE",
"388 207 LINE",
"331 207 LINE",
"331 565 LINE",
"388 565 LINE",
"388 772 LINE",
"16 772 LINE",
"16 565 LINE"
);
}
);
width = 404;
},
{
anchors = (
{
name = bottom;
position = "{213, 0}";
},
{
name = ogonek;
position = "{374, 0}";
},
{
name = top;
position = "{213, 752}";
}
);
layerId = "2C5E45D0-97E8-45AA-A5B2-946753DF54E1";
paths = (
{
closed = 1;
nodes = (
"162 659 LINE",
"162 93 LINE",
"52 93 LINE",
"52 0 LINE",
"374 0 LINE",
"374 93 LINE",
"264 93 LINE",
"264 659 LINE",
"374 659 LINE",
"374 752 LINE",
"52 752 LINE",
"52 659 LINE"
);
}
);
width = 426;
}
);
leftMetricsKey = H;
rightMetricsKey = H;
unicode = 0049;
},
{
glyphname = J;
lastChange = "2018-02-27 21:07:30 +0000";
layers = (
{
anchors = (
{
name = top;
position = "{412, 744}";
}
);
layerId = "67AEAADB-8447-4819-9D92-8BB76BD22042";
leftMetricsKey = "=|F";
rightMetricsKey = "=H-18";
paths = (
{
closed = 1;
nodes = (
"343 -7 OFFCURVE",
"410 73 OFFCURVE",
"410 219 CURVE SMOOTH",
"410 747 LINE",
"559 747 LINE",
"559 752 LINE",
"236 752 LINE",
"236 747 LINE",
"405 747 LINE",
"405 219 LINE SMOOTH",
"405 75 OFFCURVE",
"340 -2 OFFCURVE",
"218 -2 CURVE SMOOTH",
"97 -2 OFFCURVE",
"37 76 OFFCURVE",
"37 219 CURVE SMOOTH",
"37 280 LINE",
"32 280 LINE",
"32 219 LINE SMOOTH",
"32 73 OFFCURVE",
"94 -7 OFFCURVE",
"218 -7 CURVE SMOOTH"
);
}
);
width = 587;
},
{
anchors = (
{
name = top;
position = "{449, 744}";
}
);
layerId = "BE4E587A-F76C-447B-AA28-A45E40876AAF";
leftMetricsKey = "=|F";
rightMetricsKey = "=H-6";
paths = (
{
closed = 1;
nodes = (
"489 -10 OFFCURVE",
"574 105 OFFCURVE",
"574 278 CURVE SMOOTH",
"574 565 LINE",
"631 565 LINE",
"631 772 LINE",
"230 772 LINE",
"230 565 LINE",
"316 565 LINE",
"316 279 LINE SMOOTH",
"316 250 OFFCURVE",
"308 233 OFFCURVE",
"289 233 CURVE SMOOTH",
"270 233 OFFCURVE",
"262 250 OFFCURVE",
"262 279 CURVE SMOOTH",
"262 312 LINE",
"4 312 LINE",
"4 279 LINE SMOOTH",
"4 98 OFFCURVE",
"88 -10 OFFCURVE",
"289 -10 CURVE SMOOTH"
);
}
);
width = 641;
},
{
anchors = (
{
name = top;
position = "{399, 744}";
}
);
layerId = "2C5E45D0-97E8-45AA-A5B2-946753DF54E1";
leftMetricsKey = "=|F";
rightMetricsKey = "=H-16";
paths = (
{
closed = 1;
nodes = (
"386 -10 OFFCURVE",
"452 81 OFFCURVE",
"452 226 CURVE SMOOTH",
"452 659 LINE",
"562 659 LINE",
"562 752 LINE",
"218 752 LINE",
"218 659 LINE",
"350 659 LINE",
"350 227 LINE SMOOTH",
"350 134 OFFCURVE",
"312 90 OFFCURVE",
"239 90 CURVE SMOOTH",
"166 90 OFFCURVE",
"128 136 OFFCURVE",
"128 227 CURVE SMOOTH",
"128 280 LINE",
"26 280 LINE",
"26 227 LINE SMOOTH",
"26 75 OFFCURVE",
"89 -10 OFFCURVE",
"240 -10 CURVE SMOOTH"
);
}
);
width = 598;
}
);
unicode = 004A;
},
{
glyphname = K;
lastChange = "2018-02-27 21:07:30 +0000";
layers = (
{
anchors = (
{
name = bottom;
position = "{478, 0}";
},
{
name = top;
position = "{458, 732}";
}
);
layerId = "67AEAADB-8447-4819-9D92-8BB76BD22042";
paths = (
{
closed = 1;
nodes = (
"195 747 LINE",
"195 5 LINE",
"46 5 LINE",
"46 0 LINE",
"349 0 LINE",
"349 5 LINE",
"200 5 LINE",
"200 747 LINE",
"349 747 LINE",
"349 752 LINE",
"46 752 LINE",
"46 747 LINE"
);
},
{
closed = 1;
nodes = (
"440 448 LINE",
"817 5 LINE",
"560 5 LINE",
"560 0 LINE",
"905 0 LINE",
"905 5 LINE",
"823 5 LINE",
"445 450 LINE"
);
},
{
closed = 1;
nodes = (
"198 219 LINE",
"768 747 LINE",
"873 747 LINE",
"873 752 LINE",
"510 752 LINE",
"510 747 LINE",
"761 747 LINE",
"196 224 LINE"
);
}
);
width = 935;
},
{
anchors = (
{
name = bottom;
position = "{457, 0}";
},
{
name = top;
position = "{440, 752}";
}
);
layerId = "BE4E587A-F76C-447B-AA28-A45E40876AAF";
paths = (
{
closed = 1;
nodes = (
"71 565 LINE",
"71 207 LINE",
"16 207 LINE",
"16 0 LINE",
"384 0 LINE",
"384 207 LINE",
"329 207 LINE",
"329 565 LINE",
"384 565 LINE",
"384 772 LINE",
"16 772 LINE",
"16 565 LINE"
);
},
{
closed = 1;
nodes = (
"399 385 LINE",
"507 207 LINE",
"440 207 LINE",
"440 0 LINE",
"924 0 LINE",
"924 207 LINE",
"871 207 LINE",
"628 483 LINE"
);
},
{
closed = 1;
nodes = (
"310 211 LINE",
"839 565 LINE",
"899 565 LINE",
"899 772 LINE",
"440 772 LINE",
"440 565 LINE",
"514 565 LINE",
"214 354 LINE"
);
}
);
width = 932;
},
{
anchors = (
{
name = bottom;
position = "{470, 0}";
},
{
name = top;
position = "{453, 752}";
}
);
layerId = "2C5E45D0-97E8-45AA-A5B2-946753DF54E1";
paths = (
{
closed = 1;
nodes = (
"162 659 LINE",
"162 93 LINE",
"52 93 LINE",
"52 0 LINE",
"374 0 LINE",
"374 93 LINE",
"264 93 LINE",
"264 659 LINE",
"374 659 LINE",
"374 752 LINE",
"52 752 LINE",
"52 659 LINE"
);
},
{
closed = 1;
nodes = (
"392 385 LINE",
"647 93 LINE",
"452 93 LINE",
"452 0 LINE",
"887 0 LINE",
"887 93 LINE",
"777 93 LINE",
"451 463 LINE"
);
},
{
closed = 1;
nodes = (
"243 211 LINE",
"742 659 LINE",
"840 659 LINE",
"840 752 LINE",
"452 752 LINE",
"452 659 LINE",
"610 659 LINE",
"207 288 LINE"
);
}
);
width = 897;
}
);
leftMetricsKey = H;
rightMetricsKey = A;
unicode = 004B;
},
{
glyphname = L;
lastChange = "2018-03-12 12:40:00 +0000";
layers = (
{
anchors = (
{
name = bottom;
position = "{375, 0}";
},
{
name = right;
position = "{387, 369}";
},
{
name = top;
position = "{201, 732}";
}
);
layerId = "67AEAADB-8447-4819-9D92-8BB76BD22042";
paths = (
{
closed = 1;
nodes = (
"195 747 LINE",
"195 5 LINE",
"46 5 LINE",
"46 0 LINE",
"652 0 LINE",
"652 5 LINE",
"200 5 LINE",
"200 747 LINE",
"349 747 LINE",
"349 752 LINE",
"46 752 LINE",
"46 747 LINE"
);
},
{
closed = 1;
nodes = (
"649 245 LINE",
"649 0 LINE",
"654 0 LINE",
"654 245 LINE"
);
}
);
width = 686;
},
{
anchors = (
{
name = bottom;
position = "{368, 0}";
},
{
name = right;
position = "{404, 369}";
},
{
name = top;
position = "{213, 732}";
}
);
layerId = "BE4E587A-F76C-447B-AA28-A45E40876AAF";
paths = (
{
closed = 1;
nodes = (
"73 565 LINE",
"73 207 LINE",
"16 207 LINE",
"16 0 LINE",
"573 0 LINE",
"573 207 LINE",
"331 207 LINE",
"331 565 LINE",
"388 565 LINE",
"388 772 LINE",
"16 772 LINE",
"16 565 LINE"
);
},
{
closed = 1;
nodes = (
"485 368 LINE",
"485 0 LINE",
"743 0 LINE",
"743 368 LINE"
);
}
);
width = 747;
},
{
anchors = (
{
name = bottom;
position = "{368, 0}";
},
{
name = right;
position = "{379, 498}";
},
{
name = top;
position = "{213, 732}";
}
);
layerId = "2C5E45D0-97E8-45AA-A5B2-946753DF54E1";
paths = (
{
closed = 1;
nodes = (
"162 659 LINE",
"162 93 LINE",
"52 93 LINE",
"52 0 LINE",
"609 0 LINE",
"609 93 LINE",
"264 93 LINE",
"264 659 LINE",
"379 659 LINE",
"379 752 LINE",
"52 752 LINE",
"52 659 LINE"
);
},
{
closed = 1;
nodes = (
"569 253 LINE",
"569 0 LINE",
"671 0 LINE",
"671 253 LINE"
);
}
);
width = 697;
}
);
leftMetricsKey = H;
rightMetricsKey = F;
unicode = 004C;
},
{
glyphname = M;
lastChange = "2018-03-07 16:34:45 +0000";
layers = (
{
layerId = "67AEAADB-8447-4819-9D92-8BB76BD22042";
paths = (
{
closed = 1;
nodes = (
"568 0 LINE",
"928 752 LINE",
"922 752 LINE",
"562 0 LINE",
"566 0 LINE",
"206 752 LINE",
"200 752 LINE",
"560 0 LINE"
);
},
{
closed = 1;
nodes = (
"349 0 LINE",
"349 5 LINE",
"200 5 LINE",
"200 747 LINE",
"205 747 LINE",
"205 752 LINE",
"46 752 LINE",
"46 747 LINE",
"195 747 LINE",
"195 5 LINE",
"46 5 LINE",
"46 0 LINE"
);
},
{
closed = 1;
nodes = (
"1082 0 LINE",
"1082 5 LINE",
"933 5 LINE",
"933 747 LINE",
"1082 747 LINE",
"1082 752 LINE",
"923 752 LINE",
"923 747 LINE",
"928 747 LINE",
"928 5 LINE",
"779 5 LINE",
"779 0 LINE"
);
}
);
width = 1128;
},
{
layerId = "BE4E587A-F76C-447B-AA28-A45E40876AAF";
paths = (
{
closed = 1;
nodes = (
"630 0 LINE",
"803 772 LINE",
"628 772 LINE",
"546 304 LINE",
"615 296 LINE",
"525 772 LINE",
"237 772 LINE",
"410 0 LINE"
);
},
{
closed = 1;
nodes = (
"329 0 LINE",
"329 207 LINE",
"279 207 LINE",
"279 565 LINE",
"310 565 LINE",
"495 772 LINE",
"16 772 LINE",
"16 565 LINE",
"71 565 LINE",
"71 207 LINE",
"16 207 LINE",
"16 0 LINE"
);
},
{
closed = 1;
nodes = (
"1074 0 LINE",
"1074 207 LINE",
"1019 207 LINE",
"1019 565 LINE",
"1074 565 LINE",
"1074 772 LINE",
"628 772 LINE",
"730 565 LINE",
"761 565 LINE",
"761 207 LINE",
"711 207 LINE",
"711 0 LINE"
);
}
);
width = 1090;
},
{
layerId = "2C5E45D0-97E8-45AA-A5B2-946753DF54E1";
paths = (
{
closed = 1;
nodes = (
"604 0 LINE",
"841 665 LINE",
"770 752 LINE",
"541 100 LINE",
"568 100 LINE",
"341 752 LINE",
"259 665 LINE",
"493 0 LINE"
);
},
{
closed = 1;
nodes = (
"373 0 LINE",
"373 93 LINE",
"257 93 LINE",
"257 659 LINE",
"326 659 LINE",
"341 752 LINE",
"52 752 LINE",
"52 659 LINE",
"162 659 LINE",
"162 93 LINE",
"52 93 LINE",
"52 0 LINE"
);
},
{
closed = 1;
nodes = (
"1055 0 LINE",
"1055 93 LINE",
"945 93 LINE",
"945 659 LINE",
"1055 659 LINE",
"1055 752 LINE",
"770 752 LINE",
"768 659 LINE",
"843 659 LINE",
"843 93 LINE",
"723 93 LINE",
"723 0 LINE"
);
}
);
width = 1107;
},
{
associatedMasterId = "2C5E45D0-97E8-45AA-A5B2-946753DF54E1";
layerId = "22FEF5ED-B20E-46B2-9016-5B6A811F902C";
name = "Feb 23 18, 15:39";
paths = (
{
closed = 1;
nodes = (
"603 0 LINE",
"840 665 LINE",
"761 752 LINE",
"544 100 LINE",
"603 143 LINE",
"509 143 LINE",
"569 100 LINE",
"345 752 LINE",
"266 665 LINE",
"503 0 LINE"
);
},
{
closed = 1;
nodes = (
"374 0 LINE",
"374 93 LINE",
"264 93 LINE",
"264 659 LINE",
"333 659 LINE",
"345 752 LINE",
"52 752 LINE",
"52 659 LINE",
"162 659 LINE",
"162 93 LINE",
"52 93 LINE",
"52 0 LINE"
);
},
{
closed = 1;
nodes = (
"1054 0 LINE",
"1054 93 LINE",
"944 93 LINE",
"944 659 LINE",
"1054 659 LINE",
"1054 752 LINE",
"761 752 LINE",
"773 659 LINE",
"842 659 LINE",
"842 93 LINE",
"732 93 LINE",
"732 0 LINE"
);
}
);
width = 1106;
},
{
associatedMasterId = "2C5E45D0-97E8-45AA-A5B2-946753DF54E1";
layerId = "F4249821-346D-4DA1-AFD4-D7AAE9727346";
name = "Mar 7 18, 11:32";
paths = (
{
closed = 1;
nodes = (
"597 0 LINE",
"834 665 LINE",
"768 752 LINE",
"541 100 LINE",
"565 100 LINE",
"339 752 LINE",
"257 665 LINE",
"492 0 LINE"
);
},
{
closed = 1;
nodes = (
"371 0 LINE",
"371 93 LINE",
"255 93 LINE",
"255 659 LINE",
"324 659 LINE",
"339 752 LINE",
"52 752 LINE",
"52 659 LINE",
"162 659 LINE",
"162 93 LINE",
"52 93 LINE",
"52 0 LINE"
);
},
{
closed = 1;
nodes = (
"1048 0 LINE",
"1048 93 LINE",
"938 93 LINE",
"938 659 LINE",
"1048 659 LINE",
"1048 752 LINE",
"768 752 LINE",
"763 659 LINE",
"836 659 LINE",
"836 93 LINE",
"716 93 LINE",
"716 0 LINE"
);
}
);
width = 1100;
}
);
leftMetricsKey = H;
rightMetricsKey = "=|";
unicode = 004D;
},
{
glyphname = N;
lastChange = "2018-03-07 16:34:42 +0000";
layers = (
{
anchors = (
{
name = bottom;
position = "{473, 0}";
},
{
name = top;
position = "{473, 732}";
}
);
layerId = "67AEAADB-8447-4819-9D92-8BB76BD22042";
paths = (
{
closed = 1;
nodes = (
"773 0 LINE",
"204 752 LINE",
"198 752 LINE",
"767 0 LINE"
);
},
{
closed = 1;
nodes = (
"195 748 LINE",
"195 5 LINE",
"46 5 LINE",
"46 0 LINE",
"348 0 LINE",
"348 5 LINE",
"200 5 LINE",
"200 747 LINE",
"204 747 LINE",
"204 752 LINE",
"46 752 LINE",
"46 748 LINE"
);
},
{
closed = 1;
nodes = (
"770 747 LINE",
"770 5 LINE",
"767 5 LINE",
"770 0 LINE",
"775 0 LINE",
"775 747 LINE",
"923 747 LINE",
"923 752 LINE",
"606 752 LINE",
"606 747 LINE"
);
}
);
width = 955;
},
{
anchors = (
{
name = bottom;
position = "{397, 0}";
},
{
name = top;
position = "{397, 732}";
}
);
layerId = "BE4E587A-F76C-447B-AA28-A45E40876AAF";
paths = (
{
closed = 1;
nodes = (
"740 0 LINE",
"436 772 LINE",
"153 772 LINE",
"457 0 LINE"
);
},
{
closed = 1;
nodes = (
"71 565 LINE",
"71 207 LINE",
"16 207 LINE",
"16 0 LINE",
"334 0 LINE",
"334 207 LINE",
"279 207 LINE",
"279 440 LINE",
"327 440 LINE",
"436 772 LINE",
"16 772 LINE",
"16 565 LINE"
);
},
{
closed = 1;
nodes = (
"613 565 LINE",
"613 336 LINE",
"571 336 LINE",
"650 0 LINE",
"821 0 LINE",
"821 565 LINE",
"876 565 LINE",
"876 772 LINE",
"558 772 LINE",
"558 565 LINE"
);
}
);
width = 878;
},
{
anchors = (
{
name = bottom;
position = "{484, 0}";
},
{
name = top;
position = "{484, 732}";
}
);
layerId = "2C5E45D0-97E8-45AA-A5B2-946753DF54E1";
rightMetricsKey = "=H-20";
paths = (
{
closed = 1;
nodes = (
"791 0 LINE",
"314 752 LINE",
"191 752 LINE",
"668 0 LINE"
);
},
{
closed = 1;
nodes = (
"162 659 LINE",
"162 93 LINE",
"52 93 LINE",
"52 0 LINE",
"367 0 LINE",
"367 93 LINE",
"257 93 LINE",
"257 641 LINE",
"310 641 LINE",
"313 752 LINE",
"52 752 LINE",
"52 659 LINE"
);
},
{
closed = 1;
nodes = (
"710 659 LINE",
"710 140 LINE",
"640 140 LINE",
"668 0 LINE",
"805 0 LINE",
"805 659 LINE",
"915 659 LINE",
"915 752 LINE",
"600 752 LINE",
"600 659 LINE"
);
}
);
width = 947;
},
{
anchors = (
{
name = bottom;
position = "{482, 0}";
},
{
name = top;
position = "{482, 732}";
}
);
associatedMasterId = "2C5E45D0-97E8-45AA-A5B2-946753DF54E1";
layerId = "047D3E99-1A20-4FF1-B7C9-46C9AE164200";
rightMetricsKey = "=H-20";
name = "Feb 23 18, 15:40";
paths = (
{
closed = 1;
nodes = (
"780 0 LINE",
"318 752 LINE",
"198 752 LINE",
"660 0 LINE"
);
},
{
closed = 1;
nodes = (
"162 659 LINE",
"162 93 LINE",
"52 93 LINE",
"52 0 LINE",
"374 0 LINE",
"374 93 LINE",
"264 93 LINE",
"264 641 LINE",
"317 641 LINE",
"317 752 LINE",
"52 752 LINE",
"52 659 LINE"
);
},
{
closed = 1;
nodes = (
"699 659 LINE",
"699 140 LINE",
"629 140 LINE",
"660 0 LINE",
"801 0 LINE",
"801 659 LINE",
"911 659 LINE",
"911 752 LINE",
"589 752 LINE",
"589 659 LINE"
);
}
);
width = 943;
},
{
anchors = (
{
name = bottom;
position = "{482, 0}";
},
{
name = top;
position = "{482, 732}";
}
);
associatedMasterId = "2C5E45D0-97E8-45AA-A5B2-946753DF54E1";
layerId = "37FE45C6-EC4F-4D61-8F2C-F7817D331A03";
rightMetricsKey = "=H-20";
name = "Mar 7 18, 11:34";
paths = (
{
closed = 1;
nodes = (
"789 0 LINE",
"312 752 LINE",
"189 752 LINE",
"666 0 LINE"
);
},
{
closed = 1;
nodes = (
"162 659 LINE",
"162 93 LINE",
"52 93 LINE",
"52 0 LINE",
"365 0 LINE",
"365 93 LINE",
"255 93 LINE",
"255 641 LINE",
"308 641 LINE",
"311 752 LINE",
"52 752 LINE",
"52 659 LINE"
);
},
{
closed = 1;
nodes = (
"708 659 LINE",
"708 140 LINE",
"638 140 LINE",
"666 0 LINE",
"801 0 LINE",
"801 659 LINE",
"911 659 LINE",
"911 752 LINE",
"598 752 LINE",
"598 659 LINE"
);
}
);
width = 943;
}
);
leftMetricsKey = H;
rightMetricsKey = "=|-14";
unicode = 004E;
},
{
color = 3;
glyphname = Eng;
lastChange = "2018-03-09 14:46:33 +0000";
layers = (
{
layerId = "67AEAADB-8447-4819-9D92-8BB76BD22042";
paths = (
{
closed = 1;
nodes = (
"795 0 LINE",
"204 752 LINE",
"198 752 LINE",
"793 -5 LINE"
);
},
{
closed = 1;
nodes = (
"195 748 LINE",
"195 5 LINE",
"46 5 LINE",
"46 0 LINE",
"348 0 LINE",
"348 5 LINE",
"200 5 LINE",
"200 747 LINE",
"204 747 LINE",
"204 752 LINE",
"46 752 LINE",
"46 748 LINE"
);
},
{
closed = 1;
nodes = (
"626 747 LINE",
"790 747 LINE",
"790 -84 LINE SMOOTH",
"790 -172 OFFCURVE",
"742 -212 OFFCURVE",
"670 -212 CURVE SMOOTH",
"655 -212 OFFCURVE",
"642 -210 OFFCURVE",
"631 -207 CURVE",
"629 -212 LINE",
"641 -215 OFFCURVE",
"655 -217 OFFCURVE",
"670 -217 CURVE SMOOTH",
"745 -217 OFFCURVE",
"795 -175 OFFCURVE",
"795 -84 CURVE SMOOTH",
"795 747 LINE",
"943 747 LINE",
"943 752 LINE",
"626 752 LINE"
);
}
);
width = 975;
},
{
layerId = "2C5E45D0-97E8-45AA-A5B2-946753DF54E1";
paths = (
{
closed = 1;
nodes = (
"776 66 LINE",
"318 752 LINE",
"195 752 LINE",
"718 -22 LINE"
);
},
{
closed = 1;
nodes = (
"162 659 LINE",
"162 93 LINE",
"52 93 LINE",
"52 0 LINE",
"374 0 LINE",
"374 93 LINE",
"264 93 LINE",
"264 641 LINE",
"317 641 LINE",
"317 752 LINE",
"52 752 LINE",
"52 659 LINE"
);
},
{
closed = 1;
nodes = (
"589 659 LINE",
"699 659 LINE",
"699 -31 LINE SMOOTH",
"699 -92 OFFCURVE",
"671 -120 OFFCURVE",
"614 -120 CURVE SMOOTH",
"599 -120 OFFCURVE",
"583 -118 OFFCURVE",
"567 -113 CURVE",
"539 -206 LINE",
"569 -215 OFFCURVE",
"596 -220 OFFCURVE",
"628 -220 CURVE SMOOTH",
"747 -220 OFFCURVE",
"801 -149 OFFCURVE",
"801 -34 CURVE SMOOTH",
"801 659 LINE",
"911 659 LINE",
"911 752 LINE",
"589 752 LINE"
);
}
);
width = 943;
},
{
layerId = "BE4E587A-F76C-447B-AA28-A45E40876AAF";
paths = (
{
closed = 1;
nodes = (
"748 0 LINE",
"407 772 LINE",
"211 772 LINE",
"592 0 LINE"
);
},
{
closed = 1;
nodes = (
"71 565 LINE",
"71 207 LINE",
"16 207 LINE",
"16 0 LINE",
"394 0 LINE",
"394 207 LINE",
"329 207 LINE",
"329 541 LINE",
"377 541 LINE",
"387 772 LINE",
"16 772 LINE",
"16 565 LINE"
);
},
{
closed = 1;
nodes = (
"532 565 LINE",
"587 565 LINE",
"587 -3 LINE SMOOTH",
"587 -26 OFFCURVE",
"575 -37 OFFCURVE",
"546 -37 CURVE SMOOTH",
"537 -37 OFFCURVE",
"527 -36 OFFCURVE",
"519 -34 CURVE",
"478 -214 LINE",
"507 -221 OFFCURVE",
"539 -224 OFFCURVE",
"575 -224 CURVE SMOOTH",
"769 -224 OFFCURVE",
"845 -140 OFFCURVE",
"845 -3 CURVE SMOOTH",
"845 565 LINE",
"900 565 LINE",
"900 772 LINE",
"532 772 LINE"
);
}
);
width = 902;
},
{
associatedMasterId = "2C5E45D0-97E8-45AA-A5B2-946753DF54E1";
layerId = "FB1A8F30-5F79-470A-A46F-EF9FE121BE0F";
name = "Feb 6 18, 15:46";
paths = (
{
closed = 1;
nodes = (
"776 66 LINE",
"318 752 LINE",
"232 697 LINE",
"718 -22 LINE"
);
},
{
closed = 1;
nodes = (
"162 659 LINE",
"162 93 LINE",
"52 93 LINE",
"52 0 LINE",
"374 0 LINE",
"374 93 LINE",
"264 93 LINE",
"264 641 LINE",
"317 641 LINE",
"317 752 LINE",
"52 752 LINE",
"52 659 LINE"
);
},
{
closed = 1;
nodes = (
"589 659 LINE",
"699 659 LINE",
"699 -31 LINE SMOOTH",
"699 -92 OFFCURVE",
"670 -120 OFFCURVE",
"614 -120 CURVE SMOOTH",
"590 -120 OFFCURVE",
"568 -115 OFFCURVE",
"546 -109 CURVE",
"546 -207 LINE",
"574 -215 OFFCURVE",
"600 -220 OFFCURVE",
"630 -220 CURVE SMOOTH",
"747 -220 OFFCURVE",
"801 -149 OFFCURVE",
"801 -34 CURVE SMOOTH",
"801 659 LINE",
"911 659 LINE",
"911 752 LINE",
"589 752 LINE"
);
}
);
width = 943;
}
);
leftMetricsKey = N;
rightMetricsKey = N;
unicode = 014A;
},
{
glyphname = O;
lastChange = "2018-02-27 21:06:35 +0000";
layers = (
{
anchors = (
{
name = bottom;
position = "{431, 0}";
},
{
name = horn;
position = "{640, 705}";
},
{
name = ogonek;
position = "{557, 11}";
},
{
name = top;
position = "{431, 732}";
}
);
layerId = "67AEAADB-8447-4819-9D92-8BB76BD22042";
leftMetricsKey = "=o-7";
rightMetricsKey = "=o-7";
paths = (
{
closed = 1;
nodes = (
"650 -7 OFFCURVE",
"805 151 OFFCURVE",
"805 378 CURVE SMOOTH",
"805 602 OFFCURVE",
"650 759 OFFCURVE",
"426 759 CURVE SMOOTH",
"202 759 OFFCURVE",
"47 602 OFFCURVE",
"47 378 CURVE SMOOTH",
"47 151 OFFCURVE",
"202 -7 OFFCURVE",
"426 -7 CURVE SMOOTH"
);
},
{
closed = 1;
nodes = (
"204 -2 OFFCURVE",
"52 154 OFFCURVE",
"52 378 CURVE SMOOTH",
"52 599 OFFCURVE",
"204 754 OFFCURVE",
"426 754 CURVE SMOOTH",
"648 754 OFFCURVE",
"800 599 OFFCURVE",
"800 378 CURVE SMOOTH",
"800 154 OFFCURVE",
"648 -2 OFFCURVE",
"426 -2 CURVE SMOOTH"
);
}
);
width = 852;
},
{
anchors = (
{
name = bottom;
position = "{434, 0}";
},
{
name = horn;
position = "{554, 766}";
},
{
name = ogonek;
position = "{628, 25}";
},
{
name = top;
position = "{434, 772}";
}
);
layerId = "BE4E587A-F76C-447B-AA28-A45E40876AAF";
paths = (
{
closed = 1;
nodes = (
"684 -14 OFFCURVE",
"857 151 OFFCURVE",
"857 388 CURVE SMOOTH",
"857 622 OFFCURVE",
"684 786 OFFCURVE",
"434 786 CURVE SMOOTH",
"184 786 OFFCURVE",
"11 622 OFFCURVE",
"11 388 CURVE SMOOTH",
"11 151 OFFCURVE",
"184 -14 OFFCURVE",
"434 -14 CURVE SMOOTH"
);
},
{
closed = 1;
nodes = (
"342 229 OFFCURVE",
"278 294 OFFCURVE",
"278 388 CURVE SMOOTH",
"278 480 OFFCURVE",
"342 543 OFFCURVE",
"434 543 CURVE SMOOTH",
"526 543 OFFCURVE",
"590 480 OFFCURVE",
"590 388 CURVE SMOOTH",
"590 294 OFFCURVE",
"526 229 OFFCURVE",
"434 229 CURVE SMOOTH"
);
}
);
width = 868;
},
{
anchors = (
{
name = bottom;
position = "{431, 0}";
},
{
name = horn;
position = "{628, 718}";
},
{
name = ogonek;
position = "{593, 19}";
},
{
name = top;
position = "{431, 732}";
}
);
layerId = "2C5E45D0-97E8-45AA-A5B2-946753DF54E1";
paths = (
{
closed = 1;
nodes = (
"662 -12 OFFCURVE",
"821 148 OFFCURVE",
"821 378 CURVE SMOOTH",
"821 605 OFFCURVE",
"662 764 OFFCURVE",
"431 764 CURVE SMOOTH",
"200 764 OFFCURVE",
"41 605 OFFCURVE",
"41 378 CURVE SMOOTH",
"41 148 OFFCURVE",
"200 -12 OFFCURVE",
"431 -12 CURVE SMOOTH"
);
},
{
closed = 1;
nodes = (
"265 88 OFFCURVE",
"150 207 OFFCURVE",
"150 378 CURVE SMOOTH",
"150 548 OFFCURVE",
"265 664 OFFCURVE",
"431 664 CURVE SMOOTH",
"597 664 OFFCURVE",
"712 548 OFFCURVE",
"712 378 CURVE SMOOTH",
"712 207 OFFCURVE",
"597 88 OFFCURVE",
"431 88 CURVE SMOOTH"
);
}
);
width = 862;
}
);
unicode = 004F;
},
{
glyphname = Oslash;
lastChange = "2018-03-09 14:46:33 +0000";
layers = (
{
components = (
{
name = O;
},
{
name = slashlongcomb;
transform = "{1, 0, 0, 1, 28, -32}";
}
);
layerId = "67AEAADB-8447-4819-9D92-8BB76BD22042";
width = 858;
},
{
components = (
{
name = O;
},
{
name = slashlongcomb;
transform = "{1, 0, 0, 1, 17, 0}";
}
);
layerId = "2C5E45D0-97E8-45AA-A5B2-946753DF54E1";
width = 862;
},
{
components = (
{
name = O;
},
{
name = slashlongcomb;
transform = "{1, 0, 0, 1, 28, 28}";
}
);
layerId = "BE4E587A-F76C-447B-AA28-A45E40876AAF";
width = 868;
},
{
associatedMasterId = "2C5E45D0-97E8-45AA-A5B2-946753DF54E1";
components = (
{
name = O;
}
);
layerId = "6CEF171D-687B-4F8D-ACAF-400EC1BA9329";
name = "Jan 4 18, 17:53";
paths = (
{
closed = 1;
nodes = (
"118 5 LINE",
"802 689 LINE",
"744 747 LINE",
"60 63 LINE"
);
}
);
width = 862;
}
);
leftMetricsKey = O;
rightMetricsKey = O;
unicode = 00D8;
},
{
color = 0;
glyphname = OE;
lastChange = "2018-03-09 14:46:33 +0000";
layers = (
{
layerId = "67AEAADB-8447-4819-9D92-8BB76BD22042";
paths = (
{
closed = 1;
nodes = (
"535 3 LINE",
"535 6 LINE",
"706 48 OFFCURVE",
"815 189 OFFCURVE",
"815 378 CURVE SMOOTH",
"815 564 OFFCURVE",
"705 704 OFFCURVE",
"535 746 CURVE",
"535 750 LINE",
"431 759 LINE",
"204 759 OFFCURVE",
"47 602 OFFCURVE",
"47 378 CURVE SMOOTH",
"47 151 OFFCURVE",
"204 -7 OFFCURVE",
"431 -7 CURVE"
);
},
{
closed = 1;
nodes = (
"206 -2 OFFCURVE",
"52 154 OFFCURVE",
"52 378 CURVE SMOOTH",
"52 599 OFFCURVE",
"206 754 OFFCURVE",
"431 754 CURVE SMOOTH",
"656 754 OFFCURVE",
"810 599 OFFCURVE",
"810 378 CURVE SMOOTH",
"810 154 OFFCURVE",
"656 -2 OFFCURVE",
"431 -2 CURVE SMOOTH"
);
},
{
closed = 1;
nodes = (
"482 -7 OFFCURVE",
"517 0 OFFCURVE",
"565 0 CURVE SMOOTH",
"1213 0 LINE",
"1213 187 LINE",
"1208 187 LINE",
"1208 5 LINE",
"522 5 LINE",
"463 -2 LINE",
"431 -7 LINE"
);
},
{
closed = 1;
nodes = (
"1051 377 LINE",
"1051 382 LINE",
"812 382 LINE",
"812 377 LINE"
);
},
{
closed = 1;
nodes = (
"1204 565 LINE",
"1204 752 LINE",
"565 752 LINE SMOOTH",
"517 752 OFFCURVE",
"482 759 OFFCURVE",
"431 759 CURVE",
"464 755 LINE",
"526 747 LINE",
"1199 747 LINE",
"1199 565 LINE"
);
}
);
width = 1271;
},
{
layerId = "2C5E45D0-97E8-45AA-A5B2-946753DF54E1";
paths = (
{
closed = 1;
nodes = (
"597 55 LINE",
"597 97 LINE",
"730 108 OFFCURVE",
"821 222 OFFCURVE",
"821 378 CURVE SMOOTH",
"821 531 OFFCURVE",
"730 644 OFFCURVE",
"597 655 CURVE",
"597 704 LINE",
"431 764 LINE",
"200 764 OFFCURVE",
"41 605 OFFCURVE",
"41 378 CURVE SMOOTH",
"41 148 OFFCURVE",
"200 -12 OFFCURVE",
"431 -12 CURVE"
);
},
{
closed = 1;
nodes = (
"265 88 OFFCURVE",
"150 207 OFFCURVE",
"150 378 CURVE SMOOTH",
"150 548 OFFCURVE",
"265 664 OFFCURVE",
"431 664 CURVE SMOOTH",
"596 664 OFFCURVE",
"712 548 OFFCURVE",
"712 378 CURVE SMOOTH",
"712 207 OFFCURVE",
"597 88 OFFCURVE",
"431 88 CURVE SMOOTH"
);
},
{
closed = 1;
nodes = (
"494 -12 OFFCURVE",
"537 0 OFFCURVE",
"645 0 CURVE SMOOTH",
"1261 0 LINE",
"1261 227 LINE",
"1159 227 LINE",
"1159 93 LINE",
"552 93 LINE",
"443 46 LINE",
"431 -12 LINE"
);
},
{
closed = 1;
nodes = (
"1061 334 LINE",
"1061 424 LINE",
"779 424 LINE",
"779 334 LINE"
);
},
{
closed = 1;
nodes = (
"1252 525 LINE",
"1252 752 LINE",
"645 752 LINE SMOOTH",
"537 752 OFFCURVE",
"494 764 OFFCURVE",
"431 764 CURVE",
"438 706 LINE",
"562 659 LINE",
"1150 659 LINE",
"1150 525 LINE"
);
}
);
width = 1329;
},
{
associatedMasterId = "2C5E45D0-97E8-45AA-A5B2-946753DF54E1";
layerId = "B4E20D7F-CD3C-4546-9F14-F33F99BDB661";
name = "Jan 3 18, 01:05";
paths = (
{
closed = 1;
nodes = (
"627 424 LINE",
"627 334 LINE",
"969 334 LINE",
"969 424 LINE"
);
},
{
closed = 1;
nodes = (
"569 659 LINE",
"569 93 LINE",
"547 93 LINE",
"459 0 LINE",
"1107 0 LINE",
"1107 93 LINE",
"671 93 LINE",
"671 659 LINE",
"1098 659 LINE",
"1098 752 LINE",
"459 752 LINE",
"547 659 LINE"
);
},
{
closed = 1;
nodes = (
"1058 752 LINE",
"1058 525 LINE",
"1160 525 LINE",
"1160 752 LINE"
);
},
{
closed = 1;
nodes = (
"1067 227 LINE",
"1067 0 LINE",
"1169 0 LINE",
"1169 227 LINE"
);
},
{
closed = 1;
nodes = (
"464 -12 OFFCURVE",
"507 0 OFFCURVE",
"615 0 CURVE",
"682 30 LINE",
"383 66 LINE",
"401 -12 LINE"
);
},
{
closed = 1;
nodes = (
"372 686 LINE",
"682 722 LINE",
"615 752 LINE",
"507 752 OFFCURVE",
"464 764 OFFCURVE",
"401 764 CURVE"
);
},
{
closed = 1;
nodes = (
"401 88 LINE",
"235 88 OFFCURVE",
"120 207 OFFCURVE",
"120 378 CURVE SMOOTH",
"120 548 OFFCURVE",
"235 664 OFFCURVE",
"401 664 CURVE",
"401 764 LINE",
"170 764 OFFCURVE",
"11 605 OFFCURVE",
"11 378 CURVE SMOOTH",
"11 148 OFFCURVE",
"170 -12 OFFCURVE",
"401 -12 CURVE"
);
},
{
closed = 1;
nodes = (
"436 664 OFFCURVE",
"457 659 OFFCURVE",
"547 659 CURVE",
"682 706 LINE",
"389 742 LINE",
"401 664 LINE"
);
},
{
closed = 1;
nodes = (
"389 10 LINE",
"682 46 LINE",
"547 93 LINE",
"457 93 OFFCURVE",
"436 88 OFFCURVE",
"401 88 CURVE"
);
}
);
width = 1330;
},
{
associatedMasterId = "BE4E587A-F76C-447B-AA28-A45E40876AAF";
layerId = "F3B76260-9BAB-4A31-9F7E-D69395F920B8";
name = "Feb 21 18, 16:44";
paths = (
{
closed = 1;
nodes = (
"650 83 LINE",
"623 120 LINE",
"783 212 OFFCURVE",
"857 284 OFFCURVE",
"857 388 CURVE SMOOTH",
"857 489 OFFCURVE",
"783 560 OFFCURVE",
"623 652 CURVE",
"650 696 LINE",
"434 786 LINE",
"183 786 OFFCURVE",
"11 622 OFFCURVE",
"11 388 CURVE SMOOTH",
"11 151 OFFCURVE",
"183 -14 OFFCURVE",
"434 -14 CURVE"
);
},
{
closed = 1;
nodes = (
"342 229 OFFCURVE",
"278 294 OFFCURVE",
"278 388 CURVE SMOOTH",
"278 480 OFFCURVE",
"342 543 OFFCURVE",
"434 543 CURVE SMOOTH",
"526 543 OFFCURVE",
"590 480 OFFCURVE",
"590 388 CURVE SMOOTH",
"590 294 OFFCURVE",
"526 229 OFFCURVE",
"434 229 CURVE SMOOTH"
);
},
{
closed = 1;
nodes = (
"497 -14 OFFCURVE",
"540 0 OFFCURVE",
"648 0 CURVE SMOOTH",
"1342 0 LINE",
"1342 327 LINE",
"1084 327 LINE",
"1084 207 LINE",
"916 207 LINE",
"796 207 OFFCURVE",
"697 156 OFFCURVE",
"577 71 CURVE",
"446 46 LINE",
"434 -14 LINE"
);
},
{
closed = 1;
nodes = (
"1017 300 LINE",
"1017 477 LINE",
"781 477 LINE",
"781 300 LINE"
);
},
{
closed = 1;
nodes = (
"1333 465 LINE",
"1333 772 LINE",
"648 772 LINE SMOOTH",
"540 772 OFFCURVE",
"497 786 OFFCURVE",
"434 786 CURVE",
"441 726 LINE",
"577 701 LINE",
"697 616 OFFCURVE",
"795 565 OFFCURVE",
"916 565 CURVE",
"1075 565 LINE",
"1075 465 LINE"
);
}
);
width = 1366;
},
{
layerId = "BE4E587A-F76C-447B-AA28-A45E40876AAF";
paths = (
{
closed = 1;
nodes = (
"670 173 LINE",
"670 215 LINE",
"781 232 OFFCURVE",
"857 302 OFFCURVE",
"857 388 CURVE SMOOTH",
"857 471 OFFCURVE",
"781 540 OFFCURVE",
"670 557 CURVE",
"670 606 LINE",
"434 786 LINE",
"183 786 OFFCURVE",
"11 622 OFFCURVE",
"11 388 CURVE SMOOTH",
"11 151 OFFCURVE",
"183 -14 OFFCURVE",
"434 -14 CURVE"
);
},
{
closed = 1;
nodes = (
"342 229 OFFCURVE",
"278 294 OFFCURVE",
"278 388 CURVE SMOOTH",
"278 480 OFFCURVE",
"342 543 OFFCURVE",
"434 543 CURVE SMOOTH",
"526 543 OFFCURVE",
"590 480 OFFCURVE",
"590 388 CURVE SMOOTH",
"590 294 OFFCURVE",
"526 229 OFFCURVE",
"434 229 CURVE SMOOTH"
);
},
{
closed = 1;
nodes = (
"497 -14 OFFCURVE",
"540 0 OFFCURVE",
"648 0 CURVE SMOOTH",
"1342 0 LINE",
"1342 327 LINE",
"1084 327 LINE",
"1084 207 LINE",
"527 207 LINE",
"446 46 LINE",
"434 -14 LINE"
);
},
{
closed = 1;
nodes = (
"1017 300 LINE",
"1017 477 LINE",
"781 477 LINE",
"781 300 LINE"
);
},
{
closed = 1;
nodes = (
"1333 465 LINE",
"1333 772 LINE",
"648 772 LINE SMOOTH",
"540 772 OFFCURVE",
"497 786 OFFCURVE",
"434 786 CURVE",
"441 726 LINE",
"527 565 LINE",
"1075 565 LINE",
"1075 465 LINE"
);
}
);
width = 1366;
},
{
associatedMasterId = "67AEAADB-8447-4819-9D92-8BB76BD22042";
layerId = "BDF4D79D-E58C-43AA-AA64-3D9536B7A17D";
name = "Light [6]";
paths = (
{
closed = 1;
nodes = (
"552 3 LINE",
"552 6 LINE",
"708 51 OFFCURVE",
"815 190 OFFCURVE",
"815 378 CURVE SMOOTH",
"815 563 OFFCURVE",
"709 701 OFFCURVE",
"554 746 CURVE",
"554 750 LINE",
"431 759 LINE",
"204 759 OFFCURVE",
"47 602 OFFCURVE",
"47 378 CURVE SMOOTH",
"47 151 OFFCURVE",
"204 -7 OFFCURVE",
"431 -7 CURVE"
);
},
{
closed = 1;
nodes = (
"206 -2 OFFCURVE",
"52 154 OFFCURVE",
"52 378 CURVE SMOOTH",
"52 599 OFFCURVE",
"206 754 OFFCURVE",
"431 754 CURVE SMOOTH",
"656 754 OFFCURVE",
"810 599 OFFCURVE",
"810 378 CURVE SMOOTH",
"810 154 OFFCURVE",
"656 -2 OFFCURVE",
"431 -2 CURVE SMOOTH"
);
},
{
closed = 1;
nodes = (
"482 -7 OFFCURVE",
"517 0 OFFCURVE",
"565 0 CURVE SMOOTH",
"1213 0 LINE",
"1213 187 LINE",
"1208 187 LINE",
"1208 5 LINE",
"522 5 LINE",
"463 -2 LINE",
"431 -7 LINE"
);
},
{
closed = 1;
nodes = (
"1051 377 LINE",
"1051 382 LINE",
"812 382 LINE",
"812 377 LINE"
);
},
{
closed = 1;
nodes = (
"1204 565 LINE",
"1204 752 LINE",
"565 752 LINE SMOOTH",
"517 752 OFFCURVE",
"482 759 OFFCURVE",
"431 759 CURVE",
"464 755 LINE",
"526 747 LINE",
"1199 747 LINE",
"1199 565 LINE"
);
}
);
width = 1271;
}
);
leftMetricsKey = O;
rightMetricsKey = E;
unicode = 0152;
},
{
glyphname = P;
lastChange = "2018-02-27 21:07:30 +0000";
layers = (
{
layerId = "67AEAADB-8447-4819-9D92-8BB76BD22042";
paths = (
{
closed = 1;
nodes = (
"349 0 LINE",
"349 5 LINE",
"200 5 LINE",
"200 752 LINE",
"46 752 LINE",
"46 747 LINE",
"195 747 LINE",
"195 5 LINE",
"46 5 LINE",
"46 0 LINE"
);
},
{
closed = 1;
nodes = (
"461 377 LINE SMOOTH",
"631 377 OFFCURVE",
"716 448 OFFCURVE",
"716 565 CURVE SMOOTH",
"716 682 OFFCURVE",
"631 752 OFFCURVE",
"461 752 CURVE SMOOTH",
"197 752 LINE",
"197 747 LINE",
"461 747 LINE SMOOTH",
"628 747 OFFCURVE",
"711 679 OFFCURVE",
"711 565 CURVE SMOOTH",
"711 452 OFFCURVE",
"628 382 OFFCURVE",
"461 382 CURVE SMOOTH",
"198 382 LINE",
"198 377 LINE"
);
}
);
width = 748;
},
{
layerId = "BE4E587A-F76C-447B-AA28-A45E40876AAF";
paths = (
{
closed = 1;
nodes = (
"388 0 LINE",
"388 207 LINE",
"331 207 LINE",
"331 772 LINE",
"16 772 LINE",
"16 565 LINE",
"73 565 LINE",
"73 207 LINE",
"16 207 LINE",
"16 0 LINE"
);
},
{
closed = 1;
nodes = (
"442 300 LINE SMOOTH",
"653 300 OFFCURVE",
"768 388 OFFCURVE",
"768 537 CURVE SMOOTH",
"768 684 OFFCURVE",
"660 772 OFFCURVE",
"445 772 CURVE SMOOTH",
"285 772 LINE",
"285 565 LINE",
"435 565 LINE SMOOTH",
"473 565 OFFCURVE",
"499 552 OFFCURVE",
"499 522 CURVE SMOOTH",
"499 492 OFFCURVE",
"477 477 OFFCURVE",
"434 477 CURVE SMOOTH",
"268 477 LINE",
"268 300 LINE"
);
}
);
width = 772;
},
{
layerId = "2C5E45D0-97E8-45AA-A5B2-946753DF54E1";
paths = (
{
closed = 1;
nodes = (
"374 0 LINE",
"374 93 LINE",
"264 93 LINE",
"264 752 LINE",
"52 752 LINE",
"52 659 LINE",
"162 659 LINE",
"162 93 LINE",
"52 93 LINE",
"52 0 LINE"
);
},
{
closed = 1;
nodes = (
"445 334 LINE SMOOTH",
"668 334 OFFCURVE",
"711 458 OFFCURVE",
"711 547 CURVE SMOOTH",
"711 676 OFFCURVE",
"624 752 OFFCURVE",
"452 752 CURVE SMOOTH",
"238 752 LINE",
"238 659 LINE",
"448 659 LINE SMOOTH",
"544 659 OFFCURVE",
"607 623 OFFCURVE",
"607 540 CURVE SMOOTH",
"607 462 OFFCURVE",
"552 424 OFFCURVE",
"450 424 CURVE SMOOTH",
"250 424 LINE",
"250 334 LINE"
);
}
);
width = 737;
},
{
associatedMasterId = "67AEAADB-8447-4819-9D92-8BB76BD22042";
layerId = "63AA5395-74B9-4844-978E-A61BF9631CDC";
name = "Dec 23 17, 15:53";
paths = (
{
closed = 1;
nodes = (
"412 595 LINE SMOOTH",
"479 595 OFFCURVE",
"523 569 OFFCURVE",
"523 506 CURVE SMOOTH",
"523 442 OFFCURVE",
"484 412 OFFCURVE",
"411 412 CURVE SMOOTH",
"278 412 LINE",
"278 254 LINE",
"401 254 LINE SMOOTH",
"601 254 OFFCURVE",
"709 362 OFFCURVE",
"709 506 CURVE SMOOTH",
"709 655 OFFCURVE",
"611 752 OFFCURVE",
"416 752 CURVE SMOOTH",
"295 752 LINE",
"295 595 LINE"
);
},
{
closed = 1;
nodes = (
"127 595 LINE",
"127 157 LINE",
"33 157 LINE",
"33 0 LINE",
"399 0 LINE",
"399 157 LINE",
"305 157 LINE",
"305 752 LINE",
"33 752 LINE",
"33 595 LINE"
);
}
);
width = 727;
}
);
leftMetricsKey = H;
rightMetricsKey = F;
unicode = 0050;
},
{
color = 0;
glyphname = Thorn;
lastChange = "2018-03-12 02:16:45 +0000";
layers = (
{
layerId = "67AEAADB-8447-4819-9D92-8BB76BD22042";
paths = (
{
closed = 1;
nodes = (
"195 747 LINE",
"195 5 LINE",
"46 5 LINE",
"46 0 LINE",
"361 0 LINE",
"361 5 LINE",
"200 5 LINE",
"200 747 LINE",
"361 747 LINE",
"361 752 LINE",
"46 752 LINE",
"46 747 LINE"
);
},
{
closed = 1;
nodes = (
"421 559 LINE SMOOTH",
"588 559 OFFCURVE",
"671 491 OFFCURVE",
"671 377 CURVE SMOOTH",
"671 264 OFFCURVE",
"588 194 OFFCURVE",
"421 194 CURVE SMOOTH",
"198 194 LINE",
"198 189 LINE",
"421 189 LINE SMOOTH",
"591 189 OFFCURVE",
"676 260 OFFCURVE",
"676 377 CURVE SMOOTH",
"676 494 OFFCURVE",
"591 564 OFFCURVE",
"421 564 CURVE SMOOTH",
"197 564 LINE",
"197 559 LINE"
);
}
);
width = 708;
},
{
layerId = "2C5E45D0-97E8-45AA-A5B2-946753DF54E1";
paths = (
{
closed = 1;
nodes = (
"162 659 LINE",
"162 93 LINE",
"52 93 LINE",
"52 0 LINE",
"374 0 LINE",
"374 93 LINE",
"264 93 LINE",
"264 659 LINE",
"374 659 LINE",
"374 752 LINE",
"52 752 LINE",
"52 659 LINE"
);
},
{
closed = 1;
nodes = (
"418 481 LINE SMOOTH",
"514 481 OFFCURVE",
"577 449 OFFCURVE",
"577 378 CURVE SMOOTH",
"577 309 OFFCURVE",
"522 276 OFFCURVE",
"420 276 CURVE SMOOTH",
"250 276 LINE",
"250 183 LINE",
"415 183 LINE SMOOTH",
"638 183 OFFCURVE",
"681 297 OFFCURVE",
"681 378 CURVE SMOOTH",
"681 501 OFFCURVE",
"594 574 OFFCURVE",
"422 574 CURVE SMOOTH",
"237 574 LINE",
"237 481 LINE"
);
}
);
width = 707;
},
{
associatedMasterId = "2C5E45D0-97E8-45AA-A5B2-946753DF54E1";
layerId = "81DC54D9-03EB-4C52-B5E0-B7460E1DD03C";
name = "Regular [130]";
paths = (
{
closed = 1;
nodes = (
"162 659 LINE",
"162 93 LINE",
"52 93 LINE",
"52 0 LINE",
"264 0 LINE",
"264 752 LINE",
"52 752 LINE",
"52 659 LINE"
);
},
{
closed = 1;
nodes = (
"418 479 LINE SMOOTH",
"514 479 OFFCURVE",
"577 447 OFFCURVE",
"577 376 CURVE SMOOTH",
"577 307 OFFCURVE",
"522 274 OFFCURVE",
"420 274 CURVE SMOOTH",
"250 274 LINE",
"250 181 LINE",
"415 181 LINE SMOOTH",
"638 181 OFFCURVE",
"681 295 OFFCURVE",
"681 376 CURVE SMOOTH",
"681 499 OFFCURVE",
"594 572 OFFCURVE",
"422 572 CURVE SMOOTH",
"237 572 LINE",
"237 479 LINE"
);
}
);
width = 707;
},
{
layerId = "BE4E587A-F76C-447B-AA28-A45E40876AAF";
paths = (
{
closed = 1;
nodes = (
"73 565 LINE",
"73 207 LINE",
"16 207 LINE",
"16 0 LINE",
"331 0 LINE",
"331 772 LINE",
"16 772 LINE",
"16 565 LINE"
);
},
{
closed = 1;
nodes = (
"414 439 LINE SMOOTH",
"454 439 OFFCURVE",
"481 425 OFFCURVE",
"481 392 CURVE SMOOTH",
"481 359 OFFCURVE",
"458 343 OFFCURVE",
"413 343 CURVE SMOOTH",
"257 343 LINE",
"257 170 LINE",
"421 170 LINE SMOOTH",
"634 170 OFFCURVE",
"750 252 OFFCURVE",
"750 392 CURVE SMOOTH",
"750 530 OFFCURVE",
"641 612 OFFCURVE",
"424 612 CURVE SMOOTH",
"274 612 LINE",
"274 439 LINE"
);
}
);
width = 754;
},
{
associatedMasterId = "BE4E587A-F76C-447B-AA28-A45E40876AAF";
layerId = "713F3103-FA04-43BF-881E-CA01B5982081";
name = "Bold ]131]";
paths = (
{
closed = 1;
nodes = (
"73 565 LINE",
"73 207 LINE",
"16 207 LINE",
"16 0 LINE",
"388 0 LINE",
"388 207 LINE",
"331 207 LINE",
"331 565 LINE",
"388 565 LINE",
"388 772 LINE",
"16 772 LINE",
"16 565 LINE"
);
},
{
closed = 1;
nodes = (
"385 420 LINE SMOOTH",
"417 420 OFFCURVE",
"439 410 OFFCURVE",
"439 385 CURVE SMOOTH",
"439 363 OFFCURVE",
"421 352 OFFCURVE",
"384 352 CURVE SMOOTH",
"227 352 LINE",
"227 175 LINE",
"412 175 LINE SMOOTH",
"603 175 OFFCURVE",
"708 254 OFFCURVE",
"708 387 CURVE SMOOTH",
"708 519 OFFCURVE",
"610 597 OFFCURVE",
"415 597 CURVE SMOOTH",
"227 597 LINE",
"227 420 LINE"
);
}
);
width = 712;
}
);
leftMetricsKey = H;
rightMetricsKey = P;
unicode = 00DE;
},
{
glyphname = Q;
lastChange = "2018-02-27 21:07:30 +0000";
layers = (
{
layerId = "67AEAADB-8447-4819-9D92-8BB76BD22042";
paths = (
{
closed = 1;
nodes = (
"650 -7 OFFCURVE",
"805 151 OFFCURVE",
"805 378 CURVE SMOOTH",
"805 602 OFFCURVE",
"650 759 OFFCURVE",
"426 759 CURVE SMOOTH",
"202 759 OFFCURVE",
"47 602 OFFCURVE",
"47 378 CURVE SMOOTH",
"47 151 OFFCURVE",
"202 -7 OFFCURVE",
"426 -7 CURVE SMOOTH"
);
},
{
closed = 1;
nodes = (
"204 -2 OFFCURVE",
"52 154 OFFCURVE",
"52 378 CURVE SMOOTH",
"52 599 OFFCURVE",
"204 754 OFFCURVE",
"426 754 CURVE SMOOTH",
"648 754 OFFCURVE",
"800 599 OFFCURVE",
"800 378 CURVE SMOOTH",
"800 154 OFFCURVE",
"648 -2 OFFCURVE",
"426 -2 CURVE SMOOTH"
);
},
{
closed = 1;
nodes = (
"524 7 LINE",
"382 -21 OFFCURVE",
"328 -48 OFFCURVE",
"328 -106 CURVE SMOOTH",
"328 -151 OFFCURVE",
"359 -182 OFFCURVE",
"438 -182 CURVE SMOOTH",
"751 -182 LINE",
"751 -177 LINE",
"438 -177 LINE SMOOTH",
"362 -177 OFFCURVE",
"333 -147 OFFCURVE",
"333 -106 CURVE SMOOTH",
"333 -51 OFFCURVE",
"382 -26 OFFCURVE",
"524 4 CURVE"
);
}
);
width = 852;
},
{
layerId = "2C5E45D0-97E8-45AA-A5B2-946753DF54E1";
paths = (
{
closed = 1;
nodes = (
"662 -11 OFFCURVE",
"821 149 OFFCURVE",
"821 378 CURVE SMOOTH",
"821 604 OFFCURVE",
"662 763 OFFCURVE",
"431 763 CURVE SMOOTH",
"200 763 OFFCURVE",
"41 604 OFFCURVE",
"41 378 CURVE SMOOTH",
"41 149 OFFCURVE",
"199 -10 OFFCURVE",
"431 -11 CURVE SMOOTH"
);
},
{
closed = 1;
nodes = (
"265 89 OFFCURVE",
"150 208 OFFCURVE",
"150 378 CURVE SMOOTH",
"150 547 OFFCURVE",
"265 663 OFFCURVE",
"431 663 CURVE SMOOTH",
"597 663 OFFCURVE",
"712 547 OFFCURVE",
"712 378 CURVE SMOOTH",
"712 208 OFFCURVE",
"597 89 OFFCURVE",
"431 89 CURVE SMOOTH"
);
},
{
closed = 1;
nodes = (
"483 82 LINE",
"367 52 OFFCURVE",
"322 16 OFFCURVE",
"322 -56 CURVE SMOOTH",
"322 -134 OFFCURVE",
"368 -182 OFFCURVE",
"486 -182 CURVE SMOOTH",
"793 -182 LINE",
"793 -89 LINE",
"492 -89 LINE SMOOTH",
"444 -89 OFFCURVE",
"424 -78 OFFCURVE",
"424 -45 CURVE SMOOTH",
"424 -15 OFFCURVE",
"442 -1 OFFCURVE",
"485 29 CURVE"
);
}
);
width = 862;
},
{
associatedMasterId = "2C5E45D0-97E8-45AA-A5B2-946753DF54E1";
backgroundImage = {
crop = "{{0, 0}, {2448, 3264}}";
imagePath = "../../Reference/Bruce/Bruce1848/1848 George Bruce & Co. type specimen book..jpg";
locked = "1";
transform = "{6.87522, 0, 0, 6.87522, -1066, -8409}";
};
layerId = "335EA497-6E32-4BE1-8A61-C06F4C286B9A";
name = "Dec 24 17, 01:19";
paths = (
{
closed = 1;
nodes = (
"660 -11 OFFCURVE",
"819 149 OFFCURVE",
"819 378 CURVE SMOOTH",
"819 604 OFFCURVE",
"660 763 OFFCURVE",
"429 763 CURVE SMOOTH",
"198 763 OFFCURVE",
"39 604 OFFCURVE",
"39 378 CURVE SMOOTH",
"39 158 OFFCURVE",
"196 5 OFFCURVE",
"427 4 CURVE",
"429 -11 LINE"
);
},
{
closed = 1;
nodes = (
"263 89 OFFCURVE",
"148 208 OFFCURVE",
"148 378 CURVE SMOOTH",
"148 547 OFFCURVE",
"263 663 OFFCURVE",
"429 663 CURVE SMOOTH",
"595 663 OFFCURVE",
"710 547 OFFCURVE",
"710 378 CURVE SMOOTH",
"710 208 OFFCURVE",
"595 89 OFFCURVE",
"429 89 CURVE SMOOTH"
);
},
{
closed = 1;
nodes = (
"427 42 LINE",
"306 42 OFFCURVE",
"259 9 OFFCURVE",
"259 -62 CURVE SMOOTH",
"259 -134 OFFCURVE",
"305 -182 OFFCURVE",
"423 -182 CURVE SMOOTH",
"770 -182 LINE",
"770 -89 LINE",
"429 -89 LINE SMOOTH",
"381 -89 OFFCURVE",
"361 -78 OFFCURVE",
"361 -50 CURVE SMOOTH",
"361 -22 OFFCURVE",
"381 -11 OFFCURVE",
"429 -11 CURVE"
);
}
);
width = 858;
},
{
layerId = "BE4E587A-F76C-447B-AA28-A45E40876AAF";
paths = (
{
closed = 1;
nodes = (
"684 -14 OFFCURVE",
"857 151 OFFCURVE",
"857 388 CURVE SMOOTH",
"857 622 OFFCURVE",
"684 786 OFFCURVE",
"434 786 CURVE SMOOTH",
"184 786 OFFCURVE",
"11 622 OFFCURVE",
"11 388 CURVE SMOOTH",
"11 151 OFFCURVE",
"184 -14 OFFCURVE",
"434 -14 CURVE SMOOTH"
);
},
{
closed = 1;
nodes = (
"342 229 OFFCURVE",
"278 294 OFFCURVE",
"278 388 CURVE SMOOTH",
"278 480 OFFCURVE",
"342 543 OFFCURVE",
"434 543 CURVE SMOOTH",
"526 543 OFFCURVE",
"590 480 OFFCURVE",
"590 388 CURVE SMOOTH",
"590 294 OFFCURVE",
"526 229 OFFCURVE",
"434 229 CURVE SMOOTH"
);
},
{
closed = 1;
nodes = (
"523 92 LINE",
"327 75 OFFCURVE",
"252 10 OFFCURVE",
"252 -82 CURVE SMOOTH",
"252 -160 OFFCURVE",
"304 -210 OFFCURVE",
"437 -210 CURVE SMOOTH",
"763 -210 LINE",
"763 -34 LINE",
"518 -34 LINE SMOOTH",
"496 -34 OFFCURVE",
"487 -31 OFFCURVE",
"487 -20 CURVE SMOOTH",
"487 -8 OFFCURVE",
"497 1 OFFCURVE",
"525 9 CURVE"
);
}
);
width = 868;
}
);
leftMetricsKey = O;
rightMetricsKey = O;
unicode = 0051;
},
{
glyphname = R;
lastChange = "2018-03-02 19:46:30 +0000";
layers = (
{
anchors = (
{
name = bottom;
position = "{471, 0}";
},
{
name = top;
position = "{437, 732}";
}
);
layerId = "67AEAADB-8447-4819-9D92-8BB76BD22042";
paths = (
{
closed = 1;
nodes = (
"462 377 LINE",
"493 377 LINE SMOOTH",
"543 377 OFFCURVE",
"568 360 OFFCURVE",
"586 308 CURVE SMOOTH",
"693 0 LINE",
"789 0 LINE",
"789 5 LINE",
"697 5 LINE",
"591 310 LINE SMOOTH",
"574 358 OFFCURVE",
"556 381 OFFCURVE",
"487 381 CURVE"
);
},
{
closed = 1;
nodes = (
"461 747 LINE SMOOTH",
"628 747 OFFCURVE",
"711 677 OFFCURVE",
"711 574 CURVE SMOOTH",
"711 468 OFFCURVE",
"623 382 OFFCURVE",
"460 382 CURVE SMOOTH",
"198 382 LINE",
"198 377 LINE",
"484 377 LINE",
"508 378 LINE",
"508 381 LINE",
"624 390 OFFCURVE",
"716 464 OFFCURVE",
"716 574 CURVE SMOOTH",
"716 680 OFFCURVE",
"631 752 OFFCURVE",
"461 752 CURVE SMOOTH",
"322 752 LINE",
"322 747 LINE"
);
},
{
closed = 1;
nodes = (
"195 747 LINE",
"195 5 LINE",
"46 5 LINE",
"46 0 LINE",
"349 0 LINE",
"349 5 LINE",
"200 5 LINE",
"200 747 LINE",
"349 747 LINE",
"349 752 LINE",
"46 752 LINE",
"46 747 LINE"
);
}
);
width = 821;
},
{
anchors = (
{
name = bottom;
position = "{444, 0}";
},
{
name = top;
position = "{402, 732}";
}
);
layerId = "BE4E587A-F76C-447B-AA28-A45E40876AAF";
rightMetricsKey = "=P+6";
paths = (
{
closed = 1;
nodes = (
"330 297 LINE",
"422 297 LINE",
"437 297 OFFCURVE",
"444 292 OFFCURVE",
"449 272 CURVE SMOOTH",
"514 0 LINE",
"784 0 LINE",
"784 207 LINE",
"733 207 LINE",
"687 355 LINE SMOOTH",
"676 390 OFFCURVE",
"635 438 OFFCURVE",
"552 458 CURVE"
);
},
{
closed = 1;
nodes = (
"448 565 LINE SMOOTH",
"488 565 OFFCURVE",
"515 551 OFFCURVE",
"515 519 CURVE SMOOTH",
"515 489 OFFCURVE",
"491 474 OFFCURVE",
"447 474 CURVE SMOOTH",
"250 474 LINE",
"250 297 LINE",
"499 297 LINE",
"667 378 LINE",
"667 395 LINE",
"733 421 OFFCURVE",
"782 459 OFFCURVE",
"782 551 CURVE SMOOTH",
"782 690 OFFCURVE",
"671 772 OFFCURVE",
"452 772 CURVE SMOOTH",
"317 772 LINE",
"317 565 LINE"
);
},
{
closed = 1;
nodes = (
"73 565 LINE",
"73 207 LINE",
"16 207 LINE",
"16 0 LINE",
"388 0 LINE",
"388 207 LINE",
"331 207 LINE",
"331 565 LINE",
"388 565 LINE",
"388 772 LINE",
"16 772 LINE",
"16 565 LINE"
);
}
);
width = 794;
},
{
anchors = (
{
name = bottom;
position = "{444, 0}";
},
{
name = top;
position = "{402, 732}";
}
);
layerId = "2C5E45D0-97E8-45AA-A5B2-946753DF54E1";
paths = (
{
closed = 1;
nodes = (
"377 334 LINE",
"416 334 LINE",
"466 334 OFFCURVE",
"487 316 OFFCURVE",
"505 265 CURVE SMOOTH",
"597 0 LINE",
"759 0 LINE",
"759 93 LINE",
"680 93 LINE",
"588 324 LINE SMOOTH",
"572 365 OFFCURVE",
"526 390 OFFCURVE",
"487 398 CURVE"
);
},
{
closed = 1;
nodes = (
"448 659 LINE SMOOTH",
"544 659 OFFCURVE",
"607 625 OFFCURVE",
"607 546 CURVE SMOOTH",
"607 464 OFFCURVE",
"551 424 OFFCURVE",
"447 424 CURVE SMOOTH",
"250 424 LINE",
"250 334 LINE",
"439 334 LINE",
"566 345 LINE",
"566 362 LINE",
"661 387 OFFCURVE",
"711 461 OFFCURVE",
"711 553 CURVE SMOOTH",
"711 678 OFFCURVE",
"624 752 OFFCURVE",
"452 752 CURVE SMOOTH",
"317 752 LINE",
"317 659 LINE"
);
},
{
closed = 1;
nodes = (
"162 659 LINE",
"162 93 LINE",
"52 93 LINE",
"52 0 LINE",
"374 0 LINE",
"374 93 LINE",
"264 93 LINE",
"264 659 LINE",
"374 659 LINE",
"374 752 LINE",
"52 752 LINE",
"52 659 LINE"
);
}
);
width = 785;
}
);
leftMetricsKey = H;
rightMetricsKey = P;
unicode = 0052;
},
{
color = 0;
glyphname = S;
lastChange = "2018-03-02 15:43:40 +0000";
layers = (
{
anchors = (
{
name = bottom;
position = "{365, 0}";
},
{
name = top;
position = "{326, 732}";
}
);
layerId = "67AEAADB-8447-4819-9D92-8BB76BD22042";
leftMetricsKey = "=H+12";
rightMetricsKey = "=|+4";
paths = (
{
closed = 1;
nodes = (
"516 -10 OFFCURVE",
"600 59 OFFCURVE",
"600 183 CURVE SMOOTH",
"600 301 OFFCURVE",
"525 359 OFFCURVE",
"332 391 CURVE SMOOTH",
"132 424 OFFCURVE",
"66 473 OFFCURVE",
"66 577 CURVE SMOOTH",
"66 694 OFFCURVE",
"153 757 OFFCURVE",
"296 757 CURVE SMOOTH",
"457 757 OFFCURVE",
"544 679 OFFCURVE",
"567 524 CURVE",
"570 546 LINE",
"566 546 LINE",
"544 680 OFFCURVE",
"460 762 OFFCURVE",
"296 762 CURVE SMOOTH",
"150 762 OFFCURVE",
"61 697 OFFCURVE",
"61 577 CURVE SMOOTH",
"61 469 OFFCURVE",
"132 419 OFFCURVE",
"331 386 CURVE SMOOTH",
"524 354 OFFCURVE",
"595 298 OFFCURVE",
"595 183 CURVE SMOOTH",
"595 62 OFFCURVE",
"513 -5 OFFCURVE",
"363 -5 CURVE SMOOTH",
"189 -5 OFFCURVE",
"84 76 OFFCURVE",
"63 228 CURVE",
"61 208 LINE",
"64 208 LINE",
"87 71 OFFCURVE",
"190 -10 OFFCURVE",
"363 -10 CURVE SMOOTH"
);
},
{
closed = 1;
nodes = (
"63 0 LINE",
"63 228 LINE",
"58 228 LINE",
"58 0 LINE"
);
},
{
closed = 1;
nodes = (
"572 524 LINE",
"572 752 LINE",
"567 752 LINE",
"567 524 LINE"
);
}
);
width = 662;
},
{
anchors = (
{
name = bottom;
position = "{409, 0}";
},
{
name = top;
position = "{342, 732}";
}
);
layerId = "BE4E587A-F76C-447B-AA28-A45E40876AAF";
leftMetricsKey = "=H+4";
paths = (
{
closed = 1;
nodes = (
"667 -10 OFFCURVE",
"754 74 OFFCURVE",
"754 229 CURVE SMOOTH",
"754 407 OFFCURVE",
"637 505 OFFCURVE",
"405 522 CURVE SMOOTH",
"316 529 OFFCURVE",
"288 553 OFFCURVE",
"288 585 CURVE SMOOTH",
"288 614 OFFCURVE",
"313 629 OFFCURVE",
"353 629 CURVE SMOOTH",
"420 629 OFFCURVE",
"466 590 OFFCURVE",
"475 528 CURVE",
"490 584 LINE",
"467 584 LINE",
"457 721 OFFCURVE",
"387 786 OFFCURVE",
"257 786 CURVE SMOOTH",
"108 786 OFFCURVE",
"20 697 OFFCURVE",
"20 551 CURVE SMOOTH",
"20 371 OFFCURVE",
"135 274 OFFCURVE",
"369 255 CURVE SMOOTH",
"453 248 OFFCURVE",
"486 233 OFFCURVE",
"486 198 CURVE SMOOTH",
"486 166 OFFCURVE",
"459 147 OFFCURVE",
"412 147 CURVE SMOOTH",
"352 147 OFFCURVE",
"302 189 OFFCURVE",
"291 248 CURVE",
"276 189 LINE",
"299 189 LINE",
"311 52 OFFCURVE",
"376 -10 OFFCURVE",
"510 -10 CURVE SMOOTH"
);
},
{
closed = 1;
nodes = (
"291 0 LINE",
"291 248 LINE",
"33 248 LINE",
"33 0 LINE"
);
},
{
closed = 1;
nodes = (
"733 528 LINE",
"733 772 LINE",
"475 772 LINE",
"475 528 LINE"
);
}
);
width = 774;
},
{
anchors = (
{
name = bottom;
position = "{361, 0}";
},
{
name = top;
position = "{351, 732}";
}
);
layerId = "2C5E45D0-97E8-45AA-A5B2-946753DF54E1";
leftMetricsKey = "=H+8";
rightMetricsKey = "=H+8";
paths = (
{
closed = 1;
nodes = (
"551 -10 OFFCURVE",
"643 71 OFFCURVE",
"643 208 CURVE SMOOTH",
"643 342 OFFCURVE",
"563 408 OFFCURVE",
"361 439 CURVE SMOOTH",
"223 465 OFFCURVE",
"165 503 OFFCURVE",
"165 570 CURVE SMOOTH",
"165 635 OFFCURVE",
"221 675 OFFCURVE",
"311 675 CURVE SMOOTH",
"417 675 OFFCURVE",
"499 615 OFFCURVE",
"515 524 CURVE",
"534 580 LINE",
"511 580 LINE",
"498 700 OFFCURVE",
"425 762 OFFCURVE",
"297 762 CURVE SMOOTH",
"150 762 OFFCURVE",
"61 688 OFFCURVE",
"61 565 CURVE SMOOTH",
"61 440 OFFCURVE",
"155 364 OFFCURVE",
"345 338 CURVE SMOOTH",
"487 318 OFFCURVE",
"539 281 OFFCURVE",
"539 201 CURVE SMOOTH",
"539 121 OFFCURVE",
"482 77 OFFCURVE",
"379 77 CURVE SMOOTH",
"263 77 OFFCURVE",
"179 135 OFFCURVE",
"162 228 CURVE",
"143 169 LINE",
"166 169 LINE",
"181 54 OFFCURVE",
"263 -10 OFFCURVE",
"395 -10 CURVE SMOOTH"
);
},
{
closed = 1;
nodes = (
"162 0 LINE",
"162 228 LINE",
"60 228 LINE",
"60 0 LINE"
);
},
{
closed = 1;
nodes = (
"617 524 LINE",
"617 752 LINE",
"515 752 LINE",
"515 524 LINE"
);
}
);
width = 703;
},
{
anchors = (
{
name = bottom;
position = "{365, 0}";
},
{
name = top;
position = "{326, 732}";
}
);
associatedMasterId = "67AEAADB-8447-4819-9D92-8BB76BD22042";
layerId = "56725886-56DC-4334-8FA3-A525F4F55AA4";
leftMetricsKey = "=H+12";
rightMetricsKey = "=|+4";
name = "Light [6]";
paths = (
{
closed = 1;
nodes = (
"516 -10 OFFCURVE",
"600 59 OFFCURVE",
"600 183 CURVE SMOOTH",
"600 301 OFFCURVE",
"525 359 OFFCURVE",
"332 391 CURVE SMOOTH",
"132 424 OFFCURVE",
"66 473 OFFCURVE",
"66 577 CURVE SMOOTH",
"66 694 OFFCURVE",
"153 757 OFFCURVE",
"296 757 CURVE SMOOTH",
"457 757 OFFCURVE",
"544 679 OFFCURVE",
"567 524 CURVE",
"570 577 LINE",
"566 577 LINE",
"540 685 OFFCURVE",
"456 762 OFFCURVE",
"296 762 CURVE SMOOTH",
"150 762 OFFCURVE",
"61 697 OFFCURVE",
"61 577 CURVE SMOOTH",
"61 469 OFFCURVE",
"132 419 OFFCURVE",
"331 386 CURVE SMOOTH",
"524 354 OFFCURVE",
"595 298 OFFCURVE",
"595 183 CURVE SMOOTH",
"595 62 OFFCURVE",
"513 -5 OFFCURVE",
"358 -5 CURVE SMOOTH",
"189 -5 OFFCURVE",
"84 76 OFFCURVE",
"63 228 CURVE",
"61 178 LINE",
"64 178 LINE",
"91 66 OFFCURVE",
"193 -10 OFFCURVE",
"358 -10 CURVE SMOOTH"
);
},
{
closed = 1;
nodes = (
"63 0 LINE",
"63 228 LINE",
"58 228 LINE",
"58 0 LINE"
);
},
{
closed = 1;
nodes = (
"572 524 LINE",
"572 752 LINE",
"567 752 LINE",
"567 524 LINE"
);
}
);
width = 662;
}
);
rightMetricsKey = "=|";
unicode = 0053;
},
{
color = 3;
glyphname = Germandbls;
lastChange = "2018-02-27 19:14:11 +0000";
layers = (
{
layerId = "67AEAADB-8447-4819-9D92-8BB76BD22042";
leftMetricsKey = "=n+12";
paths = (
{
closed = 1;
nodes = (
"385 417 LINE",
"391 417 LINE",
"391 422 LINE",
"664 667 LINE",
"664 669 LINE",
"658 671 LINE",
"658 668 LINE",
"385 423 LINE"
);
},
{
closed = 1;
nodes = (
"185 557 LINE SMOOTH",
"185 697 OFFCURVE",
"252 792 OFFCURVE",
"404 792 CURVE SMOOTH",
"503 792 OFFCURVE",
"596 753 OFFCURVE",
"660 666 CURVE",
"664 669 LINE",
"600 756 OFFCURVE",
"506 797 OFFCURVE",
"404 797 CURVE SMOOTH",
"249 797 OFFCURVE",
"180 700 OFFCURVE",
"180 557 CURVE SMOOTH",
"180 524 LINE",
"51 524 LINE",
"51 519 LINE",
"180 519 LINE",
"180 5 LINE",
"51 5 LINE",
"51 0 LINE",
"185 0 LINE"
);
},
{
closed = 1;
nodes = (
"385 417 LINE",
"632 400 OFFCURVE",
"728 331 OFFCURVE",
"728 199 CURVE SMOOTH",
"728 81 OFFCURVE",
"654 -2 OFFCURVE",
"491 -2 CURVE SMOOTH",
"359 -2 OFFCURVE",
"291 50 OFFCURVE",
"272 144 CURVE",
"267 143 LINE",
"286 49 OFFCURVE",
"356 -7 OFFCURVE",
"491 -7 CURVE SMOOTH",
"657 -7 OFFCURVE",
"733 78 OFFCURVE",
"733 199 CURVE SMOOTH",
"733 334 OFFCURVE",
"633 405 OFFCURVE",
"386 422 CURVE"
);
}
);
width = 794;
},
{
layerId = "BE4E587A-F76C-447B-AA28-A45E40876AAF";
leftMetricsKey = "=n+12";
paths = (
{
closed = 1;
nodes = (
"428 277 LINE",
"700 389 LINE",
"700 421 LINE",
"777 512 LINE",
"777 629 LINE",
"498 568 LINE",
"498 539 LINE",
"428 462 LINE"
);
},
{
closed = 1;
nodes = (
"373 516 LINE SMOOTH",
"373 560 OFFCURVE",
"396 581 OFFCURVE",
"432 581 CURVE SMOOTH",
"473 581 OFFCURVE",
"498 552 OFFCURVE",
"507 523 CURVE",
"777 629 LINE",
"699 745 OFFCURVE",
"585 800 OFFCURVE",
"436 800 CURVE SMOOTH",
"222 800 OFFCURVE",
"119 714 OFFCURVE",
"119 586 CURVE SMOOTH",
"119 580 LINE",
"30 580 LINE",
"30 377 LINE",
"119 377 LINE",
"119 203 LINE",
"30 203 LINE",
"30 0 LINE",
"373 0 LINE"
);
},
{
closed = 1;
nodes = (
"428 277 LINE",
"544 272 OFFCURVE",
"589 254 OFFCURVE",
"589 215 CURVE SMOOTH",
"589 192 OFFCURVE",
"574 180 OFFCURVE",
"550 180 CURVE SMOOTH",
"535 180 OFFCURVE",
"522 185 OFFCURVE",
"509 194 CURVE",
"419 16 LINE",
"457 -3 OFFCURVE",
"491 -12 OFFCURVE",
"557 -12 CURVE SMOOTH",
"761 -12 OFFCURVE",
"851 74 OFFCURVE",
"851 220 CURVE SMOOTH",
"851 344 OFFCURVE",
"779 411 OFFCURVE",
"584 440 CURVE"
);
}
);
width = 872;
},
{
associatedMasterId = "2C5E45D0-97E8-45AA-A5B2-946753DF54E1";
layerId = "FE80F295-343F-470D-BC19-20BD28AC8CD9";
rightMetricsKey = "=s-16";
name = "Jan 3 18, 14:29";
paths = (
{
closed = 1;
nodes = (
"362 337 LINE",
"483 379 LINE",
"483 411 LINE",
"631 673 LINE",
"631 759 LINE",
"532 720 LINE",
"532 691 LINE",
"362 404 LINE"
);
},
{
closed = 1;
nodes = (
"362 337 LINE",
"538 325 OFFCURVE",
"606 281 OFFCURVE",
"606 191 CURVE SMOOTH",
"606 115 OFFCURVE",
"559 78 OFFCURVE",
"472 78 CURVE SMOOTH",
"411 78 OFFCURVE",
"369 107 OFFCURVE",
"361 148 CURVE",
"264 130 LINE",
"282 42 OFFCURVE",
"342 -10 OFFCURVE",
"475 -10 CURVE SMOOTH",
"625 -10 OFFCURVE",
"700 71 OFFCURVE",
"700 198 CURVE SMOOTH",
"700 329 OFFCURVE",
"622 399 OFFCURVE",
"408 430 CURVE"
);
},
{
closed = 1;
nodes = (
"232 584 LINE SMOOTH",
"232 675 OFFCURVE",
"282 711 OFFCURVE",
"395 711 CURVE SMOOTH",
"470 711 OFFCURVE",
"536 695 OFFCURVE",
"611 672 CURVE",
"631 759 LINE",
"546 782 OFFCURVE",
"459 800 OFFCURVE",
"380 800 CURVE SMOOTH",
"212 800 OFFCURVE",
"135 717 OFFCURVE",
"135 584 CURVE SMOOTH",
"135 536 LINE",
"32 536 LINE",
"32 452 LINE",
"134 452 LINE",
"134 84 LINE",
"32 84 LINE",
"32 0 LINE",
"232 0 LINE",
"232 452 LINE",
"232 536 LINE"
);
}
);
width = 732;
},
{
associatedMasterId = "2C5E45D0-97E8-45AA-A5B2-946753DF54E1";
layerId = "EB730B4A-FF7D-4771-98D9-8E290D735F46";
rightMetricsKey = "=s-16";
name = "Jan 3 18, 14:37";
paths = (
{
closed = 1;
nodes = (
"402 367 LINE",
"523 409 LINE",
"523 441 LINE",
"685 656 LINE",
"685 690 LINE",
"575 685 LINE",
"575 656 LINE",
"402 434 LINE"
);
},
{
closed = 1;
nodes = (
"402 367 LINE",
"578 354 OFFCURVE",
"646 307 OFFCURVE",
"646 210 CURVE SMOOTH",
"646 126 OFFCURVE",
"590 76 OFFCURVE",
"500 76 CURVE SMOOTH",
"423 76 OFFCURVE",
"371 113 OFFCURVE",
"361 165 CURVE",
"264 147 LINE",
"284 47 OFFCURVE",
"355 -12 OFFCURVE",
"499 -12 CURVE SMOOTH",
"665 -12 OFFCURVE",
"740 74 OFFCURVE",
"740 211 CURVE SMOOTH",
"740 355 OFFCURVE",
"662 428 OFFCURVE",
"448 460 CURVE"
);
},
{
closed = 1;
nodes = (
"134 659 LINE",
"134 93 LINE",
"24 93 LINE",
"24 0 LINE",
"236 0 LINE",
"236 659 LINE",
"685 659 LINE",
"685 752 LINE",
"24 752 LINE",
"24 659 LINE"
);
}
);
width = 772;
},
{
layerId = "2C5E45D0-97E8-45AA-A5B2-946753DF54E1";
leftMetricsKey = "=H";
rightMetricsKey = "=S-16";
paths = (
{
closed = 1;
nodes = (
"426 367 LINE",
"547 417 LINE",
"547 449 LINE",
"705 576 LINE",
"705 669 LINE",
"615 664 LINE",
"615 635 LINE",
"426 471 LINE"
);
},
{
closed = 1;
nodes = (
"256 557 LINE SMOOTH",
"256 654 OFFCURVE",
"323 700 OFFCURVE",
"429 700 CURVE SMOOTH",
"546 700 OFFCURVE",
"619 643 OFFCURVE",
"645 585 CURVE",
"705 669 LINE",
"641 758 OFFCURVE",
"547 800 OFFCURVE",
"424 800 CURVE SMOOTH",
"242 800 OFFCURVE",
"155 702 OFFCURVE",
"155 557 CURVE SMOOTH",
"155 536 LINE",
"52 536 LINE",
"52 443 LINE",
"154 443 LINE",
"154 93 LINE",
"52 93 LINE",
"52 0 LINE",
"256 0 LINE"
);
},
{
closed = 1;
nodes = (
"426 367 LINE",
"602 354 OFFCURVE",
"670 307 OFFCURVE",
"670 212 CURVE SMOOTH",
"670 130 OFFCURVE",
"617 83 OFFCURVE",
"533 83 CURVE SMOOTH",
"461 83 OFFCURVE",
"414 117 OFFCURVE",
"405 165 CURVE",
"308 143 LINE",
"327 46 OFFCURVE",
"394 -12 OFFCURVE",
"532 -12 CURVE SMOOTH",
"698 -12 OFFCURVE",
"774 74 OFFCURVE",
"774 211 CURVE SMOOTH",
"774 355 OFFCURVE",
"693 428 OFFCURVE",
"472 460 CURVE"
);
}
);
width = 818;
}
);
leftMetricsKey = "n+12";
rightMetricsKey = s;
unicode = 1E9E;
},
{
color = 3;
glyphname = Schwa;
lastChange = "2018-03-09 14:46:33 +0000";
layers = (
{
layerId = "67AEAADB-8447-4819-9D92-8BB76BD22042";
leftMetricsKey = "=O-2";
paths = (
{
closed = 1;
nodes = (
"47 386 LINE",
"47 381 LINE",
"802 381 LINE",
"802 386 LINE"
);
},
{
closed = 1;
nodes = (
"265 759 OFFCURVE",
"132 685 OFFCURVE",
"73 538 CURVE",
"78 536 LINE",
"137 682 OFFCURVE",
"268 754 OFFCURVE",
"425 754 CURVE SMOOTH",
"651 754 OFFCURVE",
"800 599 OFFCURVE",
"800 378 CURVE SMOOTH",
"800 154 OFFCURVE",
"646 -2 OFFCURVE",
"425 -2 CURVE SMOOTH",
"203 -2 OFFCURVE",
"50 154 OFFCURVE",
"50 378 CURVE SMOOTH",
"50 381 OFFCURVE",
"50 383 OFFCURVE",
"50 386 CURVE",
"45 386 LINE",
"45 384 OFFCURVE",
"45 381 OFFCURVE",
"45 378 CURVE SMOOTH",
"45 151 OFFCURVE",
"200 -7 OFFCURVE",
"425 -7 CURVE SMOOTH",
"649 -7 OFFCURVE",
"805 151 OFFCURVE",
"805 378 CURVE SMOOTH",
"805 602 OFFCURVE",
"654 759 OFFCURVE",
"425 759 CURVE SMOOTH"
);
}
);
width = 852;
},
{
layerId = "2C5E45D0-97E8-45AA-A5B2-946753DF54E1";
leftMetricsKey = "=O-3";
rightMetricsKey = "=O+2";
paths = (
{
closed = 1;
nodes = (
"40 428 LINE",
"48 338 LINE",
"720 338 LINE",
"720 428 LINE"
);
},
{
closed = 1;
nodes = (
"258 763 OFFCURVE",
"125 688 OFFCURVE",
"66 538 CURVE",
"166 500 LINE",
"203 598 OFFCURVE",
"299 663 OFFCURVE",
"418 663 CURVE SMOOTH",
"580 663 OFFCURVE",
"689 547 OFFCURVE",
"689 378 CURVE SMOOTH",
"689 208 OFFCURVE",
"577 89 OFFCURVE",
"418 89 CURVE SMOOTH",
"257 89 OFFCURVE",
"147 208 OFFCURVE",
"147 378 CURVE SMOOTH",
"147 391 OFFCURVE",
"147 403 OFFCURVE",
"147 417 CURVE",
"40 428 LINE",
"39 414 OFFCURVE",
"38 396 OFFCURVE",
"38 378 CURVE SMOOTH",
"38 149 OFFCURVE",
"193 -11 OFFCURVE",
"418 -11 CURVE SMOOTH",
"642 -11 OFFCURVE",
"798 149 OFFCURVE",
"798 378 CURVE SMOOTH",
"798 604 OFFCURVE",
"647 763 OFFCURVE",
"418 763 CURVE SMOOTH"
);
}
);
width = 841;
},
{
layerId = "BE4E587A-F76C-447B-AA28-A45E40876AAF";
leftMetricsKey = "=O+2";
paths = (
{
closed = 1;
nodes = (
"42 434 LINE",
"50 338 LINE",
"722 338 LINE",
"722 434 LINE"
);
},
{
closed = 1;
nodes = (
"252 786 OFFCURVE",
"110 697 OFFCURVE",
"47 557 CURVE",
"291 450 LINE",
"313 507 OFFCURVE",
"366 543 OFFCURVE",
"436 543 CURVE SMOOTH",
"528 543 OFFCURVE",
"592 480 OFFCURVE",
"592 388 CURVE SMOOTH",
"592 294 OFFCURVE",
"528 229 OFFCURVE",
"436 229 CURVE SMOOTH",
"344 229 OFFCURVE",
"280 294 OFFCURVE",
"280 388 CURVE SMOOTH",
"280 404 OFFCURVE",
"282 420 OFFCURVE",
"286 434 CURVE",
"15 434 LINE",
"14 419 OFFCURVE",
"13 404 OFFCURVE",
"13 388 CURVE SMOOTH",
"13 151 OFFCURVE",
"186 -14 OFFCURVE",
"436 -14 CURVE SMOOTH",
"686 -14 OFFCURVE",
"859 151 OFFCURVE",
"859 388 CURVE SMOOTH",
"859 622 OFFCURVE",
"686 786 OFFCURVE",
"436 786 CURVE SMOOTH"
);
}
);
width = 870;
},
{
associatedMasterId = "BE4E587A-F76C-447B-AA28-A45E40876AAF";
layerId = "C52F069E-406C-4236-8650-9E28C7D0ABB4";
leftMetricsKey = "=O+2";
name = "Feb 21 18, 17:49";
paths = (
{
closed = 1;
nodes = (
"42 434 LINE",
"50 338 LINE",
"722 338 LINE",
"722 434 LINE"
);
},
{
closed = 1;
nodes = (
"288 772 LINE",
"34 772 LINE",
"34 452 LINE",
"288 452 LINE"
);
},
{
closed = 1;
nodes = (
"360 786 OFFCURVE",
"305 673 OFFCURVE",
"296 506 CURVE",
"248 506 LINE",
"288 452 LINE",
"307 508 OFFCURVE",
"365 543 OFFCURVE",
"437 543 CURVE SMOOTH",
"532 543 OFFCURVE",
"592 480 OFFCURVE",
"592 388 CURVE SMOOTH",
"592 294 OFFCURVE",
"528 229 OFFCURVE",
"436 229 CURVE SMOOTH",
"344 229 OFFCURVE",
"280 294 OFFCURVE",
"280 388 CURVE SMOOTH",
"280 404 OFFCURVE",
"282 420 OFFCURVE",
"286 434 CURVE",
"15 434 LINE",
"14 419 OFFCURVE",
"13 404 OFFCURVE",
"13 388 CURVE SMOOTH",
"13 151 OFFCURVE",
"186 -14 OFFCURVE",
"436 -14 CURVE SMOOTH",
"686 -14 OFFCURVE",
"859 151 OFFCURVE",
"859 388 CURVE SMOOTH",
"859 622 OFFCURVE",
"687 786 OFFCURVE",
"509 786 CURVE SMOOTH"
);
}
);
width = 870;
}
);
rightMetricsKey = O;
unicode = 018F;
},
{
glyphname = T;
lastChange = "2018-02-27 21:07:30 +0000";
layers = (
{
anchors = (
{
name = bottom;
position = "{371, 0}";
},
{
name = top;
position = "{371, 732}";
}
);
layerId = "67AEAADB-8447-4819-9D92-8BB76BD22042";
paths = (
{
closed = 1;
nodes = (
"32 752 LINE",
"32 541 LINE",
"37 541 LINE",
"37 747 LINE",
"369 747 LINE",
"369 5 LINE",
"220 5 LINE",
"220 0 LINE",
"522 0 LINE",
"522 5 LINE",
"374 5 LINE",
"374 747 LINE",
"706 747 LINE",
"706 541 LINE",
"711 541 LINE",
"711 752 LINE"
);
}
);
width = 743;
},
{
anchors = (
{
name = bottom;
position = "{387, 0}";
},
{
name = top;
position = "{387, 732}";
}
);
layerId = "2C5E45D0-97E8-45AA-A5B2-946753DF54E1";
paths = (
{
closed = 1;
nodes = (
"26 752 LINE",
"26 500 LINE",
"128 500 LINE",
"128 659 LINE",
"336 659 LINE",
"336 93 LINE",
"226 93 LINE",
"226 0 LINE",
"548 0 LINE",
"548 93 LINE",
"438 93 LINE",
"438 659 LINE",
"646 659 LINE",
"646 500 LINE",
"748 500 LINE",
"748 752 LINE"
);
}
);
width = 774;
},
{
anchors = (
{
name = bottom;
position = "{446, 0}";
},
{
name = top;
position = "{446, 732}";
}
);
associatedMasterId = "BE4E587A-F76C-447B-AA28-A45E40876AAF";
layerId = "1DCD6A0C-C43B-49AE-9011-5337C9DC4995";
name = "Feb 18 18, 17:30";
paths = (
{
closed = 1;
nodes = (
"7 772 LINE",
"7 401 LINE",
"265 401 LINE",
"265 565 LINE",
"317 565 LINE",
"317 207 LINE",
"262 207 LINE",
"262 0 LINE",
"630 0 LINE",
"630 207 LINE",
"575 207 LINE",
"575 565 LINE",
"627 565 LINE",
"627 401 LINE",
"885 401 LINE",
"885 772 LINE"
);
}
);
width = 892;
},
{
anchors = (
{
name = bottom;
position = "{402, 0}";
},
{
name = top;
position = "{402, 732}";
}
);
layerId = "BE4E587A-F76C-447B-AA28-A45E40876AAF";
paths = (
{
closed = 1;
nodes = (
"4 772 LINE",
"4 423 LINE",
"214 423 LINE",
"214 565 LINE",
"273 565 LINE",
"273 207 LINE",
"218 207 LINE",
"218 0 LINE",
"586 0 LINE",
"586 207 LINE",
"531 207 LINE",
"531 565 LINE",
"590 565 LINE",
"590 423 LINE",
"800 423 LINE",
"800 772 LINE"
);
}
);
width = 804;
}
);
leftMetricsKey = "=|F";
rightMetricsKey = "=|";
unicode = 0054;
},
{
glyphname = U;
lastChange = "2018-03-09 15:35:14 +0000";
layers = (
{
anchors = (
{
name = bottom;
position = "{431, 0}";
},
{
name = horn;
position = "{855, 752}";
},
{
name = ogonek;
position = "{556, 13}";
},
{
name = top;
position = "{424, 732}";
}
);
layerId = "67AEAADB-8447-4819-9D92-8BB76BD22042";
paths = (
{
closed = 1;
nodes = (
"553 747 LINE",
"702 747 LINE",
"702 299 LINE SMOOTH",
"702 115 OFFCURVE",
"633 -2 OFFCURVE",
"431 -2 CURVE SMOOTH",
"229 -2 OFFCURVE",
"161 115 OFFCURVE",
"161 299 CURVE SMOOTH",
"161 747 LINE",
"309 747 LINE",
"309 752 LINE",
"7 752 LINE",
"7 747 LINE",
"156 747 LINE",
"156 299 LINE SMOOTH",
"156 113 OFFCURVE",
"226 -7 OFFCURVE",
"431 -7 CURVE SMOOTH",
"636 -7 OFFCURVE",
"707 113 OFFCURVE",
"707 299 CURVE SMOOTH",
"707 747 LINE",
"855 747 LINE",
"855 752 LINE",
"553 752 LINE"
);
}
);
width = 862;
},
{
anchors = (
{
name = bottom;
position = "{422, 0}";
},
{
name = horn;
position = "{824, 772}";
},
{
name = ogonek;
position = "{587, 25}";
},
{
name = top;
position = "{422, 732}";
}
);
layerId = "BE4E587A-F76C-447B-AA28-A45E40876AAF";
leftMetricsKey = "=|J";
paths = (
{
closed = 1;
nodes = (
"491 565 LINE",
"546 565 LINE",
"546 327 LINE SMOOTH",
"546 254 OFFCURVE",
"506 207 OFFCURVE",
"435 207 CURVE SMOOTH",
"364 207 OFFCURVE",
"323 254 OFFCURVE",
"323 327 CURVE SMOOTH",
"323 565 LINE",
"378 565 LINE",
"378 772 LINE",
"10 772 LINE",
"10 565 LINE",
"65 565 LINE",
"65 329 LINE SMOOTH",
"65 123 OFFCURVE",
"200 -11 OFFCURVE",
"416 -11 CURVE SMOOTH",
"631 -11 OFFCURVE",
"754 123 OFFCURVE",
"754 329 CURVE SMOOTH",
"754 565 LINE",
"809 565 LINE",
"809 772 LINE",
"491 772 LINE"
);
}
);
width = 819;
},
{
anchors = (
{
name = bottom;
position = "{431, 0}";
},
{
name = horn;
position = "{841, 752}";
},
{
name = ogonek;
position = "{567, 14}";
},
{
name = top;
position = "{431, 732}";
}
);
layerId = "2C5E45D0-97E8-45AA-A5B2-946753DF54E1";
leftMetricsKey = "=|N-11";
rightMetricsKey = "=|";
paths = (
{
closed = 1;
nodes = (
"528 659 LINE",
"638 659 LINE",
"638 282 LINE SMOOTH",
"638 162 OFFCURVE",
"562 86 OFFCURVE",
"432 86 CURVE SMOOTH",
"304 86 OFFCURVE",
"233 162 OFFCURVE",
"233 282 CURVE SMOOTH",
"233 659 LINE",
"343 659 LINE",
"343 752 LINE",
"21 752 LINE",
"21 659 LINE",
"131 659 LINE",
"131 282 LINE SMOOTH",
"131 105 OFFCURVE",
"244 -11 OFFCURVE",
"431 -11 CURVE SMOOTH",
"618 -11 OFFCURVE",
"731 105 OFFCURVE",
"731 282 CURVE SMOOTH",
"731 659 LINE",
"841 659 LINE",
"841 752 LINE",
"528 752 LINE"
);
}
);
width = 862;
}
);
rightMetricsKey = "=|";
unicode = 0055;
},
{
glyphname = Uhorn;
lastChange = "2018-03-09 16:05:57 +0000";
layers = (
{
anchors = (
{
name = bottom;
position = "{431, 0}";
},
{
name = ogonek;
position = "{560, 14}";
},
{
name = top;
position = "{424, 732}";
}
);
layerId = "67AEAADB-8447-4819-9D92-8BB76BD22042";
paths = (
{
closed = 1;
nodes = (
"553 747 LINE",
"702 747 LINE",
"702 299 LINE SMOOTH",
"702 115 OFFCURVE",
"633 -2 OFFCURVE",
"431 -2 CURVE SMOOTH",
"229 -2 OFFCURVE",
"161 115 OFFCURVE",
"161 299 CURVE SMOOTH",
"161 747 LINE",
"309 747 LINE",
"309 752 LINE",
"7 752 LINE",
"7 747 LINE",
"156 747 LINE",
"156 299 LINE SMOOTH",
"156 113 OFFCURVE",
"226 -7 OFFCURVE",
"431 -7 CURVE SMOOTH",
"636 -7 OFFCURVE",
"707 113 OFFCURVE",
"707 299 CURVE SMOOTH",
"707 747 LINE",
"770 747 LINE",
"770 752 LINE",
"553 752 LINE"
);
},
{
closed = 1;
nodes = (
"850 874 LINE",
"850 835 LINE SMOOTH",
"850 779 OFFCURVE",
"824 752 OFFCURVE",
"770 752 CURVE",
"760 747 LINE",
"770 747 LINE SMOOTH",
"827 747 OFFCURVE",
"855 776 OFFCURVE",
"855 835 CURVE SMOOTH",
"855 874 LINE"
);
}
);
width = 862;
},
{
anchors = (
{
name = bottom;
position = "{422, 0}";
},
{
name = ogonek;
position = "{595, 23}";
},
{
name = top;
position = "{422, 732}";
}
);
layerId = "BE4E587A-F76C-447B-AA28-A45E40876AAF";
paths = (
{
closed = 1;
nodes = (
"491 565 LINE",
"546 565 LINE",
"546 327 LINE SMOOTH",
"546 254 OFFCURVE",
"506 207 OFFCURVE",
"435 207 CURVE SMOOTH",
"364 207 OFFCURVE",
"323 254 OFFCURVE",
"323 327 CURVE SMOOTH",
"323 565 LINE",
"378 565 LINE",
"378 772 LINE",
"10 772 LINE",
"10 565 LINE",
"65 565 LINE",
"65 329 LINE SMOOTH",
"65 123 OFFCURVE",
"200 -11 OFFCURVE",
"416 -11 CURVE SMOOTH",
"631 -11 OFFCURVE",
"754 123 OFFCURVE",
"754 329 CURVE SMOOTH",
"754 635 LINE",
"758 645 LINE",
"758 772 LINE",
"491 772 LINE"
);
},
{
closed = 1;
nodes = (
"706 888 LINE",
"706 818 LINE SMOOTH",
"706 782 OFFCURVE",
"691 772 OFFCURVE",
"663 772 CURVE",
"599 561 LINE",
"663 561 LINE SMOOTH",
"825 561 OFFCURVE",
"914 663 OFFCURVE",
"914 818 CURVE SMOOTH",
"914 888 LINE"
);
}
);
width = 924;
},
{
anchors = (
{
name = bottom;
position = "{431, 0}";
},
{
name = ogonek;
position = "{567, 14}";
},
{
name = top;
position = "{431, 732}";
}
);
associatedMasterId = "2C5E45D0-97E8-45AA-A5B2-946753DF54E1";
layerId = "5DA52768-140A-494D-9C52-F280FDEA028C";
name = "Mar 9 18, 10:25";
paths = (
{
closed = 1;
nodes = (
"519 659 LINE",
"629 659 LINE",
"629 282 LINE SMOOTH",
"629 164 OFFCURVE",
"557 89 OFFCURVE",
"431 89 CURVE SMOOTH",
"305 89 OFFCURVE",
"233 164 OFFCURVE",
"233 282 CURVE SMOOTH",
"233 659 LINE",
"343 659 LINE",
"343 752 LINE",
"21 752 LINE",
"21 659 LINE",
"131 659 LINE",
"131 282 LINE SMOOTH",
"131 105 OFFCURVE",
"244 -11 OFFCURVE",
"431 -11 CURVE SMOOTH",
"618 -11 OFFCURVE",
"731 105 OFFCURVE",
"731 282 CURVE SMOOTH",
"731 648 LINE",
"731 692 OFFCURVE",
"711 723 OFFCURVE",
"687 752 CURVE",
"519 752 LINE"
);
},
{
closed = 1;
nodes = (
"774 837 LINE",
"774 793 LINE SMOOTH",
"774 765 OFFCURVE",
"762 752 OFFCURVE",
"735 752 CURVE SMOOTH",
"633 752 LINE",
"630 699 LINE",
"705 739 LINE",
"733 700 OFFCURVE",
"755 685 OFFCURVE",
"787 685 CURVE SMOOTH",
"837 685 OFFCURVE",
"866 723 OFFCURVE",
"866 794 CURVE SMOOTH",
"866 837 LINE"
);
}
);
width = 887;
},
{
anchors = (
{
name = bottom;
position = "{431, 0}";
},
{
name = ogonek;
position = "{567, 14}";
},
{
name = top;
position = "{431, 732}";
}
);
layerId = "2C5E45D0-97E8-45AA-A5B2-946753DF54E1";
rightMetricsKey = "=U-6";
paths = (
{
closed = 1;
nodes = (
"519 659 LINE",
"629 659 LINE",
"629 282 LINE SMOOTH",
"629 164 OFFCURVE",
"557 89 OFFCURVE",
"431 89 CURVE SMOOTH",
"305 89 OFFCURVE",
"233 164 OFFCURVE",
"233 282 CURVE SMOOTH",
"233 659 LINE",
"343 659 LINE",
"343 752 LINE",
"21 752 LINE",
"21 659 LINE",
"131 659 LINE",
"131 282 LINE SMOOTH",
"131 105 OFFCURVE",
"244 -11 OFFCURVE",
"431 -11 CURVE SMOOTH",
"618 -11 OFFCURVE",
"731 105 OFFCURVE",
"731 282 CURVE SMOOTH",
"731 659 LINE",
"736 659 LINE",
"736 752 LINE",
"519 752 LINE"
);
},
{
closed = 1;
nodes = (
"777 880 LINE",
"777 793 LINE SMOOTH",
"777 761 OFFCURVE",
"762 752 OFFCURVE",
"736 752 CURVE",
"672 659 LINE",
"736 659 LINE SMOOTH",
"830 659 OFFCURVE",
"879 712 OFFCURVE",
"879 792 CURVE SMOOTH",
"879 880 LINE"
);
}
);
width = 894;
}
);
leftMetricsKey = U;
rightMetricsKey = U;
unicode = 01AF;
},
{
glyphname = V;
lastChange = "2018-02-27 18:04:16 +0000";
layers = (
{
layerId = "67AEAADB-8447-4819-9D92-8BB76BD22042";
paths = (
{
closed = 1;
nodes = (
"862 747 LINE",
"862 752 LINE",
"541 752 LINE",
"541 747 LINE",
"767 747 LINE",
"444 0 LINE",
"451 6 LINE",
"442 6 LINE",
"448 0 LINE",
"125 747 LINE",
"351 747 LINE",
"351 752 LINE",
"30 752 LINE",
"30 747 LINE",
"119 747 LINE",
"442 0 LINE",
"450 0 LINE",
"773 747 LINE"
);
}
);
width = 892;
},
{
layerId = "BE4E587A-F76C-447B-AA28-A45E40876AAF";
paths = (
{
closed = 1;
nodes = (
"824 565 LINE",
"824 772 LINE",
"481 772 LINE",
"481 565 LINE",
"557 565 LINE",
"408 82 LINE",
"498 211 LINE",
"400 211 LINE",
"490 82 LINE",
"341 565 LINE",
"417 565 LINE",
"417 772 LINE",
"8 772 LINE",
"8 565 LINE",
"55 565 LINE",
"260 0 LINE",
"572 0 LINE",
"777 565 LINE"
);
}
);
width = 832;
},
{
layerId = "2C5E45D0-97E8-45AA-A5B2-946753DF54E1";
paths = (
{
closed = 1;
nodes = (
"775 659 LINE",
"775 752 LINE",
"454 752 LINE",
"454 659 LINE",
"613 659 LINE",
"386 82 LINE",
"442 118 LINE",
"344 118 LINE",
"411 82 LINE",
"184 659 LINE",
"343 659 LINE",
"343 752 LINE",
"10 752 LINE",
"10 659 LINE",
"73 659 LINE",
"334 0 LINE",
"451 0 LINE",
"712 659 LINE"
);
}
);
width = 785;
},
{
associatedMasterId = "2C5E45D0-97E8-45AA-A5B2-946753DF54E1";
layerId = "AFE836BF-BED8-4873-A40F-41FB53FF2B31";
name = "Feb 23 18, 16:00";
paths = (
{
closed = 1;
nodes = (
"855 659 LINE",
"855 752 LINE",
"496 752 LINE",
"496 659 LINE",
"659 659 LINE",
"428 82 LINE",
"484 118 LINE",
"386 118 LINE",
"453 82 LINE",
"222 659 LINE",
"385 659 LINE",
"385 752 LINE",
"14 752 LINE",
"14 659 LINE",
"111 659 LINE",
"376 0 LINE",
"493 0 LINE",
"758 659 LINE"
);
}
);
width = 869;
}
);
leftMetricsKey = A;
rightMetricsKey = A;
unicode = 0056;
},
{
glyphname = W;
lastChange = "2018-02-27 18:04:18 +0000";
layers = (
{
anchors = (
{
name = top;
position = "{665, 732}";
}
);
layerId = "67AEAADB-8447-4819-9D92-8BB76BD22042";
paths = (
{
closed = 1;
nodes = (
"986 747 LINE",
"1190 747 LINE",
"934 0 LINE",
"940 8 LINE",
"932 8 LINE",
"938 0 LINE",
"669 747 LINE",
"837 747 LINE",
"837 752 LINE",
"493 752 LINE",
"493 747 LINE",
"661 747 LINE",
"390 0 LINE",
"397 8 LINE",
"388 8 LINE",
"394 0 LINE",
"139 747 LINE",
"343 747 LINE",
"343 752 LINE",
"30 752 LINE",
"30 747 LINE",
"133 747 LINE",
"388 0 LINE",
"396 0 LINE",
"667 747 LINE",
"661 739 LINE",
"669 739 LINE",
"663 747 LINE",
"932 0 LINE",
"940 0 LINE",
"1196 747 LINE",
"1299 747 LINE",
"1299 752 LINE",
"986 752 LINE"
);
}
);
width = 1329;
},
{
anchors = (
{
name = top;
position = "{654, 732}";
}
);
layerId = "BE4E587A-F76C-447B-AA28-A45E40876AAF";
paths = (
{
closed = 1;
nodes = (
"930 565 LINE",
"998 565 LINE",
"864 0 LINE",
"1013 257 LINE",
"845 257 LINE",
"1004 0 LINE",
"817 565 LINE",
"886 565 LINE",
"886 772 LINE",
"455 772 LINE",
"455 565 LINE",
"522 565 LINE",
"337 0 LINE",
"486 257 LINE",
"328 257 LINE",
"477 0 LINE",
"343 565 LINE",
"411 565 LINE",
"411 772 LINE",
"8 772 LINE",
"8 565 LINE",
"65 565 LINE",
"218 0 LINE",
"545 0 LINE",
"718 565 LINE",
"607 310 LINE",
"701 310 LINE",
"571 565 LINE",
"731 0 LINE",
"1056 0 LINE",
"1209 565 LINE",
"1266 565 LINE",
"1266 772 LINE",
"930 772 LINE"
);
}
);
width = 1274;
},
{
anchors = (
{
name = top;
position = "{600, 732}";
}
);
layerId = "2C5E45D0-97E8-45AA-A5B2-946753DF54E1";
paths = (
{
closed = 1;
nodes = (
"887 659 LINE",
"1026 659 LINE",
"806 0 LINE",
"891 122 LINE",
"793 122 LINE",
"885 0 LINE",
"664 659 LINE",
"772 659 LINE",
"772 752 LINE",
"432 752 LINE",
"432 659 LINE",
"546 659 LINE",
"322 0 LINE",
"407 122 LINE",
"309 122 LINE",
"400 0 LINE",
"184 659 LINE",
"314 659 LINE",
"314 752 LINE",
"10 752 LINE",
"10 659 LINE",
"72 659 LINE",
"296 0 LINE",
"421 0 LINE",
"641 659 LINE",
"553 531 LINE",
"647 531 LINE",
"560 659 LINE",
"777 0 LINE",
"904 0 LINE",
"1125 659 LINE",
"1187 659 LINE",
"1187 752 LINE",
"887 752 LINE"
);
}
);
width = 1197;
}
);
leftMetricsKey = V;
rightMetricsKey = V;
unicode = 0057;
},
{
glyphname = W.ss01;
lastChange = "2018-03-09 15:47:53 +0000";
layers = (
{
layerId = "67AEAADB-8447-4819-9D92-8BB76BD22042";
paths = (
{
closed = 1;
nodes = (
"916 747 LINE",
"1110 747 LINE",
"883 0 LINE",
"889 8 LINE",
"881 8 LINE",
"887 0 LINE",
"629 752 LINE",
"621 752 LINE",
"361 0 LINE",
"368 8 LINE",
"359 8 LINE",
"365 0 LINE",
"139 747 LINE",
"333 747 LINE",
"333 752 LINE",
"30 752 LINE",
"30 747 LINE",
"133 747 LINE",
"359 0 LINE",
"367 0 LINE",
"627 752 LINE",
"621 744 LINE",
"629 744 LINE",
"623 752 LINE",
"881 0 LINE",
"889 0 LINE",
"1116 747 LINE",
"1219 747 LINE",
"1219 752 LINE",
"916 752 LINE"
);
}
);
width = 1249;
},
{
layerId = "BE4E587A-F76C-447B-AA28-A45E40876AAF";
paths = (
{
closed = 1;
nodes = (
"892 565 LINE",
"956 565 LINE",
"836 0 LINE",
"985 257 LINE",
"817 257 LINE",
"976 0 LINE",
"799 772 LINE",
"498 772 LINE",
"323 0 LINE",
"472 257 LINE",
"314 257 LINE",
"463 0 LINE",
"343 565 LINE",
"407 565 LINE",
"407 772 LINE",
"8 772 LINE",
"8 565 LINE",
"65 565 LINE",
"204 0 LINE",
"531 0 LINE",
"694 772 LINE",
"583 517 LINE",
"677 517 LINE",
"547 772 LINE",
"697 0 LINE",
"1028 0 LINE",
"1167 565 LINE",
"1224 565 LINE",
"1224 772 LINE",
"892 772 LINE"
);
}
);
width = 1232;
},
{
layerId = "2C5E45D0-97E8-45AA-A5B2-946753DF54E1";
paths = (
{
closed = 1;
nodes = (
"857 659 LINE",
"996 659 LINE",
"801 0 LINE",
"886 122 LINE",
"788 122 LINE",
"880 0 LINE",
"650 752 LINE",
"530 752 LINE",
"297 0 LINE",
"382 122 LINE",
"284 122 LINE",
"375 0 LINE",
"184 659 LINE",
"314 659 LINE",
"314 752 LINE",
"10 752 LINE",
"10 659 LINE",
"72 659 LINE",
"271 0 LINE",
"396 0 LINE",
"625 752 LINE",
"537 624 LINE",
"631 624 LINE",
"544 752 LINE",
"770 0 LINE",
"899 0 LINE",
"1095 659 LINE",
"1157 659 LINE",
"1157 752 LINE",
"857 752 LINE"
);
}
);
width = 1167;
}
);
leftMetricsKey = V;
rightMetricsKey = V;
},
{
glyphname = X;
lastChange = "2018-02-27 21:07:30 +0000";
layers = (
{
layerId = "67AEAADB-8447-4819-9D92-8BB76BD22042";
paths = (
{
closed = 1;
nodes = (
"866 747 LINE",
"866 752 LINE",
"560 752 LINE",
"560 747 LINE",
"744 747 LINE",
"454 378 LINE",
"459 381 LINE",
"453 381 LINE",
"458 378 LINE",
"172 747 LINE",
"352 747 LINE",
"352 752 LINE",
"46 752 LINE",
"46 747 LINE",
"166 747 LINE",
"454 375 LINE",
"453 379 LINE",
"453 372 LINE",
"454 377 LINE",
"162 5 LINE",
"46 5 LINE",
"46 0 LINE",
"352 0 LINE",
"352 5 LINE",
"168 5 LINE",
"458 374 LINE",
"453 371 LINE",
"459 371 LINE",
"454 374 LINE",
"740 5 LINE",
"560 5 LINE",
"560 0 LINE",
"866 0 LINE",
"866 5 LINE",
"746 5 LINE",
"458 377 LINE",
"459 372 LINE",
"459 379 LINE",
"458 375 LINE",
"750 747 LINE"
);
}
);
width = 912;
},
{
layerId = "BE4E587A-F76C-447B-AA28-A45E40876AAF";
paths = (
{
closed = 1;
nodes = (
"836 565 LINE",
"836 772 LINE",
"460 772 LINE",
"460 565 LINE",
"522 565 LINE",
"403 421 LINE",
"496 480 LINE",
"400 480 LINE",
"493 421 LINE",
"377 565 LINE",
"432 565 LINE",
"432 772 LINE",
"16 772 LINE",
"16 565 LINE",
"46 565 LINE",
"286 297 LINE",
"220 436 LINE",
"220 340 LINE",
"325 469 LINE",
"60 207 LINE",
"16 207 LINE",
"16 0 LINE",
"392 0 LINE",
"392 207 LINE",
"330 207 LINE",
"449 351 LINE",
"356 292 LINE",
"452 292 LINE",
"359 351 LINE",
"475 207 LINE",
"420 207 LINE",
"420 0 LINE",
"836 0 LINE",
"836 207 LINE",
"806 207 LINE",
"566 475 LINE",
"632 336 LINE",
"632 432 LINE",
"527 303 LINE",
"792 565 LINE"
);
}
);
width = 852;
},
{
layerId = "2C5E45D0-97E8-45AA-A5B2-946753DF54E1";
leftMetricsKey = "=V+8";
rightMetricsKey = "=V+8";
paths = (
{
closed = 1;
nodes = (
"790 659 LINE",
"790 752 LINE",
"458 752 LINE",
"458 659 LINE",
"587 659 LINE",
"387 411 LINE",
"454 445 LINE",
"358 445 LINE",
"440 411 LINE",
"239 659 LINE",
"350 659 LINE",
"350 752 LINE",
"18 752 LINE",
"18 659 LINE",
"102 659 LINE",
"368 347 LINE",
"343 426 LINE",
"343 330 LINE",
"374 409 LINE",
"98 93 LINE",
"18 93 LINE",
"18 0 LINE",
"350 0 LINE",
"350 93 LINE",
"221 93 LINE",
"421 341 LINE",
"354 307 LINE",
"450 307 LINE",
"368 341 LINE",
"569 93 LINE",
"458 93 LINE",
"458 0 LINE",
"790 0 LINE",
"790 93 LINE",
"706 93 LINE",
"440 405 LINE",
"465 326 LINE",
"465 422 LINE",
"434 343 LINE",
"710 659 LINE"
);
}
);
width = 808;
}
);
leftMetricsKey = H;
rightMetricsKey = H;
unicode = 0058;
},
{
glyphname = Y;
lastChange = "2018-02-27 19:13:31 +0000";
layers = (
{
anchors = (
{
name = top;
position = "{459, 732}";
}
);
layerId = "67AEAADB-8447-4819-9D92-8BB76BD22042";
paths = (
{
closed = 1;
nodes = (
"888 747 LINE",
"888 752 LINE",
"583 752 LINE",
"583 747 LINE",
"776 747 LINE",
"457 355 LINE",
"464 359 LINE",
"455 359 LINE",
"462 355 LINE",
"142 747 LINE",
"335 747 LINE",
"335 752 LINE",
"30 752 LINE",
"30 747 LINE",
"136 747 LINE",
"458 352 LINE",
"461 352 LINE",
"782 747 LINE"
);
},
{
closed = 1;
nodes = (
"457 357 LINE",
"457 5 LINE",
"308 5 LINE",
"308 0 LINE",
"610 0 LINE",
"610 5 LINE",
"462 5 LINE",
"462 357 LINE"
);
}
);
width = 918;
},
{
anchors = (
{
name = top;
position = "{423, 752}";
}
);
layerId = "BE4E587A-F76C-447B-AA28-A45E40876AAF";
paths = (
{
closed = 1;
nodes = (
"818 565 LINE",
"818 772 LINE",
"467 772 LINE",
"467 565 LINE",
"533 565 LINE",
"385 376 LINE",
"492 411 LINE",
"394 411 LINE",
"501 376 LINE",
"353 565 LINE",
"419 565 LINE",
"419 772 LINE",
"8 772 LINE",
"8 565 LINE",
"52 565 LINE",
"289 284 LINE",
"537 284 LINE",
"774 565 LINE"
);
},
{
closed = 1;
nodes = (
"284 389 LINE",
"284 207 LINE",
"229 207 LINE",
"229 0 LINE",
"597 0 LINE",
"597 207 LINE",
"542 207 LINE",
"542 389 LINE"
);
}
);
width = 826;
},
{
anchors = (
{
name = top;
position = "{365, 732}";
}
);
layerId = "2C5E45D0-97E8-45AA-A5B2-946753DF54E1";
paths = (
{
closed = 1;
nodes = (
"720 659 LINE",
"720 752 LINE",
"419 752 LINE",
"419 659 LINE",
"550 659 LINE",
"347 380 LINE",
"414 417 LINE",
"316 417 LINE",
"397 380 LINE",
"194 659 LINE",
"311 659 LINE",
"311 752 LINE",
"10 752 LINE",
"10 659 LINE",
"65 659 LINE",
"316 322 LINE",
"414 322 LINE",
"665 659 LINE"
);
},
{
closed = 1;
nodes = (
"314 397 LINE",
"314 93 LINE",
"204 93 LINE",
"204 0 LINE",
"526 0 LINE",
"526 93 LINE",
"416 93 LINE",
"416 397 LINE"
);
}
);
width = 730;
}
);
leftMetricsKey = A;
rightMetricsKey = A;
unicode = 0059;
},
{
glyphname = Z;
lastChange = "2018-02-27 21:07:30 +0000";
layers = (
{
anchors = (
{
name = top;
position = "{321, 732}";
}
);
layerId = "67AEAADB-8447-4819-9D92-8BB76BD22042";
leftMetricsKey = "=H-16";
paths = (
{
closed = 1;
nodes = (
"37 3 LINE",
"37 6 LINE",
"612 747 LINE",
"605 750 LINE",
"605 746 LINE",
"30 5 LINE"
);
},
{
closed = 1;
nodes = (
"49 752 LINE",
"49 565 LINE",
"54 565 LINE",
"54 747 LINE",
"612 747 LINE",
"612 752 LINE"
);
},
{
closed = 1;
nodes = (
"596 5 LINE",
"30 5 LINE",
"30 0 LINE",
"601 0 LINE",
"601 187 LINE",
"596 187 LINE"
);
}
);
width = 642;
},
{
anchors = (
{
name = top;
position = "{381, 772}";
}
);
layerId = "BE4E587A-F76C-447B-AA28-A45E40876AAF";
paths = (
{
closed = 1;
nodes = (
"369 154 LINE",
"369 186 LINE",
"743 590 LINE",
"382 615 LINE",
"382 586 LINE",
"8 182 LINE"
);
},
{
closed = 1;
nodes = (
"19 772 LINE",
"19 500 LINE",
"266 500 LINE",
"266 590 LINE",
"743 590 LINE",
"743 772 LINE"
);
},
{
closed = 1;
nodes = (
"499 182 LINE",
"8 182 LINE",
"8 0 LINE",
"746 0 LINE",
"746 272 LINE",
"499 272 LINE"
);
}
);
width = 754;
},
{
anchors = (
{
name = top;
position = "{341, 732}";
}
);
layerId = "2C5E45D0-97E8-45AA-A5B2-946753DF54E1";
leftMetricsKey = "=H-10";
rightMetricsKey = "=H-10";
paths = (
{
closed = 1;
nodes = (
"177 65 LINE",
"177 97 LINE",
"627 659 LINE",
"492 684 LINE",
"492 655 LINE",
"42 93 LINE"
);
},
{
closed = 1;
nodes = (
"54 752 LINE",
"54 525 LINE",
"156 525 LINE",
"156 659 LINE",
"627 659 LINE",
"627 752 LINE"
);
},
{
closed = 1;
nodes = (
"538 93 LINE",
"42 93 LINE",
"42 0 LINE",
"640 0 LINE",
"640 227 LINE",
"538 227 LINE"
);
}
);
width = 682;
}
);
leftMetricsKey = "=H-8";
rightMetricsKey = "=|";
unicode = 005A;
},
{
color = 1;
glyphname = a;
lastChange = "2018-03-07 23:21:58 +0000";
layers = (
{
anchors = (
{
name = bottom;
position = "{290, 0}";
},
{
name = ogonek;
position = "{574, 0}";
},
{
name = top;
position = "{290, 524}";
}
);
layerId = "67AEAADB-8447-4819-9D92-8BB76BD22042";
leftMetricsKey = "=o+8";
paths = (
{
closed = 1;
nodes = (
"574 0 LINE",
"574 5 LINE",
"487 5 LINE",
"487 365 LINE SMOOTH",
"487 490 OFFCURVE",
"408 531 OFFCURVE",
"290 531 CURVE SMOOTH",
"174 531 OFFCURVE",
"117 486 OFFCURVE",
"87 393 CURVE",
"92 391 LINE",
"121 483 OFFCURVE",
"177 526 OFFCURVE",
"290 526 CURVE SMOOTH",
"405 526 OFFCURVE",
"482 487 OFFCURVE",
"482 365 CURVE SMOOTH",
"482 301 LINE",
"482 279 LINE",
"482 247 LINE",
"482 240 LINE",
"482 4 LINE SMOOTH",
"482 1 OFFCURVE",
"483 0 OFFCURVE",
"486 0 CURVE SMOOTH"
);
},
{
closed = 1;
nodes = (
"370 -7 OFFCURVE",
"464 75 OFFCURVE",
"481 235 CURVE",
"485 235 LINE",
"482 304 LINE",
"482 75 OFFCURVE",
"363 -2 OFFCURVE",
"221 -2 CURVE SMOOTH",
"120 -2 OFFCURVE",
"67 38 OFFCURVE",
"67 118 CURVE SMOOTH",
"67 207 OFFCURVE",
"119 242 OFFCURVE",
"218 264 CURVE SMOOTH",
"484 324 LINE",
"484 329 LINE",
"218 269 LINE SMOOTH",
"116 246 OFFCURVE",
"62 210 OFFCURVE",
"62 118 CURVE SMOOTH",
"62 35 OFFCURVE",
"117 -7 OFFCURVE",
"221 -7 CURVE SMOOTH"
);
}
);
width = 591;
},
{
anchors = (
{
name = bottom;
position = "{360, 0}";
},
{
name = ogonek;
position = "{697, 0}";
},
{
name = top;
position = "{360, 580}";
}
);
layerId = "BE4E587A-F76C-447B-AA28-A45E40876AAF";
leftMetricsKey = "=o-1";
rightMetricsKey = "=n";
paths = (
{
closed = 1;
nodes = (
"697 0 LINE",
"697 204 LINE",
"647 204 LINE",
"647 384 LINE SMOOTH",
"647 543 OFFCURVE",
"532 596 OFFCURVE",
"360 596 CURVE SMOOTH",
"140 596 OFFCURVE",
"53 505 OFFCURVE",
"36 376 CURVE",
"263 349 LINE",
"272 384 OFFCURVE",
"301 394 OFFCURVE",
"331 394 CURVE SMOOTH",
"363 394 OFFCURVE",
"393 382 OFFCURVE",
"393 341 CURVE SMOOTH",
"393 289 LINE",
"399 263 LINE",
"407 207 LINE",
"393 187 LINE",
"393 92 LINE SMOOTH",
"393 33 OFFCURVE",
"426 0 OFFCURVE",
"484 0 CURVE SMOOTH"
);
},
{
closed = 1;
nodes = (
"300 -15 OFFCURVE",
"373 41 OFFCURVE",
"388 165 CURVE",
"422 165 LINE",
"399 263 LINE",
"399 188 OFFCURVE",
"359 164 OFFCURVE",
"324 164 CURVE SMOOTH",
"297 164 OFFCURVE",
"279 177 OFFCURVE",
"279 201 CURVE SMOOTH",
"279 224 OFFCURVE",
"295 241 OFFCURVE",
"335 246 CURVE SMOOTH",
"420 259 LINE",
"420 343 LINE",
"238 316 LINE SMOOTH",
"92 295 OFFCURVE",
"13 249 OFFCURVE",
"13 141 CURVE SMOOTH",
"13 47 OFFCURVE",
"72 -15 OFFCURVE",
"193 -15 CURVE SMOOTH"
);
}
);
width = 705;
},
{
associatedMasterId = "67AEAADB-8447-4819-9D92-8BB76BD22042";
layerId = "0D7E86CE-FED3-435B-B54D-A186B31830C4";
name = Serif;
paths = (
{
closed = 1;
nodes = (
"511 -7 LINE",
"511 113 LINE",
"459 113 LINE",
"459 305 LINE SMOOTH",
"459 424 OFFCURVE",
"396 464 OFFCURVE",
"311 464 CURVE SMOOTH",
"226 464 OFFCURVE",
"187 424 OFFCURVE",
"178 376 CURVE",
"159 376 LINE",
"174 283 LINE",
"183 335 OFFCURVE",
"211 350 OFFCURVE",
"245 350 CURVE SMOOTH",
"282 350 OFFCURVE",
"319 337 OFFCURVE",
"319 296 CURVE SMOOTH",
"319 239 LINE",
"324 214 LINE",
"331 172 LINE",
"319 155 LINE",
"319 48 LINE SMOOTH",
"319 13 OFFCURVE",
"339 -7 OFFCURVE",
"374 -7 CURVE SMOOTH"
);
},
{
closed = 1;
nodes = (
"244 -13 OFFCURVE",
"301 28 OFFCURVE",
"315 118 CURVE",
"343 118 LINE",
"324 214 LINE",
"324 132 OFFCURVE",
"279 104 OFFCURVE",
"240 104 CURVE SMOOTH",
"212 104 OFFCURVE",
"190 119 OFFCURVE",
"190 145 CURVE SMOOTH",
"190 171 OFFCURVE",
"212 188 OFFCURVE",
"235 193 CURVE SMOOTH",
"341 218 LINE",
"341 283 LINE",
"168 248 LINE SMOOTH",
"93 233 OFFCURVE",
"35 197 OFFCURVE",
"35 108 CURVE SMOOTH",
"35 33 OFFCURVE",
"77 -13 OFFCURVE",
"163 -13 CURVE SMOOTH"
);
},
{
closed = 1;
nodes = (
"174 283 LINE",
"174 453 LINE",
"54 453 LINE",
"54 283 LINE"
);
}
);
width = 534;
},
{
anchors = (
{
name = bottom;
position = "{295, 0}";
},
{
name = ogonek;
position = "{587, 0}";
},
{
name = top;
position = "{295, 536}";
}
);
layerId = "2C5E45D0-97E8-45AA-A5B2-946753DF54E1";
leftMetricsKey = "=o+12";
rightMetricsKey = "=n+16";
paths = (
{
closed = 1;
nodes = (
"587 0 LINE",
"587 84 LINE",
"514 84 LINE",
"514 362 LINE SMOOTH",
"514 486 OFFCURVE",
"443 547 OFFCURVE",
"298 547 CURVE SMOOTH",
"162 547 OFFCURVE",
"86 493 OFFCURVE",
"68 383 CURVE",
"162 364 LINE",
"174 426 OFFCURVE",
"218 457 OFFCURVE",
"294 457 CURVE SMOOTH",
"374 457 OFFCURVE",
"416 422 OFFCURVE",
"416 356 CURVE SMOOTH",
"416 317 LINE",
"420 280 LINE",
"425 218 LINE",
"416 198 LINE",
"416 67 LINE SMOOTH",
"416 24 OFFCURVE",
"436 0 OFFCURVE",
"473 0 CURVE SMOOTH"
);
},
{
closed = 1;
nodes = (
"334 -7 OFFCURVE",
"397 50 OFFCURVE",
"412 162 CURVE",
"446 162 LINE",
"420 280 LINE",
"420 159 OFFCURVE",
"348 77 OFFCURVE",
"243 77 CURVE SMOOTH",
"186 77 OFFCURVE",
"156 102 OFFCURVE",
"156 150 CURVE SMOOTH",
"156 193 OFFCURVE",
"180 218 OFFCURVE",
"232 230 CURVE SMOOTH",
"445 278 LINE",
"445 347 LINE",
"216 300 LINE SMOOTH",
"100 276 OFFCURVE",
"54 232 OFFCURVE",
"54 144 CURVE SMOOTH",
"54 45 OFFCURVE",
"114 -7 OFFCURVE",
"227 -7 CURVE SMOOTH"
);
}
);
width = 618;
},
{
anchors = (
{
name = top;
position = "{295, 536}";
}
);
associatedMasterId = "2C5E45D0-97E8-45AA-A5B2-946753DF54E1";
layerId = "3B3BEB8A-E073-43AE-BA7D-711103F3C888";
leftMetricsKey = "=o+12";
rightMetricsKey = "=n+16";
name = Serif;
paths = (
{
closed = 1;
nodes = (
"587 0 LINE",
"587 84 LINE",
"514 84 LINE",
"514 365 LINE SMOOTH",
"514 502 OFFCURVE",
"428 547 OFFCURVE",
"322 547 CURVE SMOOTH",
"209 547 OFFCURVE",
"173 496 OFFCURVE",
"165 419 CURVE",
"115 419 LINE",
"161 348 LINE",
"176 432 OFFCURVE",
"228 457 OFFCURVE",
"295 457 CURVE SMOOTH",
"358 457 OFFCURVE",
"416 433 OFFCURVE",
"416 356 CURVE SMOOTH",
"416 317 LINE",
"420 280 LINE",
"425 218 LINE",
"416 198 LINE",
"416 67 LINE SMOOTH",
"416 22 OFFCURVE",
"438 0 OFFCURVE",
"473 0 CURVE SMOOTH"
);
},
{
closed = 1;
nodes = (
"331 -7 OFFCURVE",
"396 46 OFFCURVE",
"412 162 CURVE",
"446 162 LINE",
"420 280 LINE",
"420 128 OFFCURVE",
"321 77 OFFCURVE",
"243 77 CURVE SMOOTH",
"192 77 OFFCURVE",
"156 97 OFFCURVE",
"156 151 CURVE SMOOTH",
"156 197 OFFCURVE",
"185 219 OFFCURVE",
"232 230 CURVE SMOOTH",
"445 278 LINE",
"445 347 LINE",
"216 300 LINE SMOOTH",
"111 278 OFFCURVE",
"54 240 OFFCURVE",
"54 146 CURVE SMOOTH",
"54 45 OFFCURVE",
"114 -7 OFFCURVE",
"227 -7 CURVE SMOOTH"
);
},
{
closed = 1;
nodes = (
"161 348 LINE",
"161 536 LINE",
"63 536 LINE",
"63 348 LINE"
);
}
);
width = 618;
},
{
anchors = (
{
name = bottom;
position = "{296, 0}";
},
{
name = ogonek;
position = "{580, 0}";
},
{
name = top;
position = "{296, 524}";
}
);
associatedMasterId = "67AEAADB-8447-4819-9D92-8BB76BD22042";
layerId = "1D059439-29F9-4FCE-B57B-5DA818D869EC";
leftMetricsKey = "=o+8";
name = "Feb 26 18, 18:02";
paths = (
{
closed = 1;
nodes = (
"580 0 LINE",
"580 5 LINE",
"493 5 LINE",
"493 365 LINE SMOOTH",
"493 490 OFFCURVE",
"414 531 OFFCURVE",
"296 531 CURVE SMOOTH",
"180 531 OFFCURVE",
"123 487 OFFCURVE",
"93 393 CURVE",
"98 391 LINE",
"127 483 OFFCURVE",
"183 526 OFFCURVE",
"296 526 CURVE SMOOTH",
"411 526 OFFCURVE",
"488 487 OFFCURVE",
"488 365 CURVE SMOOTH",
"488 301 LINE",
"488 279 LINE",
"488 216 LINE",
"488 198 LINE",
"488 4 LINE SMOOTH",
"488 1 OFFCURVE",
"489 0 OFFCURVE",
"492 0 CURVE SMOOTH"
);
},
{
closed = 1;
nodes = (
"376 -7 OFFCURVE",
"470 75 OFFCURVE",
"487 235 CURVE",
"491 235 LINE",
"488 304 LINE",
"488 75 OFFCURVE",
"369 -2 OFFCURVE",
"227 -2 CURVE SMOOTH",
"126 -2 OFFCURVE",
"73 39 OFFCURVE",
"73 118 CURVE SMOOTH",
"73 204 OFFCURVE",
"125 242 OFFCURVE",
"224 264 CURVE SMOOTH",
"490 324 LINE",
"490 329 LINE",
"224 269 LINE SMOOTH",
"122 246 OFFCURVE",
"68 210 OFFCURVE",
"68 118 CURVE SMOOTH",
"68 35 OFFCURVE",
"123 -7 OFFCURVE",
"227 -7 CURVE SMOOTH"
);
}
);
width = 615;
},
{
anchors = (
{
name = bottom;
position = "{290, 0}";
},
{
name = ogonek;
position = "{574, 0}";
},
{
name = top;
position = "{290, 524}";
}
);
associatedMasterId = "67AEAADB-8447-4819-9D92-8BB76BD22042";
layerId = "15FF914C-581F-42CF-8E2C-C59F8A82ECE1";
leftMetricsKey = "=o+8";
name = "Light [6]";
paths = (
{
closed = 1;
nodes = (
"574 0 LINE",
"574 5 LINE",
"487 5 LINE",
"487 365 LINE SMOOTH",
"487 490 OFFCURVE",
"408 531 OFFCURVE",
"290 531 CURVE SMOOTH",
"174 531 OFFCURVE",
"117 486 OFFCURVE",
"87 393 CURVE",
"92 391 LINE",
"121 483 OFFCURVE",
"177 526 OFFCURVE",
"290 526 CURVE SMOOTH",
"405 526 OFFCURVE",
"482 487 OFFCURVE",
"482 365 CURVE SMOOTH",
"482 301 LINE",
"482 279 LINE",
"482 247 LINE",
"482 240 LINE",
"482 4 LINE SMOOTH",
"482 1 OFFCURVE",
"483 0 OFFCURVE",
"486 0 CURVE SMOOTH"
);
},
{
closed = 1;
nodes = (
"368 -7 OFFCURVE",
"459 80 OFFCURVE",
"481 198 CURVE",
"485 198 LINE",
"482 304 LINE",
"482 75 OFFCURVE",
"363 -2 OFFCURVE",
"221 -2 CURVE SMOOTH",
"120 -2 OFFCURVE",
"67 38 OFFCURVE",
"67 118 CURVE SMOOTH",
"67 207 OFFCURVE",
"119 242 OFFCURVE",
"218 264 CURVE SMOOTH",
"484 324 LINE",
"484 329 LINE",
"218 269 LINE SMOOTH",
"116 246 OFFCURVE",
"62 210 OFFCURVE",
"62 118 CURVE SMOOTH",
"62 35 OFFCURVE",
"117 -7 OFFCURVE",
"221 -7 CURVE SMOOTH"
);
}
);
width = 591;
}
);
leftMetricsKey = "=o+8";
rightMetricsKey = n;
unicode = 0061;
},
{
glyphname = a.ss02;
lastChange = "2018-03-07 16:34:42 +0000";
layers = (
{
anchors = (
{
name = top;
position = "{330, 524}";
}
);
components = (
{
name = "bowl-thick";
transform = "{-1, 0, 0, -1, 636, 524}";
}
);
layerId = "67AEAADB-8447-4819-9D92-8BB76BD22042";
leftMetricsKey = "=d";
rightMetricsKey = "=n+2";
paths = (
{
closed = 1;
nodes = (
"669 0 LINE",
"669 5 LINE",
"582 5 LINE",
"582 524 LINE",
"577 524 LINE",
"577 322 LINE",
"577 314 LINE",
"578 282 LINE",
"578 243 LINE",
"577 219 LINE",
"577 4 LINE SMOOTH",
"577 1 OFFCURVE",
"578 0 OFFCURVE",
"581 0 CURVE SMOOTH"
);
}
);
width = 688;
},
{
anchors = (
{
name = top;
position = "{332, 536}";
}
);
components = (
{
name = "bowl-thick";
transform = "{-1, 0, 0, -1, 633, 580}";
}
);
layerId = "BE4E587A-F76C-447B-AA28-A45E40876AAF";
rightMetricsKey = "=n+2";
paths = (
{
closed = 1;
nodes = (
"744 0 LINE",
"744 204 LINE",
"694 204 LINE",
"694 590 LINE",
"684 590 LINE",
"440 404 LINE",
"458 371 LINE",
"443 331 LINE",
"443 244 LINE",
"440 227 LINE",
"440 92 LINE SMOOTH",
"440 33 OFFCURVE",
"473 0 OFFCURVE",
"531 0 CURVE SMOOTH"
);
}
);
width = 754;
},
{
associatedMasterId = "67AEAADB-8447-4819-9D92-8BB76BD22042";
layerId = "0D7E86CE-FED3-435B-B54D-A186B31830C4";
name = Serif;
paths = (
{
closed = 1;
nodes = (
"511 -7 LINE",
"511 113 LINE",
"459 113 LINE",
"459 305 LINE SMOOTH",
"459 424 OFFCURVE",
"396 464 OFFCURVE",
"311 464 CURVE SMOOTH",
"226 464 OFFCURVE",
"187 424 OFFCURVE",
"178 376 CURVE",
"159 376 LINE",
"174 283 LINE",
"183 335 OFFCURVE",
"211 350 OFFCURVE",
"245 350 CURVE SMOOTH",
"282 350 OFFCURVE",
"319 337 OFFCURVE",
"319 296 CURVE SMOOTH",
"319 239 LINE",
"324 214 LINE",
"331 172 LINE",
"319 155 LINE",
"319 48 LINE SMOOTH",
"319 13 OFFCURVE",
"339 -7 OFFCURVE",
"374 -7 CURVE SMOOTH"
);
},
{
closed = 1;
nodes = (
"244 -13 OFFCURVE",
"301 28 OFFCURVE",
"315 118 CURVE",
"343 118 LINE",
"324 214 LINE",
"324 132 OFFCURVE",
"279 104 OFFCURVE",
"240 104 CURVE SMOOTH",
"212 104 OFFCURVE",
"190 119 OFFCURVE",
"190 145 CURVE SMOOTH",
"190 171 OFFCURVE",
"212 188 OFFCURVE",
"235 193 CURVE SMOOTH",
"341 218 LINE",
"341 283 LINE",
"168 248 LINE SMOOTH",
"93 233 OFFCURVE",
"35 197 OFFCURVE",
"35 108 CURVE SMOOTH",
"35 33 OFFCURVE",
"77 -13 OFFCURVE",
"163 -13 CURVE SMOOTH"
);
},
{
closed = 1;
nodes = (
"174 283 LINE",
"174 453 LINE",
"54 453 LINE",
"54 283 LINE"
);
}
);
width = 534;
},
{
anchors = (
{
name = top;
position = "{289, 536}";
}
);
associatedMasterId = "2C5E45D0-97E8-45AA-A5B2-946753DF54E1";
layerId = "96025320-AAD0-4ED1-B37C-9B770305D1B9";
leftMetricsKey = "=d";
rightMetricsKey = "=|n";
name = "Jan 2 18, 22:23";
paths = (
{
closed = 1;
nodes = (
"404 -10 OFFCURVE",
"465 52 OFFCURVE",
"485 144 CURVE",
"508 144 LINE",
"492 270 LINE",
"492 156 OFFCURVE",
"428 78 OFFCURVE",
"320 78 CURVE SMOOTH",
"217 78 OFFCURVE",
"148 156 OFFCURVE",
"148 270 CURVE SMOOTH",
"148 382 OFFCURVE",
"212 459 OFFCURVE",
"320 459 CURVE SMOOTH",
"430 459 OFFCURVE",
"492 381 OFFCURVE",
"492 270 CURVE",
"540 355 LINE",
"509 473 OFFCURVE",
"426 546 OFFCURVE",
"309 546 CURVE SMOOTH",
"149 546 OFFCURVE",
"48 432 OFFCURVE",
"48 270 CURVE SMOOTH",
"48 106 OFFCURVE",
"152 -10 OFFCURVE",
"298 -10 CURVE SMOOTH"
);
},
{
closed = 1;
nodes = (
"660 452 LINE",
"660 536 LINE",
"489 536 LINE",
"489 399 LINE",
"492 270 LINE",
"493 237 LINE",
"489 200 LINE",
"489 67 LINE SMOOTH",
"489 22 OFFCURVE",
"511 0 OFFCURVE",
"546 0 CURVE SMOOTH",
"660 0 LINE",
"660 84 LINE",
"587 84 LINE",
"587 452 LINE"
);
}
);
width = 692;
},
{
anchors = (
{
name = top;
position = "{289, 536}";
}
);
components = (
{
name = "bowl-thick";
transform = "{-1, 0, 0, -1, 605, 536}";
}
);
layerId = "2C5E45D0-97E8-45AA-A5B2-946753DF54E1";
leftMetricsKey = "=d";
rightMetricsKey = "=n+2";
paths = (
{
closed = 1;
nodes = (
"660 0 LINE",
"660 84 LINE",
"587 84 LINE",
"587 551 LINE",
"583 551 LINE",
"489 452 LINE",
"489 399 LINE",
"492 300 LINE",
"492 237 LINE",
"489 200 LINE",
"489 67 LINE SMOOTH",
"489 22 OFFCURVE",
"511 0 OFFCURVE",
"546 0 CURVE SMOOTH"
);
}
);
width = 677;
}
);
leftMetricsKey = d;
rightMetricsKey = n;
},
{
color = 3;
glyphname = ae;
lastChange = "2018-03-11 20:38:33 +0000";
layers = (
{
anchors = (
{
name = top;
position = "{525, 524}";
}
);
layerId = "67AEAADB-8447-4819-9D92-8BB76BD22042";
paths = (
{
closed = 1;
nodes = (
"855 -8 OFFCURVE",
"938 49 OFFCURVE",
"979 141 CURVE",
"974 143 LINE",
"933 53 OFFCURVE",
"852 -3 OFFCURVE",
"750 -3 CURVE SMOOTH",
"608 -3 OFFCURVE",
"507 106 OFFCURVE",
"507 261 CURVE SMOOTH",
"507 419 OFFCURVE",
"606 527 OFFCURVE",
"749 527 CURVE SMOOTH",
"887 527 OFFCURVE",
"983 423 OFFCURVE",
"983 270 CURVE SMOOTH",
"983 268 OFFCURVE",
"983 265 OFFCURVE",
"983 263 CURVE",
"988 263 LINE",
"988 265 OFFCURVE",
"988 268 OFFCURVE",
"988 270 CURVE SMOOTH",
"988 424 OFFCURVE",
"892 532 OFFCURVE",
"749 532 CURVE SMOOTH",
"606 532 OFFCURVE",
"520 425 OFFCURVE",
"508 311 CURVE",
"505 311 LINE",
"502 261 LINE",
"502 103 OFFCURVE",
"603 -8 OFFCURVE",
"750 -8 CURVE SMOOTH"
);
},
{
closed = 1;
nodes = (
"381 -7 OFFCURVE",
"486 77 OFFCURVE",
"501 243 CURVE",
"505 243 LINE",
"502 304 LINE",
"502 75 OFFCURVE",
"374 -2 OFFCURVE",
"221 -2 CURVE SMOOTH",
"120 -2 OFFCURVE",
"67 39 OFFCURVE",
"67 118 CURVE SMOOTH",
"67 204 OFFCURVE",
"119 242 OFFCURVE",
"218 264 CURVE SMOOTH",
"504 324 LINE",
"504 329 LINE",
"218 269 LINE SMOOTH",
"116 246 OFFCURVE",
"62 210 OFFCURVE",
"62 118 CURVE SMOOTH",
"62 35 OFFCURVE",
"117 -7 OFFCURVE",
"221 -7 CURVE SMOOTH"
);
},
{
closed = 1;
nodes = (
"507 365 LINE SMOOTH",
"507 490 OFFCURVE",
"424 531 OFFCURVE",
"300 531 CURVE SMOOTH",
"178 531 OFFCURVE",
"118 487 OFFCURVE",
"87 393 CURVE",
"92 391 LINE",
"122 483 OFFCURVE",
"181 526 OFFCURVE",
"300 526 CURVE SMOOTH",
"421 526 OFFCURVE",
"502 487 OFFCURVE",
"502 365 CURVE SMOOTH",
"502 326 LINE",
"502 304 LINE",
"502 279 LINE",
"507 279 LINE"
);
},
{
closed = 1;
nodes = (
"986 263 LINE",
"986 268 LINE",
"505 268 LINE",
"505 263 LINE"
);
}
);
width = 1038;
},
{
anchors = (
{
name = top;
position = "{493, 536}";
}
);
layerId = "2C5E45D0-97E8-45AA-A5B2-946753DF54E1";
paths = (
{
closed = 1;
nodes = (
"797 -10 OFFCURVE",
"882 42 OFFCURVE",
"926 126 CURVE",
"835 161 LINE",
"806 110 OFFCURVE",
"754 78 OFFCURVE",
"691 78 CURVE SMOOTH",
"586 78 OFFCURVE",
"523 156 OFFCURVE",
"523 266 CURVE SMOOTH",
"523 380 OFFCURVE",
"588 458 OFFCURVE",
"685 458 CURVE SMOOTH",
"786 458 OFFCURVE",
"844 380 OFFCURVE",
"844 273 CURVE SMOOTH",
"844 256 OFFCURVE",
"843 245 OFFCURVE",
"842 235 CURVE",
"940 235 LINE",
"941 245 OFFCURVE",
"941 256 OFFCURVE",
"941 266 CURVE SMOOTH",
"941 431 OFFCURVE",
"832 546 OFFCURVE",
"699 546 CURVE SMOOTH",
"596 546 OFFCURVE",
"547 479 OFFCURVE",
"527 377 CURVE",
"512 377 LINE",
"427 220 LINE",
"445 82 OFFCURVE",
"543 -10 OFFCURVE",
"691 -10 CURVE SMOOTH"
);
},
{
closed = 1;
nodes = (
"343 -7 OFFCURVE",
"416 49 OFFCURVE",
"434 172 CURVE",
"468 172 LINE",
"429 280 LINE",
"429 128 OFFCURVE",
"325 77 OFFCURVE",
"243 77 CURVE SMOOTH",
"192 77 OFFCURVE",
"156 97 OFFCURVE",
"156 151 CURVE SMOOTH",
"156 197 OFFCURVE",
"185 221 OFFCURVE",
"232 231 CURVE SMOOTH",
"454 278 LINE",
"454 347 LINE",
"216 301 LINE SMOOTH",
"111 281 OFFCURVE",
"54 240 OFFCURVE",
"54 146 CURVE SMOOTH",
"54 45 OFFCURVE",
"114 -7 OFFCURVE",
"227 -7 CURVE SMOOTH"
);
},
{
closed = 1;
nodes = (
"523 362 LINE SMOOTH",
"523 501 OFFCURVE",
"437 547 OFFCURVE",
"307 547 CURVE SMOOTH",
"149 547 OFFCURVE",
"84 468 OFFCURVE",
"72 378 CURVE",
"160 359 LINE",
"177 435 OFFCURVE",
"233 457 OFFCURVE",
"299 457 CURVE SMOOTH",
"368 457 OFFCURVE",
"425 432 OFFCURVE",
"425 351 CURVE",
"425 331 LINE",
"429 280 LINE",
"434 214 LINE",
"523 214 LINE"
);
},
{
closed = 1;
nodes = (
"940 235 LINE",
"910 309 LINE",
"486 309 LINE",
"486 235 LINE"
);
}
);
width = 980;
},
{
anchors = (
{
name = top;
position = "{526, 580}";
}
);
layerId = "BE4E587A-F76C-447B-AA28-A45E40876AAF";
paths = (
{
closed = 1;
nodes = (
"888 -14 OFFCURVE",
"1004 58 OFFCURVE",
"1049 177 CURVE",
"802 234 LINE",
"788 216 OFFCURVE",
"763 204 OFFCURVE",
"731 204 CURVE SMOOTH",
"678 204 OFFCURVE",
"645 239 OFFCURVE",
"645 290 CURVE SMOOTH",
"645 355 OFFCURVE",
"677 391 OFFCURVE",
"727 391 CURVE SMOOTH",
"776 391 OFFCURVE",
"807 357 OFFCURVE",
"807 295 CURVE SMOOTH",
"807 281 OFFCURVE",
"807 266 OFFCURVE",
"806 252 CURVE",
"1056 252 LINE",
"1056 265 OFFCURVE",
"1056 277 OFFCURVE",
"1056 290 CURVE SMOOTH",
"1056 472 OFFCURVE",
"926 594 OFFCURVE",
"814 594 CURVE SMOOTH",
"725 594 OFFCURVE",
"673 516 OFFCURVE",
"655 372 CURVE",
"448 372 LINE",
"398 195 LINE",
"439 66 OFFCURVE",
"558 -14 OFFCURVE",
"726 -14 CURVE SMOOTH"
);
},
{
closed = 1;
nodes = (
"302 -15 OFFCURVE",
"377 48 OFFCURVE",
"392 189 CURVE",
"426 189 LINE",
"399 263 LINE",
"399 188 OFFCURVE",
"359 164 OFFCURVE",
"324 164 CURVE SMOOTH",
"297 164 OFFCURVE",
"279 177 OFFCURVE",
"279 201 CURVE SMOOTH",
"279 224 OFFCURVE",
"295 240 OFFCURVE",
"335 246 CURVE SMOOTH",
"420 259 LINE",
"420 343 LINE",
"238 316 LINE SMOOTH",
"92 294 OFFCURVE",
"13 249 OFFCURVE",
"13 141 CURVE SMOOTH",
"13 47 OFFCURVE",
"72 -15 OFFCURVE",
"193 -15 CURVE SMOOTH"
);
},
{
closed = 1;
nodes = (
"647 384 LINE SMOOTH",
"647 543 OFFCURVE",
"532 596 OFFCURVE",
"360 596 CURVE SMOOTH",
"140 596 OFFCURVE",
"53 505 OFFCURVE",
"36 376 CURVE",
"263 349 LINE",
"272 384 OFFCURVE",
"301 394 OFFCURVE",
"331 394 CURVE SMOOTH",
"363 394 OFFCURVE",
"393 382 OFFCURVE",
"393 341 CURVE SMOOTH",
"393 289 LINE",
"399 263 LINE",
"407 207 LINE",
"647 204 LINE"
);
},
{
closed = 1;
nodes = (
"846 252 LINE",
"852 336 LINE",
"546 336 LINE",
"546 252 LINE"
);
}
);
width = 1070;
}
);
leftMetricsKey = a;
rightMetricsKey = e;
unicode = 00E6;
},
{
glyphname = b;
lastChange = "2018-03-09 17:11:57 +0000";
layers = (
{
components = (
{
name = "bowl-thick";
transform = "{1, 0, 0, 1, 95, 0}";
}
);
layerId = "67AEAADB-8447-4819-9D92-8BB76BD22042";
leftMetricsKey = "=h-14";
rightMetricsKey = "=o+7";
paths = (
{
closed = 1;
nodes = (
"154 0 LINE",
"154 212 LINE",
"153 239 LINE",
"153 272 LINE",
"154 307 LINE",
"154 790 LINE",
"20 790 LINE",
"20 785 LINE",
"149 785 LINE",
"149 0 LINE"
);
}
);
width = 731;
},
{
components = (
{
name = "bowl-thick";
transform = "{1, 0, 0, 1, 114, 0}";
}
);
layerId = "BE4E587A-F76C-447B-AA28-A45E40876AAF";
leftMetricsKey = "=h-14";
rightMetricsKey = "=o+7";
paths = (
{
closed = 1;
nodes = (
"63 -14 LINE",
"307 162 LINE",
"304 244 LINE",
"304 320 LINE",
"307 340 LINE",
"307 790 LINE",
"-2 790 LINE",
"-2 587 LINE",
"53 587 LINE",
"53 -14 LINE"
);
}
);
width = 747;
},
{
components = (
{
name = "bowl-thick";
transform = "{1, 0, 0, 1, 80, 0}";
}
);
layerId = "2C5E45D0-97E8-45AA-A5B2-946753DF54E1";
leftMetricsKey = "=l-21";
rightMetricsKey = "=o+6";
paths = (
{
closed = 1;
nodes = (
"102 -15 LINE",
"196 84 LINE",
"193 208 LINE",
"193 288 LINE",
"196 361 LINE",
"196 790 LINE",
"0 790 LINE",
"0 706 LINE",
"98 706 LINE",
"98 -15 LINE"
);
}
);
width = 685;
},
{
associatedMasterId = "2C5E45D0-97E8-45AA-A5B2-946753DF54E1";
layerId = "F6347527-681C-4956-A72F-5F29356DD99F";
leftMetricsKey = "=l-21";
rightMetricsKey = "=o+6";
name = "Feb 27 18, 15:10";
paths = (
{
closed = 1;
nodes = (
"534 -11 OFFCURVE",
"637 103 OFFCURVE",
"637 266 CURVE SMOOTH",
"637 430 OFFCURVE",
"533 546 OFFCURVE",
"387 546 CURVE SMOOTH",
"281 546 OFFCURVE",
"220 484 OFFCURVE",
"200 392 CURVE",
"177 392 LINE",
"193 268 LINE",
"193 381 OFFCURVE",
"257 458 OFFCURVE",
"365 458 CURVE SMOOTH",
"468 458 OFFCURVE",
"537 381 OFFCURVE",
"537 268 CURVE SMOOTH",
"537 152 OFFCURVE",
"478 77 OFFCURVE",
"365 77 CURVE SMOOTH",
"255 77 OFFCURVE",
"193 156 OFFCURVE",
"193 268 CURVE",
"122 174 LINE",
"154 55 OFFCURVE",
"245 -11 OFFCURVE",
"372 -11 CURVE SMOOTH"
);
},
{
closed = 1;
nodes = (
"102 -15 LINE",
"196 84 LINE",
"186 188 LINE",
"193 268 LINE",
"196 361 LINE",
"196 790 LINE",
"0 790 LINE",
"0 706 LINE",
"98 706 LINE",
"98 -15 LINE"
);
}
);
width = 685;
}
);
leftMetricsKey = "=h-14";
rightMetricsKey = "=o+7";
unicode = 0062;
},
{
color = 1;
glyphname = c;
lastChange = "2018-03-07 16:51:49 +0000";
layers = (
{
anchors = (
{
name = bottom;
position = "{312, 0}";
},
{
name = top;
position = "{308, 524}";
}
);
layerId = "67AEAADB-8447-4819-9D92-8BB76BD22042";
rightMetricsKey = "=o-10";
paths = (
{
closed = 1;
nodes = (
"422 -8 OFFCURVE",
"507 51 OFFCURVE",
"551 141 CURVE",
"546 143 LINE",
"503 54 OFFCURVE",
"419 -3 OFFCURVE",
"312 -3 CURVE SMOOTH",
"162 -3 OFFCURVE",
"59 106 OFFCURVE",
"59 261 CURVE SMOOTH",
"59 417 OFFCURVE",
"160 527 OFFCURVE",
"308 527 CURVE SMOOTH",
"435 527 OFFCURVE",
"532 440 OFFCURVE",
"547 308 CURVE",
"550 335 LINE",
"546 335 LINE",
"527 444 OFFCURVE",
"438 532 OFFCURVE",
"308 532 CURVE SMOOTH",
"157 532 OFFCURVE",
"54 420 OFFCURVE",
"54 261 CURVE SMOOTH",
"54 103 OFFCURVE",
"159 -8 OFFCURVE",
"312 -8 CURVE SMOOTH"
);
},
{
closed = 1;
nodes = (
"552 308 LINE",
"552 524 LINE",
"547 524 LINE",
"547 308 LINE"
);
}
);
width = 596;
},
{
anchors = (
{
name = bottom;
position = "{352, 0}";
},
{
name = top;
position = "{310, 580}";
}
);
layerId = "BE4E587A-F76C-447B-AA28-A45E40876AAF";
rightMetricsKey = "=o-6";
paths = (
{
closed = 1;
nodes = (
"534 -14 OFFCURVE",
"657 65 OFFCURVE",
"689 194 CURVE",
"435 261 LINE",
"429 226 OFFCURVE",
"401 204 OFFCURVE",
"359 204 CURVE SMOOTH",
"307 204 OFFCURVE",
"275 238 OFFCURVE",
"275 297 CURVE SMOOTH",
"275 354 OFFCURVE",
"307 391 OFFCURVE",
"356 391 CURVE SMOOTH",
"401 391 OFFCURVE",
"432 361 OFFCURVE",
"435 304 CURVE",
"478 361 LINE",
"427 361 LINE",
"423 521 OFFCURVE",
"374 594 OFFCURVE",
"272 594 CURVE SMOOTH",
"144 594 OFFCURVE",
"14 472 OFFCURVE",
"14 290 CURVE SMOOTH",
"14 107 OFFCURVE",
"146 -14 OFFCURVE",
"356 -14 CURVE SMOOTH"
);
},
{
closed = 1;
nodes = (
"689 304 LINE",
"689 580 LINE",
"435 580 LINE",
"435 304 LINE"
);
}
);
width = 697;
},
{
anchors = (
{
name = bottom;
position = "{324, -10}";
},
{
name = top;
position = "{309, 536}";
}
);
layerId = "2C5E45D0-97E8-45AA-A5B2-946753DF54E1";
leftMetricsKey = "=o+3";
rightMetricsKey = "=o-6";
paths = (
{
closed = 1;
nodes = (
"442 -10 OFFCURVE",
"532 42 OFFCURVE",
"567 126 CURVE",
"476 166 LINE",
"454 113 OFFCURVE",
"399 80 OFFCURVE",
"325 80 CURVE SMOOTH",
"213 80 OFFCURVE",
"145 157 OFFCURVE",
"145 266 CURVE SMOOTH",
"145 380 OFFCURVE",
"214 458 OFFCURVE",
"313 458 CURVE SMOOTH",
"402 458 OFFCURVE",
"456 396 OFFCURVE",
"468 308 CURVE",
"487 392 LINE",
"464 392 LINE",
"456 484 OFFCURVE",
"412 546 OFFCURVE",
"300 546 CURVE SMOOTH",
"149 546 OFFCURVE",
"45 430 OFFCURVE",
"45 266 CURVE SMOOTH",
"45 104 OFFCURVE",
"153 -10 OFFCURVE",
"324 -10 CURVE SMOOTH"
);
},
{
closed = 1;
nodes = (
"566 308 LINE",
"566 536 LINE",
"468 536 LINE",
"468 308 LINE"
);
}
);
width = 603;
},
{
anchors = (
{
name = bottom;
position = "{312, 0}";
},
{
name = top;
position = "{308, 524}";
}
);
associatedMasterId = "67AEAADB-8447-4819-9D92-8BB76BD22042";
layerId = "0242EC4C-37D6-4D22-AAC7-48E5D093E98C";
rightMetricsKey = "=o-10";
name = "Light [6]";
paths = (
{
closed = 1;
nodes = (
"422 -8 OFFCURVE",
"507 51 OFFCURVE",
"551 141 CURVE",
"546 143 LINE",
"503 54 OFFCURVE",
"419 -3 OFFCURVE",
"312 -3 CURVE SMOOTH",
"162 -3 OFFCURVE",
"59 106 OFFCURVE",
"59 261 CURVE SMOOTH",
"59 417 OFFCURVE",
"160 527 OFFCURVE",
"308 527 CURVE SMOOTH",
"439 527 OFFCURVE",
"532 440 OFFCURVE",
"547 308 CURVE",
"550 356 LINE",
"546 356 LINE",
"525 450 OFFCURVE",
"438 532 OFFCURVE",
"308 532 CURVE SMOOTH",
"157 532 OFFCURVE",
"54 420 OFFCURVE",
"54 261 CURVE SMOOTH",
"54 103 OFFCURVE",
"159 -8 OFFCURVE",
"312 -8 CURVE SMOOTH"
);
},
{
closed = 1;
nodes = (
"552 308 LINE",
"552 524 LINE",
"547 524 LINE",
"547 308 LINE"
);
}
);
width = 596;
}
);
leftMetricsKey = o;
rightMetricsKey = "=o-14";
unicode = 0063;
},
{
glyphname = d;
lastChange = "2018-03-12 12:38:25 +0000";
layers = (
{
associatedMasterId = "67AEAADB-8447-4819-9D92-8BB76BD22042";
layerId = "388A103D-4867-4332-B200-0EBE35D53AEB";
name = "Oct 22 17, 16:09";
paths = (
{
closed = 1;
nodes = (
"512 645 LINE",
"254 645 LINE",
"254 525 LINE",
"372 525 LINE",
"372 0 LINE",
"570 0 LINE",
"570 120 LINE",
"512 120 LINE"
);
},
{
closed = 1;
nodes = (
"222 120 OFFCURVE",
"185 162 OFFCURVE",
"185 223 CURVE SMOOTH",
"185 285 OFFCURVE",
"222 331 OFFCURVE",
"279 331 CURVE SMOOTH",
"324 331 OFFCURVE",
"372 302 OFFCURVE",
"372 223 CURVE",
"382 420 LINE",
"368 420 LINE",
"346 447 OFFCURVE",
"312 458 OFFCURVE",
"265 458 CURVE SMOOTH",
"132 458 OFFCURVE",
"40 369 OFFCURVE",
"40 223 CURVE SMOOTH",
"40 94 OFFCURVE",
"109 -12 OFFCURVE",
"234 -12 CURVE SMOOTH",
"307 -12 OFFCURVE",
"352 26 OFFCURVE",
"368 111 CURVE",
"385 111 LINE",
"372 223 LINE",
"372 146 OFFCURVE",
"324 120 OFFCURVE",
"279 120 CURVE SMOOTH"
);
}
);
width = 590;
},
{
anchors = (
{
name = right;
position = "{666, 524}";
},
{
name = top;
position = "{300, 524}";
}
);
components = (
{
name = "bowl-thin";
transform = "{-1, 0, 0, -1, 636, 524}";
}
);
layerId = "67AEAADB-8447-4819-9D92-8BB76BD22042";
leftMetricsKey = "=o+7";
paths = (
{
closed = 1;
nodes = (
"700 0 LINE",
"700 5 LINE",
"582 5 LINE",
"582 790 LINE",
"408 790 LINE",
"408 785 LINE",
"577 785 LINE",
"577 303 LINE",
"578 280 LINE",
"578 258 LINE",
"577 217 LINE",
"577 0 LINE"
);
}
);
width = 717;
},
{
anchors = (
{
name = right;
position = "{775, 580}";
},
{
name = top;
position = "{300, 580}";
}
);
components = (
{
name = "bowl-thin";
transform = "{-1, 0, 0, -1, 553, 568}";
}
);
layerId = "BE4E587A-F76C-447B-AA28-A45E40876AAF";
paths = (
{
closed = 1;
nodes = (
"749 0 LINE",
"749 203 LINE",
"694 203 LINE",
"694 790 LINE",
"389 790 LINE",
"389 587 LINE",
"440 587 LINE",
"440 423 LINE",
"443 331 LINE",
"443 273 LINE",
"440 231 LINE",
"440 0 LINE"
);
}
);
width = 757;
},
{
anchors = (
{
name = right;
position = "{587, 536}";
},
{
name = top;
position = "{314, 536}";
}
);
components = (
{
name = "bowl-thin";
transform = "{-1, 0, 0, -1, 597, 536}";
}
);
layerId = "2C5E45D0-97E8-45AA-A5B2-946753DF54E1";
leftMetricsKey = "=o+6";
paths = (
{
closed = 1;
nodes = (
"682 0 LINE",
"682 84 LINE",
"587 84 LINE",
"587 790 LINE",
"355 790 LINE",
"355 706 LINE",
"489 706 LINE",
"489 398 LINE",
"492 310 LINE",
"492 240 LINE",
"489 192 LINE",
"489 0 LINE"
);
}
);
width = 697;
},
{
anchors = (
{
name = right;
position = "{725, 536}";
},
{
name = top;
position = "{314, 536}";
}
);
associatedMasterId = "2C5E45D0-97E8-45AA-A5B2-946753DF54E1";
layerId = "BE714FEC-A930-48F2-9902-B3C9A9009C92";
leftMetricsKey = "=o+6";
name = "Feb 27 18, 15:18";
paths = (
{
closed = 1;
nodes = (
"404 -10 OFFCURVE",
"465 52 OFFCURVE",
"485 144 CURVE",
"508 144 LINE",
"492 270 LINE",
"492 156 OFFCURVE",
"428 78 OFFCURVE",
"320 78 CURVE SMOOTH",
"217 78 OFFCURVE",
"148 156 OFFCURVE",
"148 270 CURVE SMOOTH",
"148 382 OFFCURVE",
"212 459 OFFCURVE",
"320 459 CURVE SMOOTH",
"430 459 OFFCURVE",
"492 381 OFFCURVE",
"492 270 CURVE",
"540 355 LINE",
"509 473 OFFCURVE",
"426 546 OFFCURVE",
"309 546 CURVE SMOOTH",
"149 546 OFFCURVE",
"48 432 OFFCURVE",
"48 270 CURVE SMOOTH",
"48 106 OFFCURVE",
"152 -10 OFFCURVE",
"298 -10 CURVE SMOOTH"
);
},
{
closed = 1;
nodes = (
"682 0 LINE",
"682 84 LINE",
"587 84 LINE",
"587 790 LINE",
"355 790 LINE",
"355 706 LINE",
"489 706 LINE",
"489 398 LINE",
"492 270 LINE",
"489 192 LINE",
"489 0 LINE"
);
}
);
width = 697;
}
);
leftMetricsKey = "=o+7";
rightMetricsKey = n;
unicode = 0064;
},
{
color = 1;
glyphname = eth;
lastChange = "2018-03-11 20:39:19 +0000";
layers = (
{
layerId = "67AEAADB-8447-4819-9D92-8BB76BD22042";
rightMetricsKey = "=o+6";
paths = (
{
closed = 1;
nodes = (
"169 531 OFFCURVE",
"54 422 OFFCURVE",
"54 268 CURVE SMOOTH",
"54 107 OFFCURVE",
"159 -7 OFFCURVE",
"313 -7 CURVE SMOOTH",
"468 -7 OFFCURVE",
"575 93 OFFCURVE",
"575 268 CURVE",
"567 349 LINE",
"563 348 LINE",
"541 438 OFFCURVE",
"448 531 OFFCURVE",
"314 531 CURVE SMOOTH"
);
},
{
closed = 1;
nodes = (
"445 526 OFFCURVE",
"570 431 OFFCURVE",
"570 268 CURVE SMOOTH",
"570 96 OFFCURVE",
"465 -2 OFFCURVE",
"313 -2 CURVE SMOOTH",
"162 -2 OFFCURVE",
"59 110 OFFCURVE",
"59 268 CURVE SMOOTH",
"59 419 OFFCURVE",
"172 526 OFFCURVE",
"314 526 CURVE SMOOTH"
);
},
{
closed = 1;
nodes = (
"243 790 LINE",
"442 687 OFFCURVE",
"570 479 OFFCURVE",
"570 268 CURVE",
"575 268 LINE",
"575 477 OFFCURVE",
"449 686 OFFCURVE",
"253 790 CURVE"
);
},
{
closed = 1;
nodes = (
"486 788 LINE",
"484 792 LINE",
"172 633 LINE",
"174 629 LINE"
);
}
);
width = 635;
},
{
layerId = "BE4E587A-F76C-447B-AA28-A45E40876AAF";
rightMetricsKey = "=o+6";
paths = (
{
closed = 1;
nodes = (
"115 592 OFFCURVE",
"14 467 OFFCURVE",
"14 304 CURVE SMOOTH",
"14 115 OFFCURVE",
"147 -10 OFFCURVE",
"358 -10 CURVE SMOOTH",
"537 -10 OFFCURVE",
"698 72 OFFCURVE",
"698 308 CURVE",
"447 381 LINE",
"424 378 LINE",
"389 521 OFFCURVE",
"344 592 OFFCURVE",
"246 592 CURVE SMOOTH"
);
},
{
closed = 1;
nodes = (
"402 378 OFFCURVE",
"436 343 OFFCURVE",
"436 293 CURVE SMOOTH",
"436 243 OFFCURVE",
"402 206 OFFCURVE",
"355 206 CURVE SMOOTH",
"308 206 OFFCURVE",
"276 243 OFFCURVE",
"276 293 CURVE SMOOTH",
"276 343 OFFCURVE",
"308 378 OFFCURVE",
"355 378 CURVE SMOOTH"
);
},
{
closed = 1;
nodes = (
"205 790 LINE",
"320 678 OFFCURVE",
"436 507 OFFCURVE",
"436 293 CURVE",
"698 308 LINE",
"698 471 OFFCURVE",
"620 653 OFFCURVE",
"506 790 CURVE"
);
},
{
closed = 1;
nodes = (
"599 757 LINE",
"586 791 LINE",
"197 649 LINE",
"210 615 LINE"
);
}
);
width = 718;
},
{
associatedMasterId = "2C5E45D0-97E8-45AA-A5B2-946753DF54E1";
layerId = "0BE3B6E5-491B-4A67-A69C-65AB1281D43E";
name = "Dec 26 17, 20:25";
paths = (
{
closed = 1;
nodes = (
"151 537 OFFCURVE",
"42 426 OFFCURVE",
"42 268 CURVE SMOOTH",
"42 105 OFFCURVE",
"157 -10 OFFCURVE",
"326 -10 CURVE SMOOTH",
"495 -10 OFFCURVE",
"612 87 OFFCURVE",
"612 268 CURVE SMOOTH",
"612 352 OFFCURVE",
"581 428 OFFCURVE",
"519 482 CURVE",
"514 416 LINE",
"479 416 LINE",
"429 493 OFFCURVE",
"374 537 OFFCURVE",
"288 537 CURVE SMOOTH"
);
},
{
closed = 1;
nodes = (
"439 456 OFFCURVE",
"514 379 OFFCURVE",
"514 282 CURVE SMOOTH",
"514 149 OFFCURVE",
"439 80 OFFCURVE",
"330 80 CURVE SMOOTH",
"221 80 OFFCURVE",
"146 156 OFFCURVE",
"146 268 CURVE SMOOTH",
"146 378 OFFCURVE",
"221 456 OFFCURVE",
"330 456 CURVE SMOOTH"
);
},
{
closed = 1;
nodes = (
"612 500 OFFCURVE",
"430 682 OFFCURVE",
"207 802 CURVE",
"158 723 LINE",
"356 613 OFFCURVE",
"514 476 OFFCURVE",
"514 282 CURVE",
"612 268 LINE"
);
},
{
closed = 1;
nodes = (
"576 641 LINE",
"567 697 LINE",
"128 619 LINE",
"137 563 LINE"
);
}
);
width = 1254;
},
{
layerId = "2C5E45D0-97E8-45AA-A5B2-946753DF54E1";
rightMetricsKey = "=o+6";
paths = (
{
closed = 1;
nodes = (
"153 546 OFFCURVE",
"42 431 OFFCURVE",
"42 268 CURVE SMOOTH",
"42 105 OFFCURVE",
"154 -10 OFFCURVE",
"332 -10 CURVE SMOOTH",
"479 -10 OFFCURVE",
"612 66 OFFCURVE",
"612 281 CURVE",
"517 412 LINE",
"494 404 LINE",
"460 499 OFFCURVE",
"409 546 OFFCURVE",
"309 546 CURVE SMOOTH"
);
},
{
closed = 1;
nodes = (
"439 458 OFFCURVE",
"514 378 OFFCURVE",
"514 271 CURVE SMOOTH",
"514 164 OFFCURVE",
"439 80 OFFCURVE",
"327 80 CURVE SMOOTH",
"221 80 OFFCURVE",
"146 156 OFFCURVE",
"146 269 CURVE SMOOTH",
"146 380 OFFCURVE",
"221 458 OFFCURVE",
"330 458 CURVE SMOOTH"
);
},
{
closed = 1;
nodes = (
"268 790 LINE",
"408 662 OFFCURVE",
"514 462 OFFCURVE",
"514 271 CURVE",
"612 281 LINE",
"612 456 OFFCURVE",
"526 647 OFFCURVE",
"399 790 CURVE"
);
},
{
closed = 1;
nodes = (
"558 735 LINE",
"531 792 LINE",
"204 640 LINE",
"231 583 LINE"
);
}
);
width = 660;
},
{
associatedMasterId = "2C5E45D0-97E8-45AA-A5B2-946753DF54E1";
layerId = "5CAA3390-BC4B-416B-8C60-38BC7146CF2A";
name = "Dec 27 17, 03:10";
paths = (
{
closed = 1;
nodes = (
"151 537 OFFCURVE",
"42 426 OFFCURVE",
"42 268 CURVE SMOOTH",
"42 105 OFFCURVE",
"157 -10 OFFCURVE",
"326 -10 CURVE SMOOTH",
"495 -10 OFFCURVE",
"612 87 OFFCURVE",
"612 268 CURVE SMOOTH",
"612 352 OFFCURVE",
"581 428 OFFCURVE",
"519 482 CURVE",
"514 416 LINE",
"479 416 LINE",
"429 493 OFFCURVE",
"374 537 OFFCURVE",
"288 537 CURVE SMOOTH"
);
},
{
closed = 1;
nodes = (
"439 456 OFFCURVE",
"514 379 OFFCURVE",
"514 282 CURVE SMOOTH",
"514 149 OFFCURVE",
"439 80 OFFCURVE",
"330 80 CURVE SMOOTH",
"221 80 OFFCURVE",
"146 156 OFFCURVE",
"146 268 CURVE SMOOTH",
"146 378 OFFCURVE",
"221 456 OFFCURVE",
"330 456 CURVE SMOOTH"
);
},
{
closed = 1;
nodes = (
"612 500 OFFCURVE",
"423 722 OFFCURVE",
"168 802 CURVE",
"129 723 LINE",
"354 653 OFFCURVE",
"514 476 OFFCURVE",
"514 282 CURVE",
"612 268 LINE"
);
},
{
closed = 1;
nodes = (
"573 640 LINE",
"560 716 LINE",
"121 638 LINE",
"134 562 LINE"
);
}
);
width = 654;
},
{
associatedMasterId = "2C5E45D0-97E8-45AA-A5B2-946753DF54E1";
layerId = "98D203CA-56D4-4B8A-88A5-5EF0A78B96BD";
name = "Jan 5 18, 01:26";
paths = (
{
closed = 1;
nodes = (
"153 537 OFFCURVE",
"42 426 OFFCURVE",
"42 268 CURVE SMOOTH",
"42 105 OFFCURVE",
"157 -10 OFFCURVE",
"326 -10 CURVE SMOOTH",
"495 -10 OFFCURVE",
"612 87 OFFCURVE",
"612 268 CURVE SMOOTH",
"612 352 OFFCURVE",
"581 428 OFFCURVE",
"519 482 CURVE",
"514 416 LINE",
"489 416 LINE",
"438 493 OFFCURVE",
"381 537 OFFCURVE",
"293 537 CURVE SMOOTH"
);
},
{
closed = 1;
nodes = (
"439 456 OFFCURVE",
"514 379 OFFCURVE",
"514 282 CURVE SMOOTH",
"514 149 OFFCURVE",
"439 80 OFFCURVE",
"330 80 CURVE SMOOTH",
"221 80 OFFCURVE",
"146 156 OFFCURVE",
"146 268 CURVE SMOOTH",
"146 378 OFFCURVE",
"221 456 OFFCURVE",
"330 456 CURVE SMOOTH"
);
},
{
closed = 1;
nodes = (
"612 494 OFFCURVE",
"478 710 OFFCURVE",
"297 816 CURVE",
"242 745 LINE",
"401 648 OFFCURVE",
"514 473 OFFCURVE",
"514 282 CURVE",
"612 268 LINE"
);
},
{
closed = 1;
nodes = (
"578 709 LINE",
"547 775 LINE",
"229 627 LINE",
"260 561 LINE"
);
}
);
width = 654;
},
{
associatedMasterId = "2C5E45D0-97E8-45AA-A5B2-946753DF54E1";
layerId = "4A0ACDA9-9014-43C4-804E-40BDC9C61A31";
name = "Feb 26 18, 11:19";
paths = (
{
closed = 1;
nodes = (
"153 537 OFFCURVE",
"42 426 OFFCURVE",
"42 268 CURVE SMOOTH",
"42 105 OFFCURVE",
"157 -10 OFFCURVE",
"326 -10 CURVE SMOOTH",
"495 -10 OFFCURVE",
"612 81 OFFCURVE",
"612 281 CURVE",
"514 416 LINE",
"489 416 LINE",
"438 493 OFFCURVE",
"381 537 OFFCURVE",
"293 537 CURVE SMOOTH"
);
},
{
closed = 1;
nodes = (
"439 456 OFFCURVE",
"514 376 OFFCURVE",
"514 270 CURVE SMOOTH",
"514 146 OFFCURVE",
"439 80 OFFCURVE",
"330 80 CURVE SMOOTH",
"221 80 OFFCURVE",
"146 156 OFFCURVE",
"146 268 CURVE SMOOTH",
"146 378 OFFCURVE",
"221 456 OFFCURVE",
"330 456 CURVE SMOOTH"
);
},
{
closed = 1;
nodes = (
"612 493 OFFCURVE",
"478 699 OFFCURVE",
"297 808 CURVE",
"248 728 LINE",
"398 636 OFFCURVE",
"514 462 OFFCURVE",
"514 270 CURVE",
"612 281 LINE"
);
},
{
closed = 1;
nodes = (
"522 745 LINE",
"489 799 LINE",
"189 618 LINE",
"222 564 LINE"
);
}
);
width = 654;
},
{
associatedMasterId = "67AEAADB-8447-4819-9D92-8BB76BD22042";
layerId = "E16F7673-988D-4607-8138-1E0ABE5C6D6F";
rightMetricsKey = "=o+6";
name = "Light [6]";
paths = (
{
closed = 1;
nodes = (
"169 531 OFFCURVE",
"54 422 OFFCURVE",
"54 268 CURVE SMOOTH",
"54 107 OFFCURVE",
"159 -7 OFFCURVE",
"313 -7 CURVE SMOOTH",
"468 -7 OFFCURVE",
"575 93 OFFCURVE",
"575 268 CURVE",
"559 386 LINE",
"555 385 LINE",
"527 450 OFFCURVE",
"439 531 OFFCURVE",
"314 531 CURVE SMOOTH"
);
},
{
closed = 1;
nodes = (
"445 526 OFFCURVE",
"570 431 OFFCURVE",
"570 268 CURVE SMOOTH",
"570 96 OFFCURVE",
"465 -2 OFFCURVE",
"313 -2 CURVE SMOOTH",
"162 -2 OFFCURVE",
"59 110 OFFCURVE",
"59 268 CURVE SMOOTH",
"59 419 OFFCURVE",
"172 526 OFFCURVE",
"314 526 CURVE SMOOTH"
);
},
{
closed = 1;
nodes = (
"243 790 LINE",
"442 687 OFFCURVE",
"570 479 OFFCURVE",
"570 268 CURVE",
"575 268 LINE",
"575 477 OFFCURVE",
"449 686 OFFCURVE",
"253 790 CURVE"
);
},
{
closed = 1;
nodes = (
"486 788 LINE",
"484 792 LINE",
"172 633 LINE",
"174 629 LINE"
);
}
);
width = 635;
}
);
leftMetricsKey = "=o";
rightMetricsKey = "o+6";
unicode = 00F0;
},
{
color = 0;
glyphname = dcroat;
lastChange = "2018-03-09 17:11:57 +0000";
layers = (
{
components = (
{
name = d;
},
{
name = strokeshortcomb;
transform = "{1, 0, 0, 1, 303, 5}";
}
);
layerId = "67AEAADB-8447-4819-9D92-8BB76BD22042";
width = 717;
},
{
components = (
{
name = d;
},
{
name = strokeshortcomb;
transform = "{1, 0, 0, 1, 283, -5}";
}
);
layerId = "2C5E45D0-97E8-45AA-A5B2-946753DF54E1";
rightMetricsKey = "=|n";
width = 714;
},
{
components = (
{
name = d;
},
{
name = strokeshortcomb;
transform = "{0.8, 0, 0, 1, 311, 64}";
}
);
layerId = "BE4E587A-F76C-447B-AA28-A45E40876AAF";
width = 757;
},
{
anchors = (
{
name = right;
position = "{710, 536}";
},
{
name = top;
position = "{314, 536}";
}
);
associatedMasterId = "2C5E45D0-97E8-45AA-A5B2-946753DF54E1";
components = (
{
name = "bowl-thin";
transform = "{-1, 0, 0, -1, 597, 536}";
},
{
name = strokeshortcomb;
transform = "{1, 0, 0, 1, 236, 25}";
}
);
layerId = "995D160F-F76A-4237-BC26-B2B6960A43E0";
rightMetricsKey = "=|n";
name = "Regular [120]";
paths = (
{
closed = 1;
nodes = (
"682 0 LINE",
"682 84 LINE",
"587 84 LINE",
"587 790 LINE",
"489 790 LINE",
"489 398 LINE",
"492 310 LINE",
"492 240 LINE",
"489 192 LINE",
"489 0 LINE"
);
}
);
width = 714;
},
{
anchors = (
{
name = right;
position = "{759, 536}";
},
{
name = top;
position = "{300, 580}";
}
);
associatedMasterId = "BE4E587A-F76C-447B-AA28-A45E40876AAF";
components = (
{
name = "bowl-thin";
transform = "{-1, 0, 0, -1, 553, 568}";
},
{
name = strokeshortcomb;
transform = "{0.8, 0, 0, 1, 311, 146}";
}
);
layerId = "898D628D-0094-474E-A9F2-82CBEADA54F7";
name = "Bold [120]";
paths = (
{
closed = 1;
nodes = (
"749 0 LINE",
"749 203 LINE",
"694 203 LINE",
"694 790 LINE",
"440 790 LINE",
"440 423 LINE",
"443 331 LINE",
"443 273 LINE",
"440 231 LINE",
"440 0 LINE"
);
}
);
width = 757;
}
);
leftMetricsKey = d;
rightMetricsKey = d;
unicode = 0111;
},
{
glyphname = e;
lastChange = "2018-03-09 18:48:21 +0000";
layers = (
{
anchors = (
{
name = bottom;
position = "{312, 0}";
},
{
name = ogonek;
position = "{407, 8}";
},
{
name = top;
position = "{311, 524}";
}
);
layerId = "67AEAADB-8447-4819-9D92-8BB76BD22042";
rightMetricsKey = "=o-4";
paths = (
{
closed = 1;
nodes = (
"422 -8 OFFCURVE",
"508 49 OFFCURVE",
"551 141 CURVE",
"546 143 LINE",
"504 52 OFFCURVE",
"419 -3 OFFCURVE",
"312 -3 CURVE SMOOTH",
"162 -3 OFFCURVE",
"59 106 OFFCURVE",
"59 261 CURVE SMOOTH",
"59 417 OFFCURVE",
"161 527 OFFCURVE",
"311 527 CURVE SMOOTH",
"457 527 OFFCURVE",
"555 421 OFFCURVE",
"555 270 CURVE SMOOTH",
"555 268 OFFCURVE",
"555 265 OFFCURVE",
"555 263 CURVE",
"560 263 LINE",
"560 265 OFFCURVE",
"560 268 OFFCURVE",
"560 270 CURVE SMOOTH",
"560 424 OFFCURVE",
"460 532 OFFCURVE",
"311 532 CURVE SMOOTH",
"158 532 OFFCURVE",
"54 420 OFFCURVE",
"54 261 CURVE SMOOTH",
"54 103 OFFCURVE",
"159 -8 OFFCURVE",
"312 -8 CURVE SMOOTH"
);
},
{
closed = 1;
nodes = (
"558 263 LINE",
"558 268 LINE",
"57 268 LINE",
"57 263 LINE"
);
}
);
width = 610;
},
{
anchors = (
{
name = bottom;
position = "{321, 2}";
},
{
name = ogonek;
position = "{449, 19}";
},
{
name = top;
position = "{311, 536}";
}
);
layerId = "2C5E45D0-97E8-45AA-A5B2-946753DF54E1";
leftMetricsKey = "=o+2";
rightMetricsKey = "=o-3";
paths = (
{
closed = 1;
nodes = (
"435 -10 OFFCURVE",
"527 48 OFFCURVE",
"566 143 CURVE",
"473 178 LINE",
"448 117 OFFCURVE",
"392 80 OFFCURVE",
"317 80 CURVE SMOOTH",
"208 80 OFFCURVE",
"143 157 OFFCURVE",
"143 266 CURVE SMOOTH",
"143 380 OFFCURVE",
"211 458 OFFCURVE",
"313 458 CURVE SMOOTH",
"419 458 OFFCURVE",
"480 380 OFFCURVE",
"480 273 CURVE SMOOTH",
"480 256 OFFCURVE",
"479 245 OFFCURVE",
"478 235 CURVE",
"575 235 LINE",
"576 241 OFFCURVE",
"577 249 OFFCURVE",
"577 266 CURVE SMOOTH",
"577 431 OFFCURVE",
"477 546 OFFCURVE",
"313 546 CURVE SMOOTH",
"151 546 OFFCURVE",
"44 430 OFFCURVE",
"44 266 CURVE SMOOTH",
"44 104 OFFCURVE",
"148 -10 OFFCURVE",
"318 -10 CURVE SMOOTH"
);
},
{
closed = 1;
nodes = (
"575 235 LINE",
"546 309 LINE",
"106 309 LINE",
"106 235 LINE"
);
}
);
width = 616;
},
{
anchors = (
{
name = ogonek;
position = "{518, 15}";
},
{
name = top;
position = "{350, 580}";
}
);
associatedMasterId = "BE4E587A-F76C-447B-AA28-A45E40876AAF";
layerId = "37AC81F8-3912-4902-B0E9-A8CB1A4EB4A1";
rightMetricsKey = "=o";
name = "Jan 14 18, 01:46";
paths = (
{
closed = 1;
nodes = (
"495 -14 OFFCURVE",
"606 58 OFFCURVE",
"649 177 CURVE",
"402 234 LINE",
"391 216 OFFCURVE",
"371 204 OFFCURVE",
"346 204 CURVE SMOOTH",
"302 204 OFFCURVE",
"275 239 OFFCURVE",
"275 290 CURVE SMOOTH",
"275 355 OFFCURVE",
"301 391 OFFCURVE",
"342 391 CURVE SMOOTH",
"382 391 OFFCURVE",
"407 357 OFFCURVE",
"407 295 CURVE SMOOTH",
"407 281 OFFCURVE",
"407 266 OFFCURVE",
"406 252 CURVE",
"656 252 LINE",
"656 265 OFFCURVE",
"656 277 OFFCURVE",
"656 290 CURVE SMOOTH",
"656 472 OFFCURVE",
"532 594 OFFCURVE",
"335 594 CURVE SMOOTH",
"138 594 OFFCURVE",
"14 472 OFFCURVE",
"14 290 CURVE SMOOTH",
"14 107 OFFCURVE",
"140 -14 OFFCURVE",
"341 -14 CURVE SMOOTH"
);
},
{
closed = 1;
nodes = (
"446 252 LINE",
"452 336 LINE",
"176 336 LINE",
"176 252 LINE"
);
}
);
width = 700;
},
{
anchors = (
{
name = bottom;
position = "{356, 0}";
},
{
name = ogonek;
position = "{521, 17}";
},
{
name = top;
position = "{350, 580}";
}
);
layerId = "BE4E587A-F76C-447B-AA28-A45E40876AAF";
rightMetricsKey = "=o";
paths = (
{
closed = 1;
nodes = (
"518 -14 OFFCURVE",
"634 58 OFFCURVE",
"679 177 CURVE",
"432 234 LINE",
"418 216 OFFCURVE",
"393 204 OFFCURVE",
"361 204 CURVE SMOOTH",
"308 204 OFFCURVE",
"275 239 OFFCURVE",
"275 290 CURVE SMOOTH",
"275 355 OFFCURVE",
"307 391 OFFCURVE",
"357 391 CURVE SMOOTH",
"406 391 OFFCURVE",
"437 357 OFFCURVE",
"437 295 CURVE SMOOTH",
"437 281 OFFCURVE",
"437 266 OFFCURVE",
"436 252 CURVE",
"686 252 LINE",
"686 265 OFFCURVE",
"686 277 OFFCURVE",
"686 290 CURVE SMOOTH",
"686 472 OFFCURVE",
"556 594 OFFCURVE",
"350 594 CURVE SMOOTH",
"144 594 OFFCURVE",
"14 472 OFFCURVE",
"14 290 CURVE SMOOTH",
"14 107 OFFCURVE",
"146 -14 OFFCURVE",
"356 -14 CURVE SMOOTH"
);
},
{
closed = 1;
nodes = (
"476 252 LINE",
"482 336 LINE",
"176 336 LINE",
"176 252 LINE"
);
}
);
width = 700;
},
{
anchors = (
{
name = bottom;
position = "{321, 0}";
},
{
name = ogonek;
position = "{438, 13}";
},
{
name = top;
position = "{311, 536}";
}
);
associatedMasterId = "2C5E45D0-97E8-45AA-A5B2-946753DF54E1";
layerId = "E381435E-AA7D-463C-8760-1E6FDC933C9B";
leftMetricsKey = "=o+2";
rightMetricsKey = "=o+2";
name = "Feb 6 18, 15:52";
paths = (
{
closed = 1;
nodes = (
"430 -10 OFFCURVE",
"516 42 OFFCURVE",
"562 126 CURVE",
"471 161 LINE",
"440 110 OFFCURVE",
"387 78 OFFCURVE",
"321 78 CURVE SMOOTH",
"210 78 OFFCURVE",
"143 156 OFFCURVE",
"143 266 CURVE SMOOTH",
"143 380 OFFCURVE",
"211 458 OFFCURVE",
"313 458 CURVE SMOOTH",
"419 458 OFFCURVE",
"480 380 OFFCURVE",
"480 273 CURVE SMOOTH",
"480 256 OFFCURVE",
"479 245 OFFCURVE",
"478 235 CURVE",
"576 235 LINE",
"577 245 OFFCURVE",
"577 256 OFFCURVE",
"577 266 CURVE SMOOTH",
"577 431 OFFCURVE",
"477 546 OFFCURVE",
"313 546 CURVE SMOOTH",
"151 546 OFFCURVE",
"44 430 OFFCURVE",
"44 266 CURVE SMOOTH",
"44 104 OFFCURVE",
"151 -10 OFFCURVE",
"321 -10 CURVE SMOOTH"
);
},
{
closed = 1;
nodes = (
"576 235 LINE",
"546 309 LINE",
"106 309 LINE",
"106 235 LINE"
);
}
);
width = 621;
}
);
leftMetricsKey = o;
unicode = 0065;
},
{
glyphname = eogonek;
lastChange = "2018-03-12 12:34:42 +0000";
layers = (
{
components = (
{
name = e;
},
{
name = ogonekcomb.alt;
transform = "{1, 0, 0, 1, 248, -3}";
}
);
layerId = "67AEAADB-8447-4819-9D92-8BB76BD22042";
width = 610;
},
{
components = (
{
name = e;
},
{
name = ogonekcomb.alt;
transform = "{1, 0, 0, 1, 266, 0}";
}
);
layerId = "2C5E45D0-97E8-45AA-A5B2-946753DF54E1";
width = 616;
},
{
components = (
{
name = e;
},
{
name = ogonekcomb.alt;
transform = "{1, 0, 0, 1, 318, -8}";
}
);
layerId = "BE4E587A-F76C-447B-AA28-A45E40876AAF";
width = 700;
},
{
anchors = (
{
name = _ogonek;
position = "{438, 13}";
},
{
name = ogonek;
position = "{438, 13}";
},
{
name = top;
position = "{311, 536}";
}
);
associatedMasterId = "2C5E45D0-97E8-45AA-A5B2-946753DF54E1";
layerId = "CDAB1D54-CB17-4AD7-B07D-E3A299D06F49";
name = "Jan 4 18, 23:30";
paths = (
{
closed = 1;
nodes = (
"438 -143 LINE",
"430 -143 LINE SMOOTH",
"384 -143 OFFCURVE",
"359 -123 OFFCURVE",
"359 -84 CURVE SMOOTH",
"359 -39 OFFCURVE",
"387 -9 OFFCURVE",
"438 13 CURVE",
"389 31 LINE",
"389 -7 LINE",
"325 -20 OFFCURVE",
"295 -49 OFFCURVE",
"295 -99 CURVE SMOOTH",
"295 -164 OFFCURVE",
"347 -201 OFFCURVE",
"426 -201 CURVE SMOOTH",
"438 -201 LINE"
);
},
{
closed = 1;
nodes = (
"364 -10 OFFCURVE",
"403 -2 OFFCURVE",
"438 13 CURVE SMOOTH",
"492 36 OFFCURVE",
"534 75 OFFCURVE",
"562 126 CURVE",
"471 161 LINE",
"440 110 OFFCURVE",
"387 78 OFFCURVE",
"321 78 CURVE SMOOTH",
"210 78 OFFCURVE",
"143 156 OFFCURVE",
"143 266 CURVE SMOOTH",
"143 380 OFFCURVE",
"211 458 OFFCURVE",
"313 458 CURVE SMOOTH",
"419 458 OFFCURVE",
"480 380 OFFCURVE",
"480 273 CURVE SMOOTH",
"480 256 OFFCURVE",
"479 245 OFFCURVE",
"478 235 CURVE",
"576 235 LINE",
"577 245 OFFCURVE",
"577 256 OFFCURVE",
"577 266 CURVE SMOOTH",
"577 431 OFFCURVE",
"477 546 OFFCURVE",
"313 546 CURVE SMOOTH",
"151 546 OFFCURVE",
"44 430 OFFCURVE",
"44 266 CURVE SMOOTH",
"44 104 OFFCURVE",
"151 -10 OFFCURVE",
"321 -10 CURVE SMOOTH"
);
},
{
closed = 1;
nodes = (
"576 235 LINE",
"546 309 LINE",
"106 309 LINE",
"106 235 LINE"
);
}
);
width = 621;
}
);
unicode = 0119;
},
{
color = 3;
glyphname = f;
lastChange = "2018-02-27 19:13:31 +0000";
layers = (
{
layerId = "67AEAADB-8447-4819-9D92-8BB76BD22042";
rightMetricsKey = "=|n-110";
paths = (
{
closed = 1;
nodes = (
"303 0 LINE",
"303 5 LINE",
"158 5 LINE",
"158 519 LINE",
"359 519 LINE",
"359 524 LINE",
"158 524 LINE",
"158 638 LINE SMOOTH",
"158 744 OFFCURVE",
"220 792 OFFCURVE",
"313 792 CURVE SMOOTH",
"400 792 OFFCURVE",
"448 752 OFFCURVE",
"467 671 CURVE",
"472 672 LINE",
"455 753 OFFCURVE",
"403 797 OFFCURVE",
"313 797 CURVE SMOOTH",
"217 797 OFFCURVE",
"153 747 OFFCURVE",
"153 638 CURVE SMOOTH",
"153 524 LINE",
"39 524 LINE",
"39 519 LINE",
"153 519 LINE",
"153 5 LINE",
"39 5 LINE",
"39 0 LINE"
);
}
);
width = 401;
},
{
associatedMasterId = "67AEAADB-8447-4819-9D92-8BB76BD22042";
backgroundImage = {
crop = "{{0, 0}, {2448, 3264}}";
imagePath = "../Reference/Bruce/Bruce1848/1848 George Bruce & Co. type specimen book..jpg";
locked = "1";
transform = "{6.16431, 0, 0, 6.16431, -3842, -14088}";
};
layerId = "79B3B9FF-9A06-4F89-B827-3296CCDDD8C6";
name = "Dec 8 17, 15:51";
paths = (
{
closed = 1;
nodes = (
"535 738 OFFCURVE",
"465 801 OFFCURVE",
"340 801 CURVE SMOOTH",
"203 801 OFFCURVE",
"117 724 OFFCURVE",
"117 580 CURVE SMOOTH",
"117 552 LINE",
"23 552 LINE",
"23 406 LINE",
"116 406 LINE",
"116 146 LINE",
"23 146 LINE",
"23 0 LINE",
"372 0 LINE",
"372 146 LINE",
"287 146 LINE",
"287 406 LINE",
"402 406 LINE",
"402 552 LINE",
"287 552 LINE",
"287 584 LINE SMOOTH",
"287 628 OFFCURVE",
"322 662 OFFCURVE",
"394 662 CURVE SMOOTH",
"461 662 OFFCURVE",
"501 644 OFFCURVE",
"516 619 CURVE",
"535 619 LINE"
);
}
);
width = 422;
},
{
associatedMasterId = "67AEAADB-8447-4819-9D92-8BB76BD22042";
backgroundImage = {
crop = "{{0, 0}, {2448, 3264}}";
imagePath = "../Reference/Bruce/Bruce1848/1848 George Bruce & Co. type specimen book..jpg";
locked = "1";
transform = "{6.16431, 0, 0, 6.16431, -3842, -14088}";
};
layerId = "0CAEAC39-57A6-47AF-928C-E8B67783A302";
name = "Dec 10 17, 21:39";
paths = (
{
closed = 1;
nodes = (
"287 605 LINE SMOOTH",
"287 634 OFFCURVE",
"303 650 OFFCURVE",
"335 650 CURVE SMOOTH",
"366 650 OFFCURVE",
"381 635 OFFCURVE",
"381 609 CURVE",
"535 609 LINE",
"535 731 OFFCURVE",
"476 801 OFFCURVE",
"332 801 CURVE SMOOTH",
"185 801 OFFCURVE",
"117 726 OFFCURVE",
"117 605 CURVE SMOOTH",
"117 554 LINE",
"23 554 LINE",
"23 408 LINE",
"116 408 LINE",
"116 146 LINE",
"23 146 LINE",
"23 0 LINE",
"372 0 LINE",
"372 146 LINE",
"287 146 LINE",
"287 408 LINE",
"412 408 LINE",
"412 554 LINE",
"287 554 LINE"
);
}
);
width = 440;
},
{
associatedMasterId = "67AEAADB-8447-4819-9D92-8BB76BD22042";
backgroundImage = {
crop = "{{0, 0}, {2448, 3264}}";
imagePath = "../Reference/Bruce/Bruce1848/1848 George Bruce & Co. type specimen book..jpg";
locked = "1";
transform = "{6.16431, 0, 0, 6.16431, -3852, -14088}";
};
layerId = "2214ED82-5822-4037-94AA-E449E18DBE6F";
name = "Dec 10 17, 22:57";
paths = (
{
closed = 1;
nodes = (
"277 585 LINE SMOOTH",
"277 629 OFFCURVE",
"307 654 OFFCURVE",
"371 654 CURVE SMOOTH",
"407 654 OFFCURVE",
"442 646 OFFCURVE",
"482 634 CURVE",
"482 780 LINE",
"435 792 OFFCURVE",
"387 801 OFFCURVE",
"336 801 CURVE SMOOTH",
"182 799 OFFCURVE",
"107 718 OFFCURVE",
"107 585 CURVE SMOOTH",
"107 554 LINE",
"23 554 LINE",
"23 408 LINE",
"106 408 LINE",
"106 146 LINE",
"23 146 LINE",
"23 0 LINE",
"390 0 LINE",
"390 146 LINE",
"277 146 LINE",
"277 408 LINE",
"422 408 LINE",
"422 554 LINE",
"277 554 LINE"
);
}
);
width = 450;
},
{
associatedMasterId = "2C5E45D0-97E8-45AA-A5B2-946753DF54E1";
layerId = "EA442F27-1256-48DD-ACF5-73F26FD9C8CA";
rightMetricsKey = "=|n-120";
name = Serif;
paths = (
{
closed = 1;
nodes = (
"432 688 LINE",
"399 688 LINE",
"388 761 OFFCURVE",
"357 800 OFFCURVE",
"284 800 CURVE SMOOTH",
"184 800 OFFCURVE",
"135 726 OFFCURVE",
"135 606 CURVE SMOOTH",
"135 536 LINE",
"32 536 LINE",
"32 452 LINE",
"134 452 LINE",
"134 84 LINE",
"32 84 LINE",
"32 0 LINE",
"367 0 LINE",
"367 84 LINE",
"232 84 LINE",
"232 452 LINE",
"400 452 LINE",
"400 536 LINE",
"232 536 LINE",
"232 606 LINE SMOOTH",
"232 677 OFFCURVE",
"262 711 OFFCURVE",
"318 711 CURVE SMOOTH",
"366 711 OFFCURVE",
"396 685 OFFCURVE",
"403 632 CURVE"
);
},
{
closed = 1;
nodes = (
"403 632 LINE",
"501 632 LINE",
"501 790 LINE",
"403 790 LINE"
);
}
);
width = 413;
},
{
associatedMasterId = "2C5E45D0-97E8-45AA-A5B2-946753DF54E1";
layerId = "7C68D5C0-36A9-4110-96EC-41617AB24DAF";
rightMetricsKey = "=|n-120";
name = "Feb 9 18, 10:36";
paths = (
{
closed = 1;
nodes = (
"343 0 LINE",
"343 84 LINE",
"232 84 LINE",
"232 452 LINE",
"370 452 LINE",
"370 536 LINE",
"232 536 LINE",
"232 596 LINE SMOOTH",
"232 674 OFFCURVE",
"274 711 OFFCURVE",
"365 711 CURVE SMOOTH",
"440 711 OFFCURVE",
"494 686 OFFCURVE",
"513 636 CURVE",
"519 636 LINE",
"498 742 OFFCURVE",
"437 800 OFFCURVE",
"325 800 CURVE SMOOTH",
"192 800 OFFCURVE",
"134 722 OFFCURVE",
"134 596 CURVE SMOOTH",
"134 536 LINE",
"32 536 LINE",
"32 452 LINE",
"134 452 LINE",
"134 84 LINE",
"32 84 LINE",
"32 0 LINE"
);
}
);
width = 413;
},
{
associatedMasterId = "BE4E587A-F76C-447B-AA28-A45E40876AAF";
layerId = "2394B750-9F89-4C7D-BC88-2E7775F44F80";
leftMetricsKey = "=n-2";
name = "Feb 9 18, 11:03";
paths = (
{
closed = 1;
nodes = (
"480 0 LINE",
"480 203 LINE",
"345 203 LINE",
"345 377 LINE",
"556 377 LINE",
"556 580 LINE",
"345 580 LINE",
"345 583 LINE SMOOTH",
"345 612 OFFCURVE",
"362 626 OFFCURVE",
"392 626 CURVE SMOOTH",
"415 626 OFFCURVE",
"430 618 OFFCURVE",
"435 604 CURVE",
"454 627 LINE",
"427 627 LINE",
"421 750 OFFCURVE",
"374 804 OFFCURVE",
"280 804 CURVE SMOOTH",
"163 804 OFFCURVE",
"91 720 OFFCURVE",
"91 583 CURVE SMOOTH",
"91 580 LINE",
"16 580 LINE",
"16 377 LINE",
"91 377 LINE",
"91 203 LINE",
"16 203 LINE",
"16 0 LINE"
);
},
{
closed = 1;
nodes = (
"689 604 LINE",
"689 790 LINE",
"435 790 LINE",
"435 604 LINE"
);
}
);
width = 699;
},
{
associatedMasterId = "BE4E587A-F76C-447B-AA28-A45E40876AAF";
layerId = "40940AEF-ACDD-4500-A158-AE70C741334E";
leftMetricsKey = "=n-2";
name = "Feb 9 18, 11:05";
paths = (
{
closed = 1;
nodes = (
"549 636 LINE",
"529 753 OFFCURVE",
"450 804 OFFCURVE",
"328 804 CURVE SMOOTH",
"171 804 OFFCURVE",
"91 720 OFFCURVE",
"91 583 CURVE SMOOTH",
"91 580 LINE",
"16 580 LINE",
"16 377 LINE",
"91 377 LINE",
"91 203 LINE",
"16 203 LINE",
"16 0 LINE",
"480 0 LINE",
"480 203 LINE",
"345 203 LINE",
"345 377 LINE",
"556 377 LINE",
"556 580 LINE",
"345 580 LINE",
"345 583 LINE SMOOTH",
"345 612 OFFCURVE",
"362 626 OFFCURVE",
"412 626 CURVE SMOOTH",
"444 626 OFFCURVE",
"486 626 OFFCURVE",
"542 626 CURVE"
);
}
);
width = 566;
},
{
layerId = "BE4E587A-F76C-447B-AA28-A45E40876AAF";
leftMetricsKey = "=n-2";
paths = (
{
closed = 1;
nodes = (
"494 0 LINE",
"494 203 LINE",
"359 203 LINE",
"359 377 LINE",
"570 377 LINE",
"570 580 LINE",
"359 580 LINE",
"359 583 LINE SMOOTH",
"359 614 OFFCURVE",
"372 629 OFFCURVE",
"396 629 CURVE SMOOTH",
"416 629 OFFCURVE",
"429 618 OFFCURVE",
"433 597 CURVE",
"631 630 LINE",
"609 751 OFFCURVE",
"526 804 OFFCURVE",
"375 804 CURVE SMOOTH",
"184 804 OFFCURVE",
"105 720 OFFCURVE",
"105 583 CURVE SMOOTH",
"105 580 LINE",
"16 580 LINE",
"16 377 LINE",
"105 377 LINE",
"105 203 LINE",
"16 203 LINE",
"16 0 LINE"
);
}
);
width = 582;
},
{
associatedMasterId = "2C5E45D0-97E8-45AA-A5B2-946753DF54E1";
layerId = "29A6E879-6439-49E8-8A75-6B5B66C51CF2";
rightMetricsKey = "=|n-120";
name = "Feb 9 18, 11:05";
paths = (
{
closed = 1;
nodes = (
"481 636 LINE",
"466 743 OFFCURVE",
"422 800 OFFCURVE",
"315 800 CURVE SMOOTH",
"192 800 OFFCURVE",
"135 726 OFFCURVE",
"135 606 CURVE SMOOTH",
"135 536 LINE",
"32 536 LINE",
"32 452 LINE",
"134 452 LINE",
"134 84 LINE",
"32 84 LINE",
"32 0 LINE",
"348 0 LINE",
"348 84 LINE",
"232 84 LINE",
"232 452 LINE",
"400 452 LINE",
"400 536 LINE",
"232 536 LINE",
"232 606 LINE SMOOTH",
"232 682 OFFCURVE",
"272 718 OFFCURVE",
"350 718 CURVE SMOOTH",
"413 718 OFFCURVE",
"450 695 OFFCURVE",
"473 636 CURVE"
);
}
);
width = 413;
},
{
layerId = "2C5E45D0-97E8-45AA-A5B2-946753DF54E1";
rightMetricsKey = "=|n-109";
paths = (
{
closed = 1;
nodes = (
"353 0 LINE",
"353 84 LINE",
"232 84 LINE",
"232 452 LINE",
"400 452 LINE",
"400 536 LINE",
"232 536 LINE",
"232 606 LINE SMOOTH",
"232 677 OFFCURVE",
"262 711 OFFCURVE",
"318 711 CURVE SMOOTH",
"361 711 OFFCURVE",
"389 690 OFFCURVE",
"399 648 CURVE",
"487 675 LINE",
"469 756 OFFCURVE",
"416 800 OFFCURVE",
"317 800 CURVE SMOOTH",
"190 800 OFFCURVE",
"134 726 OFFCURVE",
"134 606 CURVE SMOOTH",
"134 536 LINE",
"32 536 LINE",
"32 452 LINE",
"134 452 LINE",
"134 84 LINE",
"32 84 LINE",
"32 0 LINE"
);
}
);
width = 410;
}
);
leftMetricsKey = n;
unicode = 0066;
},
{
glyphname = f.ss01;
lastChange = "2018-03-09 21:13:01 +0000";
layers = (
{
layerId = "67AEAADB-8447-4819-9D92-8BB76BD22042";
rightMetricsKey = "=n-110";
paths = (
{
closed = 1;
nodes = (
"158 636 LINE SMOOTH",
"158 730 OFFCURVE",
"210 785 OFFCURVE",
"308 785 CURVE",
"420 785 LINE",
"420 790 LINE",
"308 790 LINE",
"207 790 OFFCURVE",
"153 733 OFFCURVE",
"153 636 CURVE SMOOTH",
"153 524 LINE",
"39 524 LINE",
"39 519 LINE",
"153 519 LINE",
"153 5 LINE",
"39 5 LINE",
"39 0 LINE",
"288 0 LINE",
"288 5 LINE",
"158 5 LINE",
"158 519 LINE",
"333 519 LINE",
"333 524 LINE",
"158 524 LINE"
);
}
);
width = 327;
},
{
layerId = "BE4E587A-F76C-447B-AA28-A45E40876AAF";
paths = (
{
closed = 1;
nodes = (
"347 583 LINE SMOOTH",
"347 598 OFFCURVE",
"360 608 OFFCURVE",
"385 608 CURVE SMOOTH",
"538 608 LINE",
"538 790 LINE",
"364 790 LINE SMOOTH",
"179 790 OFFCURVE",
"93 720 OFFCURVE",
"93 583 CURVE SMOOTH",
"93 580 LINE",
"18 580 LINE",
"18 377 LINE",
"93 377 LINE",
"93 203 LINE",
"18 203 LINE",
"18 0 LINE",
"440 0 LINE",
"440 203 LINE",
"347 203 LINE",
"347 377 LINE",
"488 377 LINE",
"488 580 LINE",
"347 580 LINE"
);
}
);
width = 546;
},
{
associatedMasterId = "67AEAADB-8447-4819-9D92-8BB76BD22042";
backgroundImage = {
crop = "{{0, 0}, {2448, 3264}}";
imagePath = "../Reference/Bruce/Bruce1848/1848 George Bruce & Co. type specimen book..jpg";
locked = "1";
transform = "{6.16431, 0, 0, 6.16431, -3842, -14088}";
};
layerId = "79B3B9FF-9A06-4F89-B827-3296CCDDD8C6";
name = "Dec 8 17, 15:51";
paths = (
{
closed = 1;
nodes = (
"535 738 OFFCURVE",
"465 801 OFFCURVE",
"340 801 CURVE SMOOTH",
"203 801 OFFCURVE",
"117 724 OFFCURVE",
"117 580 CURVE SMOOTH",
"117 552 LINE",
"23 552 LINE",
"23 406 LINE",
"116 406 LINE",
"116 146 LINE",
"23 146 LINE",
"23 0 LINE",
"372 0 LINE",
"372 146 LINE",
"287 146 LINE",
"287 406 LINE",
"402 406 LINE",
"402 552 LINE",
"287 552 LINE",
"287 584 LINE SMOOTH",
"287 628 OFFCURVE",
"322 662 OFFCURVE",
"394 662 CURVE SMOOTH",
"461 662 OFFCURVE",
"501 644 OFFCURVE",
"516 619 CURVE",
"535 619 LINE"
);
}
);
width = 422;
},
{
associatedMasterId = "67AEAADB-8447-4819-9D92-8BB76BD22042";
backgroundImage = {
crop = "{{0, 0}, {2448, 3264}}";
imagePath = "../Reference/Bruce/Bruce1848/1848 George Bruce & Co. type specimen book..jpg";
locked = "1";
transform = "{6.16431, 0, 0, 6.16431, -3842, -14088}";
};
layerId = "0CAEAC39-57A6-47AF-928C-E8B67783A302";
name = "Dec 10 17, 21:39";
paths = (
{
closed = 1;
nodes = (
"287 605 LINE SMOOTH",
"287 634 OFFCURVE",
"303 650 OFFCURVE",
"335 650 CURVE SMOOTH",
"366 650 OFFCURVE",
"381 635 OFFCURVE",
"381 609 CURVE",
"535 609 LINE",
"535 731 OFFCURVE",
"476 801 OFFCURVE",
"332 801 CURVE SMOOTH",
"185 801 OFFCURVE",
"117 726 OFFCURVE",
"117 605 CURVE SMOOTH",
"117 554 LINE",
"23 554 LINE",
"23 408 LINE",
"116 408 LINE",
"116 146 LINE",
"23 146 LINE",
"23 0 LINE",
"372 0 LINE",
"372 146 LINE",
"287 146 LINE",
"287 408 LINE",
"412 408 LINE",
"412 554 LINE",
"287 554 LINE"
);
}
);
width = 440;
},
{
associatedMasterId = "67AEAADB-8447-4819-9D92-8BB76BD22042";
backgroundImage = {
crop = "{{0, 0}, {2448, 3264}}";
imagePath = "../Reference/Bruce/Bruce1848/1848 George Bruce & Co. type specimen book..jpg";
locked = "1";
transform = "{6.16431, 0, 0, 6.16431, -3852, -14088}";
};
layerId = "2214ED82-5822-4037-94AA-E449E18DBE6F";
name = "Dec 10 17, 22:57";
paths = (
{
closed = 1;
nodes = (
"277 585 LINE SMOOTH",
"277 629 OFFCURVE",
"307 654 OFFCURVE",
"371 654 CURVE SMOOTH",
"407 654 OFFCURVE",
"442 646 OFFCURVE",
"482 634 CURVE",
"482 780 LINE",
"435 792 OFFCURVE",
"387 801 OFFCURVE",
"336 801 CURVE SMOOTH",
"182 799 OFFCURVE",
"107 718 OFFCURVE",
"107 585 CURVE SMOOTH",
"107 554 LINE",
"23 554 LINE",
"23 408 LINE",
"106 408 LINE",
"106 146 LINE",
"23 146 LINE",
"23 0 LINE",
"390 0 LINE",
"390 146 LINE",
"277 146 LINE",
"277 408 LINE",
"422 408 LINE",
"422 554 LINE",
"277 554 LINE"
);
}
);
width = 450;
},
{
associatedMasterId = "2C5E45D0-97E8-45AA-A5B2-946753DF54E1";
layerId = "3F865A77-270D-4F46-9C9B-B7A697C9068F";
name = AntiLig;
paths = (
{
closed = 1;
nodes = (
"427 790 LINE",
"392 796 OFFCURVE",
"357 800 OFFCURVE",
"325 800 CURVE SMOOTH",
"191 800 OFFCURVE",
"129 717 OFFCURVE",
"129 584 CURVE SMOOTH",
"129 536 LINE",
"30 536 LINE",
"30 452 LINE",
"128 452 LINE",
"128 84 LINE",
"30 84 LINE",
"30 0 LINE",
"361 0 LINE",
"361 84 LINE",
"226 84 LINE",
"226 452 LINE",
"394 452 LINE",
"394 536 LINE",
"226 536 LINE",
"226 584 LINE SMOOTH",
"226 675 OFFCURVE",
"264 711 OFFCURVE",
"349 711 CURVE SMOOTH",
"376 711 OFFCURVE",
"401 709 OFFCURVE",
"427 706 CURVE"
);
}
);
width = 402;
},
{
associatedMasterId = "2C5E45D0-97E8-45AA-A5B2-946753DF54E1";
layerId = "883921FD-9ADC-4BA6-A5C9-6DAB5A8FB23E";
rightMetricsKey = "=|n-109";
name = "Dec 17 17, 15:29";
paths = (
{
closed = 1;
nodes = (
"485 675 LINE",
"467 756 OFFCURVE",
"414 800 OFFCURVE",
"315 800 CURVE SMOOTH",
"189 800 OFFCURVE",
"133 726 OFFCURVE",
"133 606 CURVE SMOOTH",
"133 536 LINE",
"30 536 LINE",
"30 452 LINE",
"132 452 LINE",
"132 84 LINE",
"30 84 LINE",
"30 0 LINE",
"365 0 LINE",
"365 84 LINE",
"230 84 LINE",
"230 452 LINE",
"398 452 LINE",
"398 536 LINE",
"230 536 LINE",
"230 606 LINE SMOOTH",
"230 677 OFFCURVE",
"260 711 OFFCURVE",
"316 711 CURVE SMOOTH",
"359 711 OFFCURVE",
"387 690 OFFCURVE",
"397 648 CURVE"
);
}
);
width = 406;
},
{
layerId = "2C5E45D0-97E8-45AA-A5B2-946753DF54E1";
rightMetricsKey = "=|n-92";
paths = (
{
closed = 1;
nodes = (
"232 574 LINE SMOOTH",
"232 669 OFFCURVE",
"270 706 OFFCURVE",
"355 706 CURVE SMOOTH",
"456 706 LINE",
"456 790 LINE",
"355 790 LINE SMOOTH",
"204 790 OFFCURVE",
"134 707 OFFCURVE",
"134 574 CURVE SMOOTH",
"134 536 LINE",
"32 536 LINE",
"32 452 LINE",
"134 452 LINE",
"134 84 LINE",
"32 84 LINE",
"32 0 LINE",
"347 0 LINE",
"347 84 LINE",
"232 84 LINE",
"232 452 LINE",
"393 452 LINE",
"393 536 LINE",
"232 536 LINE"
);
}
);
width = 396;
}
);
leftMetricsKey = n;
rightMetricsKey = n;
},
{
color = 0;
glyphname = g;
lastChange = "2018-03-02 16:09:41 +0000";
layers = (
{
associatedMasterId = "67AEAADB-8447-4819-9D92-8BB76BD22042";
backgroundImage = {
crop = "{{0, 0}, {1500, 1000}}";
imagePath = ../Reference/Primus/bruce2.jpg;
locked = "1";
transform = "{17.50202, -0.9218, -1.21039, 17.46069, -14314, -8816}";
};
layerId = "CE8EAE0A-6EE5-4F1A-997E-17CDA2E94BB2";
name = OG;
paths = (
{
closed = 1;
nodes = (
"425 -184 OFFCURVE",
"502 -113 OFFCURVE",
"502 -28 CURVE SMOOTH",
"502 91 OFFCURVE",
"390 110 OFFCURVE",
"248 110 CURVE SMOOTH",
"196 110 OFFCURVE",
"170 113 OFFCURVE",
"170 146 CURVE SMOOTH",
"170 158 OFFCURVE",
"176 170 OFFCURVE",
"199 187 CURVE",
"156 195 LINE",
"156 174 LINE",
"103 162 OFFCURVE",
"50 138 OFFCURVE",
"50 82 CURVE SMOOTH",
"50 14 OFFCURVE",
"115 -10 OFFCURVE",
"253 -10 CURVE SMOOTH",
"326 -10 OFFCURVE",
"362 -17 OFFCURVE",
"362 -51 CURVE SMOOTH",
"362 -90 OFFCURVE",
"323 -101 OFFCURVE",
"252 -101 CURVE SMOOTH",
"208 -101 OFFCURVE",
"170 -92 OFFCURVE",
"170 -58 CURVE SMOOTH",
"170 -33 OFFCURVE",
"183 -9 OFFCURVE",
"236 7 CURVE",
"186 5 LINE",
"186 -4 LINE",
"114 -16 OFFCURVE",
"52 -43 OFFCURVE",
"52 -97 CURVE SMOOTH",
"52 -161 OFFCURVE",
"125 -184 OFFCURVE",
"251 -184 CURVE SMOOTH"
);
},
{
closed = 1;
nodes = (
"361 157 OFFCURVE",
"438 217 OFFCURVE",
"438 310 CURVE SMOOTH",
"438 403 OFFCURVE",
"361 463 OFFCURVE",
"253 463 CURVE SMOOTH",
"144 463 OFFCURVE",
"67 403 OFFCURVE",
"67 310 CURVE SMOOTH",
"67 217 OFFCURVE",
"154 157 OFFCURVE",
"253 157 CURVE SMOOTH"
);
},
{
closed = 1;
nodes = (
"222 253 OFFCURVE",
"200 276 OFFCURVE",
"200 310 CURVE SMOOTH",
"200 344 OFFCURVE",
"222 367 OFFCURVE",
"253 367 CURVE SMOOTH",
"283 367 OFFCURVE",
"305 344 OFFCURVE",
"305 310 CURVE SMOOTH",
"305 276 OFFCURVE",
"283 253 OFFCURVE",
"253 253 CURVE SMOOTH"
);
},
{
closed = 1;
nodes = (
"418 367 OFFCURVE",
"462 380 OFFCURVE",
"492 380 CURVE",
"492 474 LINE",
"449 474 OFFCURVE",
"396 413 OFFCURVE",
"392 372 CURVE",
"402 344 LINE"
);
}
);
width = 520;
},
{
associatedMasterId = "67AEAADB-8447-4819-9D92-8BB76BD22042";
backgroundImage = {
crop = "{{0, 0}, {1500, 1000}}";
imagePath = ../Reference/Primus/bruce2.jpg;
locked = "1";
transform = "{17.50202, -0.9218, -1.21039, 17.46069, -14322, -8816}";
};
layerId = "1CEC831F-B474-45C4-A30F-125851612316";
name = LargerTop;
paths = (
{
closed = 1;
nodes = (
"433 -184 OFFCURVE",
"504 -137 OFFCURVE",
"504 -37 CURVE SMOOTH",
"504 80 OFFCURVE",
"419 101 OFFCURVE",
"321 101 CURVE SMOOTH",
"230 101 LINE SMOOTH",
"186 101 OFFCURVE",
"164 103 OFFCURVE",
"164 127 CURVE SMOOTH",
"164 137 OFFCURVE",
"170 148 OFFCURVE",
"191 162 CURVE",
"121 188 LINE",
"121 167 LINE",
"79 156 OFFCURVE",
"36 134 OFFCURVE",
"36 82 CURVE SMOOTH",
"36 20 OFFCURVE",
"94 -10 OFFCURVE",
"185 -10 CURVE SMOOTH",
"321 -10 LINE SMOOTH",
"358 -10 OFFCURVE",
"376 -18 OFFCURVE",
"376 -46 CURVE SMOOTH",
"376 -72 OFFCURVE",
"343 -89 OFFCURVE",
"276 -89 CURVE SMOOTH",
"224 -89 OFFCURVE",
"178 -80 OFFCURVE",
"178 -47 CURVE SMOOTH",
"178 -30 OFFCURVE",
"190 -17 OFFCURVE",
"238 -3 CURVE",
"178 -4 LINE",
"178 -13 LINE",
"104 -23 OFFCURVE",
"40 -51 OFFCURVE",
"40 -101 CURVE SMOOTH",
"40 -162 OFFCURVE",
"125 -184 OFFCURVE",
"272 -184 CURVE SMOOTH"
);
},
{
closed = 1;
nodes = (
"364 133 OFFCURVE",
"445 198 OFFCURVE",
"445 298 CURVE SMOOTH",
"445 398 OFFCURVE",
"364 463 OFFCURVE",
"250 463 CURVE SMOOTH",
"135 463 OFFCURVE",
"54 398 OFFCURVE",
"54 298 CURVE SMOOTH",
"54 198 OFFCURVE",
"146 133 OFFCURVE",
"250 133 CURVE SMOOTH"
);
},
{
closed = 1;
nodes = (
"217 234 OFFCURVE",
"194 260 OFFCURVE",
"194 298 CURVE SMOOTH",
"194 336 OFFCURVE",
"217 362 OFFCURVE",
"250 362 CURVE SMOOTH",
"282 362 OFFCURVE",
"305 336 OFFCURVE",
"305 298 CURVE SMOOTH",
"305 260 OFFCURVE",
"282 234 OFFCURVE",
"250 234 CURVE SMOOTH"
);
},
{
closed = 1;
nodes = (
"431 366 OFFCURVE",
"468 371 OFFCURVE",
"508 371 CURVE",
"508 475 LINE",
"463 475 OFFCURVE",
"428 448 OFFCURVE",
"415 403 CURVE",
"389 403 LINE",
"408 344 LINE"
);
}
);
width = 542;
},
{
associatedMasterId = "67AEAADB-8447-4819-9D92-8BB76BD22042";
backgroundImage = {
crop = "{{0, 0}, {1500, 1000}}";
imagePath = ../Reference/Primus/bruce2.jpg;
locked = "1";
transform = "{17.50202, -0.9218, -1.21039, 17.46069, -14322, -8816}";
};
layerId = "A135F141-A268-4E26-ACBF-354815485A64";
name = Regular;
paths = (
{
closed = 1;
nodes = (
"429 -184 OFFCURVE",
"504 -137 OFFCURVE",
"504 -28 CURVE SMOOTH",
"504 85 OFFCURVE",
"419 106 OFFCURVE",
"321 106 CURVE SMOOTH",
"230 106 LINE SMOOTH",
"193 106 OFFCURVE",
"174 109 OFFCURVE",
"174 139 CURVE SMOOTH",
"174 153 OFFCURVE",
"182 167 OFFCURVE",
"211 187 CURVE",
"148 197 LINE",
"148 176 LINE",
"92 164 OFFCURVE",
"36 140 OFFCURVE",
"36 82 CURVE SMOOTH",
"36 27 OFFCURVE",
"94 0 OFFCURVE",
"185 0 CURVE SMOOTH",
"311 0 LINE SMOOTH",
"348 0 OFFCURVE",
"366 -9 OFFCURVE",
"366 -41 CURVE SMOOTH",
"366 -70 OFFCURVE",
"334 -89 OFFCURVE",
"269 -89 CURVE SMOOTH",
"220 -89 OFFCURVE",
"178 -79 OFFCURVE",
"178 -42 CURVE SMOOTH",
"178 -23 OFFCURVE",
"190 -5 OFFCURVE",
"238 7 CURVE",
"178 6 LINE",
"178 -3 LINE",
"104 -15 OFFCURVE",
"40 -45 OFFCURVE",
"40 -101 CURVE SMOOTH",
"40 -162 OFFCURVE",
"121 -184 OFFCURVE",
"260 -184 CURVE SMOOTH"
);
},
{
closed = 1;
nodes = (
"364 157 OFFCURVE",
"445 217 OFFCURVE",
"445 310 CURVE SMOOTH",
"445 403 OFFCURVE",
"364 463 OFFCURVE",
"250 463 CURVE SMOOTH",
"135 463 OFFCURVE",
"54 403 OFFCURVE",
"54 310 CURVE SMOOTH",
"54 217 OFFCURVE",
"146 157 OFFCURVE",
"250 157 CURVE SMOOTH"
);
},
{
closed = 1;
nodes = (
"217 253 OFFCURVE",
"194 276 OFFCURVE",
"194 310 CURVE SMOOTH",
"194 344 OFFCURVE",
"217 367 OFFCURVE",
"250 367 CURVE SMOOTH",
"282 367 OFFCURVE",
"305 344 OFFCURVE",
"305 310 CURVE SMOOTH",
"305 276 OFFCURVE",
"282 253 OFFCURVE",
"250 253 CURVE SMOOTH"
);
},
{
closed = 1;
nodes = (
"431 366 OFFCURVE",
"468 371 OFFCURVE",
"508 371 CURVE",
"508 475 LINE",
"463 475 OFFCURVE",
"428 448 OFFCURVE",
"415 403 CURVE",
"389 403 LINE",
"408 344 LINE"
);
}
);
width = 542;
},
{
anchors = (
{
name = top;
position = "{301, 524}";
}
);
layerId = "67AEAADB-8447-4819-9D92-8BB76BD22042";
paths = (
{
closed = 1;
nodes = (
"481 -216 OFFCURVE",
"561 -151 OFFCURVE",
"561 -61 CURVE SMOOTH",
"561 11 OFFCURVE",
"510 50 OFFCURVE",
"412 50 CURVE SMOOTH",
"209 50 LINE SMOOTH",
"136 50 OFFCURVE",
"103 70 OFFCURVE",
"103 107 CURVE SMOOTH",
"103 154 OFFCURVE",
"161 171 OFFCURVE",
"248 171 CURVE SMOOTH",
"300 171 LINE",
"248 179 LINE",
"248 174 LINE",
"155 174 OFFCURVE",
"98 157 OFFCURVE",
"98 107 CURVE SMOOTH",
"98 67 OFFCURVE",
"133 45 OFFCURVE",
"208 45 CURVE SMOOTH",
"412 45 LINE SMOOTH",
"507 45 OFFCURVE",
"556 8 OFFCURVE",
"556 -61 CURVE SMOOTH",
"556 -148 OFFCURVE",
"478 -211 OFFCURVE",
"311 -211 CURVE SMOOTH",
"158 -211 OFFCURVE",
"65 -177 OFFCURVE",
"65 -87 CURVE SMOOTH",
"65 -8 OFFCURVE",
"133 44 OFFCURVE",
"274 45 CURVE",
"214 48 LINE",
"214 44 LINE",
"121 32 OFFCURVE",
"60 -8 OFFCURVE",
"60 -88 CURVE SMOOTH",
"60 -180 OFFCURVE",
"155 -216 OFFCURVE",
"311 -216 CURVE SMOOTH"
);
},
{
closed = 1;
nodes = (
"420 171 OFFCURVE",
"506 242 OFFCURVE",
"506 351 CURVE SMOOTH",
"506 460 OFFCURVE",
"420 532 OFFCURVE",
"300 532 CURVE SMOOTH",
"179 532 OFFCURVE",
"93 460 OFFCURVE",
"93 351 CURVE SMOOTH",
"93 242 OFFCURVE",
"181 171 OFFCURVE",
"300 171 CURVE SMOOTH"
);
},
{
closed = 1;
nodes = (
"184 176 OFFCURVE",
"98 245 OFFCURVE",
"98 351 CURVE SMOOTH",
"98 457 OFFCURVE",
"182 527 OFFCURVE",
"300 527 CURVE SMOOTH",
"417 527 OFFCURVE",
"501 457 OFFCURVE",
"501 351 CURVE SMOOTH",
"501 245 OFFCURVE",
"417 176 OFFCURVE",
"300 176 CURVE SMOOTH"
);
},
{
closed = 1;
nodes = (
"506 417 OFFCURVE",
"486 422 OFFCURVE",
"486 456 CURVE SMOOTH",
"486 490 OFFCURVE",
"508 535 OFFCURVE",
"558 535 CURVE SMOOTH",
"592 535 LINE",
"592 540 LINE",
"558 540 LINE SMOOTH",
"505 540 OFFCURVE",
"483 494 OFFCURVE",
"483 456 CURVE SMOOTH",
"483 443 LINE",
"480 443 LINE",
"495 408 LINE",
"506 351 LINE"
);
}
);
width = 609;
},
{
associatedMasterId = "67AEAADB-8447-4819-9D92-8BB76BD22042";
backgroundImage = {
crop = "{{0, 0}, {1500, 1000}}";
imagePath = ../Reference/Primus/bruce2.jpg;
locked = "1";
transform = "{21.34704, -1.12431, -1.4763, 21.29663, -17470, -10785}";
};
layerId = "896EDB8A-8247-47A3-A749-554D6B319006";
leftMetricsKey = "=o+6";
rightMetricsKey = "=n+20";
name = "1-Storey";
paths = (
{
closed = 1;
nodes = (
"450 418 LINE",
"450 43 LINE SMOOTH",
"450 -46 OFFCURVE",
"387 -75 OFFCURVE",
"323 -75 CURVE SMOOTH",
"265 -75 OFFCURVE",
"230 -62 OFFCURVE",
"211 -24 CURVE",
"47 -71 LINE",
"72 -160 OFFCURVE",
"134 -222 OFFCURVE",
"323 -222 CURVE SMOOTH",
"502 -222 OFFCURVE",
"621 -159 OFFCURVE",
"621 32 CURVE SMOOTH",
"621 570 LINE",
"616 570 LINE"
);
},
{
closed = 1;
nodes = (
"261 146 OFFCURVE",
"214 197 OFFCURVE",
"214 271 CURVE SMOOTH",
"214 347 OFFCURVE",
"261 403 OFFCURVE",
"333 403 CURVE SMOOTH",
"390 403 OFFCURVE",
"450 368 OFFCURVE",
"450 271 CURVE",
"548 462 LINE",
"531 462 LINE",
"476 530 OFFCURVE",
"396 558 OFFCURVE",
"316 558 CURVE SMOOTH",
"155 558 OFFCURVE",
"37 450 OFFCURVE",
"37 271 CURVE SMOOTH",
"37 114 OFFCURVE",
"122 -15 OFFCURVE",
"278 -15 CURVE SMOOTH",
"369 -15 OFFCURVE",
"426 31 OFFCURVE",
"445 135 CURVE",
"466 135 LINE",
"450 271 LINE",
"450 178 OFFCURVE",
"390 146 OFFCURVE",
"333 146 CURVE SMOOTH"
);
}
);
width = 657;
},
{
associatedMasterId = "67AEAADB-8447-4819-9D92-8BB76BD22042";
backgroundImage = {
crop = "{{0, 0}, {1500, 1000}}";
imagePath = ../Reference/Primus/bruce2.jpg;
locked = "1";
transform = "{21.34704, -1.12431, -1.4763, 21.29663, -17470, -10785}";
};
layerId = "69594C78-2B95-4BBD-8975-04D0042CA31F";
name = "1S-2";
paths = (
{
closed = 1;
nodes = (
"95 -196 LINE",
"156 -213 OFFCURVE",
"223 -222 OFFCURVE",
"297 -222 CURVE SMOOTH",
"492 -222 OFFCURVE",
"621 -149 OFFCURVE",
"621 72 CURVE SMOOTH",
"621 408 LINE",
"684 408 LINE",
"684 554 LINE",
"450 554 LINE",
"450 83 LINE SMOOTH",
"450 -34 OFFCURVE",
"390 -71 OFFCURVE",
"292 -71 CURVE SMOOTH",
"243 -71 OFFCURVE",
"158 -62 OFFCURVE",
"95 -37 CURVE"
);
},
{
closed = 1;
nodes = (
"368 -14 OFFCURVE",
"425 32 OFFCURVE",
"445 136 CURVE",
"466 136 LINE",
"450 272 LINE",
"450 179 OFFCURVE",
"389 147 OFFCURVE",
"332 147 CURVE SMOOTH",
"261 147 OFFCURVE",
"214 198 OFFCURVE",
"214 272 CURVE SMOOTH",
"214 348 OFFCURVE",
"261 404 OFFCURVE",
"332 404 CURVE SMOOTH",
"389 404 OFFCURVE",
"450 369 OFFCURVE",
"450 272 CURVE",
"462 513 LINE",
"445 513 LINE",
"407 546 OFFCURVE",
"352 559 OFFCURVE",
"298 559 CURVE SMOOTH",
"146 559 OFFCURVE",
"37 451 OFFCURVE",
"37 272 CURVE SMOOTH",
"37 115 OFFCURVE",
"122 -14 OFFCURVE",
"277 -14 CURVE SMOOTH"
);
}
);
width = 700;
},
{
associatedMasterId = "67AEAADB-8447-4819-9D92-8BB76BD22042";
backgroundImage = {
crop = "{{0, 0}, {1500, 1000}}";
imagePath = ../Reference/Primus/bruce2.jpg;
locked = "1";
transform = "{21.34704, -1.12431, -1.4763, 21.29663, -17481, -10785}";
};
layerId = "F1FC7E50-F694-44D5-9FFD-CB39B1A13408";
name = SmallTop;
paths = (
{
closed = 1;
nodes = (
"511 -223 OFFCURVE",
"602 -146 OFFCURVE",
"602 -29 CURVE SMOOTH",
"602 93 OFFCURVE",
"504 148 OFFCURVE",
"391 148 CURVE SMOOTH",
"271 148 LINE SMOOTH",
"225 148 OFFCURVE",
"202 153 OFFCURVE",
"202 174 CURVE SMOOTH",
"202 201 OFFCURVE",
"240 205 OFFCURVE",
"292 205 CURVE",
"193 241 LINE",
"193 215 LINE",
"113 200 OFFCURVE",
"31 171 OFFCURVE",
"31 102 CURVE SMOOTH",
"31 34 OFFCURVE",
"102 1 OFFCURVE",
"213 1 CURVE SMOOTH",
"367 1 LINE SMOOTH",
"412 1 OFFCURVE",
"434 -16 OFFCURVE",
"434 -46 CURVE SMOOTH",
"434 -86 OFFCURVE",
"395 -107 OFFCURVE",
"314 -107 CURVE SMOOTH",
"252 -107 OFFCURVE",
"204 -95 OFFCURVE",
"204 -51 CURVE SMOOTH",
"204 -27 OFFCURVE",
"219 -5 OFFCURVE",
"278 10 CURVE",
"204 8 LINE",
"204 -3 LINE",
"118 -18 OFFCURVE",
"42 -55 OFFCURVE",
"42 -122 CURVE SMOOTH",
"42 -196 OFFCURVE",
"138 -223 OFFCURVE",
"304 -223 CURVE SMOOTH"
);
},
{
closed = 1;
nodes = (
"434 205 OFFCURVE",
"535 276 OFFCURVE",
"535 386 CURVE SMOOTH",
"535 495 OFFCURVE",
"434 566 OFFCURVE",
"292 566 CURVE SMOOTH",
"149 566 OFFCURVE",
"48 495 OFFCURVE",
"48 386 CURVE SMOOTH",
"48 276 OFFCURVE",
"151 205 OFFCURVE",
"292 205 CURVE SMOOTH"
);
},
{
closed = 1;
nodes = (
"252 316 OFFCURVE",
"224 344 OFFCURVE",
"224 386 CURVE SMOOTH",
"224 427 OFFCURVE",
"252 455 OFFCURVE",
"292 455 CURVE SMOOTH",
"331 455 OFFCURVE",
"359 427 OFFCURVE",
"359 386 CURVE SMOOTH",
"359 344 OFFCURVE",
"331 316 OFFCURVE",
"292 316 CURVE SMOOTH"
);
},
{
closed = 1;
nodes = (
"508 448 OFFCURVE",
"543 454 OFFCURVE",
"591 454 CURVE SMOOTH",
"618 454 LINE",
"618 587 LINE",
"604 587 LINE SMOOTH",
"552 587 OFFCURVE",
"521 545 OFFCURVE",
"511 477 CURVE",
"479 477 LINE",
"485 421 LINE"
);
}
);
width = 634;
},
{
associatedMasterId = "67AEAADB-8447-4819-9D92-8BB76BD22042";
backgroundImage = {
crop = "{{0, 0}, {1500, 1000}}";
imagePath = ../Reference/Primus/bruce2.jpg;
locked = "1";
transform = "{21.34704, -1.12431, -1.4763, 21.29663, -17480, -10785}";
};
layerId = "E2975CDF-3DEA-40A7-AF7D-0264933696EE";
name = Thick;
paths = (
{
closed = 1;
nodes = (
"512 -223 OFFCURVE",
"603 -146 OFFCURVE",
"603 -34 CURVE SMOOTH",
"603 72 OFFCURVE",
"505 118 OFFCURVE",
"392 118 CURVE SMOOTH",
"252 118 LINE SMOOTH",
"219 118 OFFCURVE",
"203 122 OFFCURVE",
"203 139 CURVE SMOOTH",
"203 162 OFFCURVE",
"232 165 OFFCURVE",
"293 165 CURVE",
"174 218 LINE",
"174 192 LINE",
"104 180 OFFCURVE",
"32 157 OFFCURVE",
"32 87 CURVE SMOOTH",
"32 18 OFFCURVE",
"103 -23 OFFCURVE",
"214 -23 CURVE SMOOTH",
"368 -23 LINE SMOOTH",
"413 -23 OFFCURVE",
"435 -36 OFFCURVE",
"435 -58 CURVE SMOOTH",
"435 -87 OFFCURVE",
"396 -102 OFFCURVE",
"315 -102 CURVE SMOOTH",
"247 -102 OFFCURVE",
"195 -93 OFFCURVE",
"195 -62 CURVE SMOOTH",
"195 -45 OFFCURVE",
"210 -33 OFFCURVE",
"269 -20 CURVE",
"181 -15 LINE",
"181 -26 LINE",
"91 -36 OFFCURVE",
"31 -66 OFFCURVE",
"31 -123 CURVE SMOOTH",
"31 -196 OFFCURVE",
"131 -223 OFFCURVE",
"300 -223 CURVE SMOOTH"
);
},
{
closed = 1;
nodes = (
"435 165 OFFCURVE",
"536 244 OFFCURVE",
"536 366 CURVE SMOOTH",
"536 487 OFFCURVE",
"435 566 OFFCURVE",
"293 566 CURVE SMOOTH",
"150 566 OFFCURVE",
"49 487 OFFCURVE",
"49 366 CURVE SMOOTH",
"49 244 OFFCURVE",
"152 165 OFFCURVE",
"293 165 CURVE SMOOTH"
);
},
{
closed = 1;
nodes = (
"253 294 OFFCURVE",
"225 323 OFFCURVE",
"225 366 CURVE SMOOTH",
"225 408 OFFCURVE",
"253 437 OFFCURVE",
"293 437 CURVE SMOOTH",
"332 437 OFFCURVE",
"360 408 OFFCURVE",
"360 366 CURVE SMOOTH",
"360 323 OFFCURVE",
"332 294 OFFCURVE",
"293 294 CURVE SMOOTH"
);
},
{
closed = 1;
nodes = (
"536 411 OFFCURVE",
"529 420 OFFCURVE",
"529 432 CURVE SMOOTH",
"529 447 OFFCURVE",
"542 456 OFFCURVE",
"577 456 CURVE SMOOTH",
"597 456 OFFCURVE",
"609 453 OFFCURVE",
"619 449 CURVE",
"619 587 LINE",
"609 589 OFFCURVE",
"602 590 OFFCURVE",
"594 590 CURVE SMOOTH",
"544 590 OFFCURVE",
"515 547 OFFCURVE",
"506 477 CURVE",
"480 477 LINE",
"536 366 LINE"
);
}
);
width = 627;
},
{
anchors = (
{
name = top;
position = "{289, 536}";
}
);
layerId = "2C5E45D0-97E8-45AA-A5B2-946753DF54E1";
leftMetricsKey = "=o+1";
rightMetricsKey = "=n+4";
paths = (
{
closed = 1;
nodes = (
"507 -223 OFFCURVE",
"574 -149 OFFCURVE",
"574 -55 CURVE SMOOTH",
"574 34 OFFCURVE",
"513 91 OFFCURVE",
"409 91 CURVE SMOOTH",
"241 91 LINE SMOOTH",
"190 91 OFFCURVE",
"165 101 OFFCURVE",
"165 129 CURVE SMOOTH",
"165 158 OFFCURVE",
"192 171 OFFCURVE",
"240 171 CURVE SMOOTH",
"286 171 LINE",
"197 199 LINE",
"197 180 LINE",
"118 172 OFFCURVE",
"72 143 OFFCURVE",
"72 89 CURVE SMOOTH",
"72 31 OFFCURVE",
"125 0 OFFCURVE",
"209 0 CURVE SMOOTH",
"412 0 LINE SMOOTH",
"460 0 OFFCURVE",
"484 -19 OFFCURVE",
"484 -58 CURVE SMOOTH",
"484 -117 OFFCURVE",
"427 -148 OFFCURVE",
"304 -148 CURVE SMOOTH",
"211 -148 OFFCURVE",
"133 -132 OFFCURVE",
"133 -72 CURVE SMOOTH",
"133 -41 OFFCURVE",
"159 0 OFFCURVE",
"262 0 CURVE",
"171 10 LINE",
"171 -1 LINE",
"96 -11 OFFCURVE",
"43 -40 OFFCURVE",
"43 -100 CURVE SMOOTH",
"43 -189 OFFCURVE",
"160 -223 OFFCURVE",
"300 -223 CURVE SMOOTH"
);
},
{
closed = 1;
nodes = (
"416 171 OFFCURVE",
"509 245 OFFCURVE",
"509 358 CURVE SMOOTH",
"509 471 OFFCURVE",
"416 546 OFFCURVE",
"286 546 CURVE SMOOTH",
"155 546 OFFCURVE",
"62 471 OFFCURVE",
"62 358 CURVE SMOOTH",
"62 245 OFFCURVE",
"157 171 OFFCURVE",
"286 171 CURVE SMOOTH"
);
},
{
closed = 1;
nodes = (
"212 251 OFFCURVE",
"158 293 OFFCURVE",
"158 358 CURVE SMOOTH",
"158 423 OFFCURVE",
"212 466 OFFCURVE",
"286 466 CURVE SMOOTH",
"359 466 OFFCURVE",
"413 423 OFFCURVE",
"413 358 CURVE SMOOTH",
"413 293 OFFCURVE",
"359 251 OFFCURVE",
"286 251 CURVE SMOOTH"
);
},
{
closed = 1;
nodes = (
"509 410 OFFCURVE",
"492 432 OFFCURVE",
"492 448 CURVE SMOOTH",
"492 457 OFFCURVE",
"497 467 OFFCURVE",
"523 467 CURVE SMOOTH",
"586 467 LINE",
"586 557 LINE",
"559 557 LINE SMOOTH",
"511 557 OFFCURVE",
"481 525 OFFCURVE",
"481 468 CURVE SMOOTH",
"481 462 LINE",
"455 462 LINE",
"478 417 LINE",
"509 358 LINE"
);
}
);
width = 605;
},
{
associatedMasterId = "2C5E45D0-97E8-45AA-A5B2-946753DF54E1";
layerId = "A474CF1E-1099-4439-9268-7705DB207991";
leftMetricsKey = "=o+10";
rightMetricsKey = "=n+10";
name = "Dec 25 17, 02:15";
paths = (
{
closed = 1;
nodes = (
"514 -223 OFFCURVE",
"581 -153 OFFCURVE",
"581 -62 CURVE SMOOTH",
"581 36 OFFCURVE",
"507 74 OFFCURVE",
"419 74 CURVE SMOOTH",
"250 74 LINE SMOOTH",
"193 74 OFFCURVE",
"165 86 OFFCURVE",
"165 119 CURVE SMOOTH",
"165 157 OFFCURVE",
"194 171 OFFCURVE",
"293 171 CURVE",
"203 200 LINE",
"203 181 LINE",
"132 172 OFFCURVE",
"77 140 OFFCURVE",
"77 83 CURVE SMOOTH",
"77 23 OFFCURVE",
"135 -10 OFFCURVE",
"227 -10 CURVE SMOOTH",
"423 -10 LINE SMOOTH",
"471 -10 OFFCURVE",
"495 -30 OFFCURVE",
"495 -66 CURVE SMOOTH",
"495 -120 OFFCURVE",
"437 -147 OFFCURVE",
"313 -147 CURVE SMOOTH",
"218 -147 OFFCURVE",
"138 -133 OFFCURVE",
"138 -78 CURVE SMOOTH",
"138 -50 OFFCURVE",
"164 -27 OFFCURVE",
"266 -8 CURVE",
"186 -1 LINE",
"186 -12 LINE",
"105 -21 OFFCURVE",
"52 -50 OFFCURVE",
"52 -109 CURVE SMOOTH",
"52 -192 OFFCURVE",
"169 -223 OFFCURVE",
"309 -223 CURVE SMOOTH"
);
},
{
closed = 1;
nodes = (
"422 171 OFFCURVE",
"514 245 OFFCURVE",
"514 358 CURVE SMOOTH",
"514 471 OFFCURVE",
"422 546 OFFCURVE",
"293 546 CURVE SMOOTH",
"163 546 OFFCURVE",
"71 471 OFFCURVE",
"71 358 CURVE SMOOTH",
"71 245 OFFCURVE",
"165 171 OFFCURVE",
"293 171 CURVE SMOOTH"
);
},
{
closed = 1;
nodes = (
"218 247 OFFCURVE",
"164 291 OFFCURVE",
"164 358 CURVE SMOOTH",
"164 425 OFFCURVE",
"218 470 OFFCURVE",
"293 470 CURVE SMOOTH",
"367 470 OFFCURVE",
"421 425 OFFCURVE",
"421 358 CURVE SMOOTH",
"421 291 OFFCURVE",
"367 247 OFFCURVE",
"293 247 CURVE SMOOTH"
);
},
{
closed = 1;
nodes = (
"514 409 OFFCURVE",
"495 431 OFFCURVE",
"495 446 CURVE SMOOTH",
"495 457 OFFCURVE",
"505 467 OFFCURVE",
"538 467 CURVE SMOOTH",
"557 467 OFFCURVE",
"569 464 OFFCURVE",
"580 460 CURVE",
"580 554 LINE",
"573 556 OFFCURVE",
"564 557 OFFCURVE",
"556 557 CURVE SMOOTH",
"509 557 OFFCURVE",
"490 522 OFFCURVE",
"483 465 CURVE",
"457 465 LINE",
"483 417 LINE",
"514 358 LINE"
);
}
);
width = 599;
},
{
associatedMasterId = "2C5E45D0-97E8-45AA-A5B2-946753DF54E1";
layerId = "85EED980-E256-4227-B103-1ACE3138B81E";
leftMetricsKey = "=o+1";
rightMetricsKey = "=n+4";
name = "1S";
paths = (
{
closed = 1;
nodes = (
"471 -220 OFFCURVE",
"582 -158 OFFCURVE",
"582 29 CURVE SMOOTH",
"582 452 LINE",
"655 452 LINE",
"655 536 LINE",
"484 536 LINE",
"484 399 LINE",
"487 270 LINE",
"488 237 LINE",
"484 200 LINE",
"484 29 LINE SMOOTH",
"484 -92 OFFCURVE",
"399 -130 OFFCURVE",
"303 -130 CURVE SMOOTH",
"234 -130 OFFCURVE",
"178 -109 OFFCURVE",
"143 -39 CURVE",
"66 -84 LINE",
"101 -156 OFFCURVE",
"160 -220 OFFCURVE",
"308 -220 CURVE SMOOTH"
);
},
{
closed = 1;
nodes = (
"399 -10 OFFCURVE",
"460 52 OFFCURVE",
"480 144 CURVE",
"503 144 LINE",
"487 270 LINE",
"487 156 OFFCURVE",
"423 78 OFFCURVE",
"315 78 CURVE SMOOTH",
"212 78 OFFCURVE",
"143 156 OFFCURVE",
"143 270 CURVE SMOOTH",
"143 382 OFFCURVE",
"207 459 OFFCURVE",
"315 459 CURVE SMOOTH",
"425 459 OFFCURVE",
"487 381 OFFCURVE",
"487 270 CURVE",
"535 355 LINE",
"504 473 OFFCURVE",
"421 546 OFFCURVE",
"304 546 CURVE SMOOTH",
"144 546 OFFCURVE",
"43 432 OFFCURVE",
"43 270 CURVE SMOOTH",
"43 106 OFFCURVE",
"147 -10 OFFCURVE",
"293 -10 CURVE SMOOTH"
);
}
);
width = 674;
},
{
anchors = (
{
name = top;
position = "{289, 536}";
}
);
associatedMasterId = "2C5E45D0-97E8-45AA-A5B2-946753DF54E1";
layerId = "E9B8FE86-E088-43E9-B68F-6DF751DA47FF";
leftMetricsKey = "=o+1";
rightMetricsKey = "=n+4";
name = OG;
paths = (
{
closed = 1;
nodes = (
"507 -223 OFFCURVE",
"574 -151 OFFCURVE",
"574 -57 CURVE SMOOTH",
"574 42 OFFCURVE",
"499 80 OFFCURVE",
"409 80 CURVE SMOOTH",
"245 80 LINE SMOOTH",
"189 80 OFFCURVE",
"162 93 OFFCURVE",
"162 126 CURVE SMOOTH",
"162 160 OFFCURVE",
"191 175 OFFCURVE",
"244 175 CURVE SMOOTH",
"286 175 LINE",
"196 200 LINE",
"196 181 LINE",
"124 172 OFFCURVE",
"69 140 OFFCURVE",
"69 86 CURVE SMOOTH",
"69 30 OFFCURVE",
"127 0 OFFCURVE",
"220 0 CURVE SMOOTH",
"412 0 LINE SMOOTH",
"460 0 OFFCURVE",
"484 -22 OFFCURVE",
"484 -60 CURVE SMOOTH",
"484 -119 OFFCURVE",
"427 -148 OFFCURVE",
"304 -148 CURVE SMOOTH",
"211 -148 OFFCURVE",
"133 -133 OFFCURVE",
"133 -76 CURVE SMOOTH",
"133 -43 OFFCURVE",
"159 -19 OFFCURVE",
"259 2 CURVE",
"194 8 LINE",
"194 -3 LINE",
"103 -13 OFFCURVE",
"43 -43 OFFCURVE",
"43 -102 CURVE SMOOTH",
"43 -190 OFFCURVE",
"160 -223 OFFCURVE",
"300 -223 CURVE SMOOTH"
);
},
{
closed = 1;
nodes = (
"416 175 OFFCURVE",
"509 248 OFFCURVE",
"509 360 CURVE SMOOTH",
"509 472 OFFCURVE",
"416 546 OFFCURVE",
"286 546 CURVE SMOOTH",
"155 546 OFFCURVE",
"62 472 OFFCURVE",
"62 360 CURVE SMOOTH",
"62 248 OFFCURVE",
"157 175 OFFCURVE",
"286 175 CURVE SMOOTH"
);
},
{
closed = 1;
nodes = (
"212 251 OFFCURVE",
"158 294 OFFCURVE",
"158 360 CURVE SMOOTH",
"158 426 OFFCURVE",
"212 470 OFFCURVE",
"286 470 CURVE SMOOTH",
"359 470 OFFCURVE",
"413 426 OFFCURVE",
"413 360 CURVE SMOOTH",
"413 294 OFFCURVE",
"359 251 OFFCURVE",
"286 251 CURVE SMOOTH"
);
},
{
closed = 1;
nodes = (
"509 411 OFFCURVE",
"492 432 OFFCURVE",
"492 448 CURVE SMOOTH",
"492 457 OFFCURVE",
"502 467 OFFCURVE",
"540 467 CURVE SMOOTH",
"561 467 OFFCURVE",
"574 464 OFFCURVE",
"586 460 CURVE",
"586 554 LINE",
"578 556 OFFCURVE",
"567 557 OFFCURVE",
"559 557 CURVE SMOOTH",
"509 557 OFFCURVE",
"488 521 OFFCURVE",
"481 462 CURVE",
"455 462 LINE",
"478 417 LINE",
"509 360 LINE"
);
}
);
width = 605;
},
{
anchors = (
{
name = top;
position = "{289, 536}";
}
);
associatedMasterId = "2C5E45D0-97E8-45AA-A5B2-946753DF54E1";
layerId = "53781643-09F9-401A-BB61-77C8283A2703";
leftMetricsKey = "=o+1";
rightMetricsKey = "=n+4";
name = BottomB2;
paths = (
{
closed = 1;
nodes = (
"507 -223 OFFCURVE",
"574 -147 OFFCURVE",
"574 -47 CURVE SMOOTH",
"574 59 OFFCURVE",
"499 100 OFFCURVE",
"409 100 CURVE SMOOTH",
"231 100 LINE SMOOTH",
"191 100 OFFCURVE",
"172 109 OFFCURVE",
"172 131 CURVE SMOOTH",
"172 155 OFFCURVE",
"193 165 OFFCURVE",
"230 165 CURVE SMOOTH",
"286 165 LINE",
"196 190 LINE",
"196 171 LINE",
"130 163 OFFCURVE",
"79 136 OFFCURVE",
"79 91 CURVE SMOOTH",
"79 45 OFFCURVE",
"125 20 OFFCURVE",
"199 20 CURVE SMOOTH",
"412 20 LINE SMOOTH",
"460 20 OFFCURVE",
"484 -6 OFFCURVE",
"484 -50 CURVE SMOOTH",
"484 -116 OFFCURVE",
"427 -148 OFFCURVE",
"304 -148 CURVE SMOOTH",
"211 -148 OFFCURVE",
"133 -131 OFFCURVE",
"133 -66 CURVE SMOOTH",
"133 -29 OFFCURVE",
"159 -2 OFFCURVE",
"259 22 CURVE",
"194 28 LINE",
"194 17 LINE",
"103 6 OFFCURVE",
"43 -27 OFFCURVE",
"43 -92 CURVE SMOOTH",
"43 -187 OFFCURVE",
"160 -223 OFFCURVE",
"300 -223 CURVE SMOOTH"
);
},
{
closed = 1;
nodes = (
"416 165 OFFCURVE",
"509 240 OFFCURVE",
"509 355 CURVE SMOOTH",
"509 470 OFFCURVE",
"416 546 OFFCURVE",
"286 546 CURVE SMOOTH",
"155 546 OFFCURVE",
"62 470 OFFCURVE",
"62 355 CURVE SMOOTH",
"62 240 OFFCURVE",
"157 165 OFFCURVE",
"286 165 CURVE SMOOTH"
);
},
{
closed = 1;
nodes = (
"212 241 OFFCURVE",
"158 286 OFFCURVE",
"158 355 CURVE SMOOTH",
"158 424 OFFCURVE",
"212 470 OFFCURVE",
"286 470 CURVE SMOOTH",
"359 470 OFFCURVE",
"413 424 OFFCURVE",
"413 355 CURVE SMOOTH",
"413 286 OFFCURVE",
"359 241 OFFCURVE",
"286 241 CURVE SMOOTH"
);
},
{
closed = 1;
nodes = (
"509 409 OFFCURVE",
"492 431 OFFCURVE",
"492 448 CURVE SMOOTH",
"492 457 OFFCURVE",
"502 467 OFFCURVE",
"540 467 CURVE SMOOTH",
"561 467 OFFCURVE",
"574 464 OFFCURVE",
"586 460 CURVE",
"586 554 LINE",
"578 556 OFFCURVE",
"567 557 OFFCURVE",
"559 557 CURVE SMOOTH",
"509 557 OFFCURVE",
"488 521 OFFCURVE",
"481 462 CURVE",
"455 462 LINE",
"478 417 LINE",
"509 355 LINE"
);
}
);
width = 605;
},
{
anchors = (
{
name = top;
position = "{312, 580}";
}
);
associatedMasterId = "BE4E587A-F76C-447B-AA28-A45E40876AAF";
layerId = "401C29B6-14FC-4CED-99F2-D3287FD0286A";
leftMetricsKey = "=o-11";
name = "Jan 14 18, 02:10";
paths = (
{
closed = 1;
nodes = (
"580 -223 OFFCURVE",
"687 -166 OFFCURVE",
"687 -36 CURVE SMOOTH",
"681 94 OFFCURVE",
"567 144 OFFCURVE",
"441 144 CURVE SMOOTH",
"305 144 LINE SMOOTH",
"283 144 OFFCURVE",
"272 147 OFFCURVE",
"272 157 CURVE SMOOTH",
"272 166 OFFCURVE",
"283 169 OFFCURVE",
"305 169 CURVE SMOOTH",
"312 169 LINE",
"255 195 LINE",
"255 167 LINE",
"88 164 OFFCURVE",
"23 137 OFFCURVE",
"23 75 CURVE SMOOTH",
"23 5 OFFCURVE",
"104 -28 OFFCURVE",
"232 -28 CURVE SMOOTH",
"389 -28 LINE SMOOTH",
"422 -28 OFFCURVE",
"438 -35 OFFCURVE",
"438 -50 CURVE SMOOTH",
"438 -71 OFFCURVE",
"407 -80 OFFCURVE",
"343 -80 CURVE SMOOTH",
"287 -80 OFFCURVE",
"252 -73 OFFCURVE",
"252 -50 CURVE SMOOTH",
"252 -39 OFFCURVE",
"260 -32 OFFCURVE",
"289 -25 CURVE",
"242 -15 LINE",
"242 -36 LINE",
"98 -45 OFFCURVE",
"3 -71 OFFCURVE",
"3 -130 CURVE SMOOTH",
"3 -196 OFFCURVE",
"125 -223 OFFCURVE",
"331 -223 CURVE SMOOTH"
);
},
{
closed = 1;
nodes = (
"484 169 OFFCURVE",
"606 253 OFFCURVE",
"606 382 CURVE SMOOTH",
"606 510 OFFCURVE",
"484 593 OFFCURVE",
"312 593 CURVE SMOOTH",
"140 593 OFFCURVE",
"18 510 OFFCURVE",
"18 382 CURVE SMOOTH",
"18 253 OFFCURVE",
"142 169 OFFCURVE",
"312 169 CURVE SMOOTH"
);
},
{
closed = 1;
nodes = (
"283 327 OFFCURVE",
"262 348 OFFCURVE",
"262 382 CURVE SMOOTH",
"262 416 OFFCURVE",
"283 437 OFFCURVE",
"312 437 CURVE SMOOTH",
"341 437 OFFCURVE",
"361 416 OFFCURVE",
"361 382 CURVE SMOOTH",
"361 348 OFFCURVE",
"341 327 OFFCURVE",
"312 327 CURVE SMOOTH"
);
},
{
closed = 1;
nodes = (
"606 383 OFFCURVE",
"606 383 OFFCURVE",
"606 384 CURVE SMOOTH",
"606 391 OFFCURVE",
"607 392 OFFCURVE",
"634 392 CURVE SMOOTH",
"660 392 OFFCURVE",
"674 391 OFFCURVE",
"689 389 CURVE",
"689 580 LINE",
"681 581 OFFCURVE",
"672 582 OFFCURVE",
"666 582 CURVE SMOOTH",
"628 582 OFFCURVE",
"607 543 OFFCURVE",
"607 431 CURVE",
"581 431 LINE",
"589 416 LINE",
"606 382 LINE"
);
}
);
width = 697;
},
{
anchors = (
{
name = top;
position = "{333, 580}";
}
);
layerId = "BE4E587A-F76C-447B-AA28-A45E40876AAF";
leftMetricsKey = "=o+2";
rightMetricsKey = "=n+1";
paths = (
{
closed = 1;
nodes = (
"601 -223 OFFCURVE",
"708 -164 OFFCURVE",
"708 -31 CURVE SMOOTH",
"702 103 OFFCURVE",
"588 154 OFFCURVE",
"462 154 CURVE SMOOTH",
"326 154 LINE SMOOTH",
"304 154 OFFCURVE",
"293 157 OFFCURVE",
"293 167 CURVE SMOOTH",
"293 176 OFFCURVE",
"304 179 OFFCURVE",
"326 179 CURVE SMOOTH",
"340 179 LINE",
"276 205 LINE",
"276 177 LINE",
"109 174 OFFCURVE",
"44 145 OFFCURVE",
"44 80 CURVE SMOOTH",
"44 7 OFFCURVE",
"125 -28 OFFCURVE",
"253 -28 CURVE SMOOTH",
"410 -28 LINE SMOOTH",
"443 -28 OFFCURVE",
"459 -35 OFFCURVE",
"459 -50 CURVE SMOOTH",
"459 -71 OFFCURVE",
"426 -80 OFFCURVE",
"358 -80 CURVE SMOOTH",
"297 -80 OFFCURVE",
"259 -73 OFFCURVE",
"259 -50 CURVE SMOOTH",
"259 -39 OFFCURVE",
"267 -28 OFFCURVE",
"305 -28 CURVE",
"249 -15 LINE",
"249 -36 LINE",
"109 -45 OFFCURVE",
"16 -71 OFFCURVE",
"16 -130 CURVE SMOOTH",
"16 -196 OFFCURVE",
"141 -223 OFFCURVE",
"352 -223 CURVE SMOOTH"
);
},
{
closed = 1;
nodes = (
"512 179 OFFCURVE",
"634 261 OFFCURVE",
"634 387 CURVE SMOOTH",
"634 512 OFFCURVE",
"512 593 OFFCURVE",
"340 593 CURVE SMOOTH",
"168 593 OFFCURVE",
"46 512 OFFCURVE",
"46 387 CURVE SMOOTH",
"46 261 OFFCURVE",
"170 179 OFFCURVE",
"340 179 CURVE SMOOTH"
);
},
{
closed = 1;
nodes = (
"311 332 OFFCURVE",
"290 353 OFFCURVE",
"290 387 CURVE SMOOTH",
"290 421 OFFCURVE",
"311 442 OFFCURVE",
"340 442 CURVE SMOOTH",
"369 442 OFFCURVE",
"389 421 OFFCURVE",
"389 387 CURVE SMOOTH",
"389 353 OFFCURVE",
"370 332 OFFCURVE",
"340 332 CURVE SMOOTH"
);
},
{
closed = 1;
nodes = (
"634 397 OFFCURVE",
"634 402 OFFCURVE",
"634 407 CURVE SMOOTH",
"634 426 OFFCURVE",
"645 437 OFFCURVE",
"687 437 CURVE SMOOTH",
"717 437 LINE",
"717 628 LINE",
"693 628 LINE SMOOTH",
"642 628 OFFCURVE",
"604 586 OFFCURVE",
"604 492 CURVE SMOOTH",
"604 490 LINE",
"578 490 LINE",
"607 436 LINE",
"634 387 LINE"
);
}
);
width = 726;
},
{
anchors = (
{
name = top;
position = "{301, 524}";
}
);
associatedMasterId = "67AEAADB-8447-4819-9D92-8BB76BD22042";
layerId = "A4EAD33A-AB63-466D-8A76-40F53B33F9A7";
name = "Light [6]";
paths = (
{
closed = 1;
nodes = (
"481 -216 OFFCURVE",
"561 -151 OFFCURVE",
"561 -61 CURVE SMOOTH",
"561 11 OFFCURVE",
"510 50 OFFCURVE",
"412 50 CURVE SMOOTH",
"209 50 LINE SMOOTH",
"137 50 OFFCURVE",
"103 71 OFFCURVE",
"103 108 CURVE SMOOTH",
"103 157 OFFCURVE",
"161 171 OFFCURVE",
"248 171 CURVE SMOOTH",
"300 171 LINE",
"224 186 LINE",
"224 181 LINE",
"146 181 OFFCURVE",
"98 157 OFFCURVE",
"98 109 CURVE SMOOTH",
"98 68 OFFCURVE",
"134 45 OFFCURVE",
"209 45 CURVE SMOOTH",
"412 45 LINE SMOOTH",
"507 45 OFFCURVE",
"556 8 OFFCURVE",
"556 -61 CURVE SMOOTH",
"556 -148 OFFCURVE",
"478 -211 OFFCURVE",
"311 -211 CURVE SMOOTH",
"158 -211 OFFCURVE",
"65 -177 OFFCURVE",
"65 -79 CURVE SMOOTH",
"65 -8 OFFCURVE",
"124 44 OFFCURVE",
"254 45 CURVE",
"177 49 LINE",
"177 45 LINE",
"114 35 OFFCURVE",
"60 -5 OFFCURVE",
"60 -80 CURVE SMOOTH",
"60 -180 OFFCURVE",
"155 -216 OFFCURVE",
"311 -216 CURVE SMOOTH"
);
},
{
closed = 1;
nodes = (
"420 171 OFFCURVE",
"506 242 OFFCURVE",
"506 351 CURVE SMOOTH",
"506 460 OFFCURVE",
"420 532 OFFCURVE",
"300 532 CURVE SMOOTH",
"179 532 OFFCURVE",
"93 460 OFFCURVE",
"93 351 CURVE SMOOTH",
"93 242 OFFCURVE",
"181 171 OFFCURVE",
"300 171 CURVE SMOOTH"
);
},
{
closed = 1;
nodes = (
"184 176 OFFCURVE",
"98 245 OFFCURVE",
"98 351 CURVE SMOOTH",
"98 457 OFFCURVE",
"182 527 OFFCURVE",
"300 527 CURVE SMOOTH",
"417 527 OFFCURVE",
"501 457 OFFCURVE",
"501 351 CURVE SMOOTH",
"501 245 OFFCURVE",
"417 176 OFFCURVE",
"300 176 CURVE SMOOTH"
);
},
{
closed = 1;
nodes = (
"506 417 OFFCURVE",
"486 422 OFFCURVE",
"486 456 CURVE SMOOTH",
"486 490 OFFCURVE",
"508 535 OFFCURVE",
"558 535 CURVE SMOOTH",
"592 535 LINE",
"592 540 LINE",
"558 540 LINE SMOOTH",
"499 540 OFFCURVE",
"475 494 OFFCURVE",
"475 456 CURVE SMOOTH",
"475 455 LINE",
"472 455 LINE",
"495 408 LINE",
"506 351 LINE"
);
}
);
width = 609;
}
);
leftMetricsKey = "=o+6";
rightMetricsKey = n;
unicode = 0067;
},
